<mxfile host="Electron" modified="2024-01-10T11:13:32.095Z" agent="Mozilla/5.0 (Macintosh; Intel Mac OS X 10_15_7) AppleWebKit/537.36 (KHTML, like Gecko) draw.io/22.1.16 Chrome/120.0.6099.109 Electron/28.1.0 Safari/537.36" etag="8pHJmt57q-L5oDFR3bBR" version="22.1.16" type="device">
  <diagram name="Page-1" id="4RAmNV8LNrhTwWF_ra6-">
    <mxGraphModel dx="1746" dy="1427" grid="0" gridSize="10" guides="1" tooltips="1" connect="1" arrows="1" fold="1" page="1" pageScale="1" pageWidth="850" pageHeight="1100" math="0" shadow="0">
      <root>
        <mxCell id="0" />
        <mxCell id="1" parent="0" />
        <mxCell id="aU2NGoO0RUycPqF2l8S9-1" value="&lt;h1&gt;Development Flow&lt;/h1&gt;" style="text;html=1;align=center;verticalAlign=middle;resizable=0;points=[];autosize=1;strokeColor=none;fillColor=none;" vertex="1" parent="1">
          <mxGeometry x="310" y="50" width="230" height="73" as="geometry" />
        </mxCell>
        <mxCell id="aU2NGoO0RUycPqF2l8S9-36" style="edgeStyle=orthogonalEdgeStyle;rounded=0;orthogonalLoop=1;jettySize=auto;html=1;" edge="1" parent="1" source="aU2NGoO0RUycPqF2l8S9-2" target="aU2NGoO0RUycPqF2l8S9-35">
          <mxGeometry relative="1" as="geometry" />
        </mxCell>
        <mxCell id="aU2NGoO0RUycPqF2l8S9-2" value="" style="shape=image;verticalLabelPosition=bottom;labelBackgroundColor=default;verticalAlign=top;aspect=fixed;imageAspect=0;image=data:image/png,iVBORw0KGgoAAAANSUhEUgAAATEAAAClCAMAAAADOzq7AAAAllBMVEX///8qotYhISEAAAAfn9Wk0eodHR0VFRV+wOONxuUboNUNndQ3NzfKysrz+fwSEhIICAjv7+/V1dXj4+Nvb29/f38lJSUrKyuioqKUlJSvr68ZGRlyu+D4+Pjb29v19fXAwMBlZWW2traamppXV1eEhIR2dnZHR0cvLy9AQEBOTk6AgICNjY3B3/Gs1uxsuN8Ak9BqampaHmLyAAAFiklEQVR4nO2aa3eqOBSGGdKGzlEOAa+VsWq91Lb2nNP//+dmJ4CSCy1BZ+xafZ8PXeImkDxsko0lCAAAAAAAAAAAAAAAAAAAAAAAAAAAAAAAAADAd+ftrhW/rt3Pr8Nt76YFvbtr9/PrcHvzVwtuYOwIjPkCY77AmC8w5guM+XLb+9ECGAMAAABAW95+/6P4/VNt/vq7FW9X7vU1qeqxXmHsrt2PP7dX7vU1qWr+yli7RwAYg7H2wJgvMOYLjPkCY76YxnofAmOWsU/owZifsZ8wBmP+wJgvMObL0VibnWEsOBn70ebdHhgLav+v/NHi3R4YCzz/wwtjAYz5A2O+wJgvMOYLjPnS7t2eqrr4U/zo8+c7GwMAAACAF+3e7bn7zu/2GODdHl/wH15fYMwXGPMFxnyBMV9gzJdP3u2pgDEAAAAAAAAAAAAAAAAAAPwvLNL5tbtgMxik1+5CA4OdYMTq0QykvN/npcrZpN8PD47WI2q6cx02G/drjGPtlGE9NrHOHCzWfdkn9h5boSDY7fuTqXss231xyOfVwdXyMkxZEkoilhg9TxnnrDC2lB9dYuaMmrKFI5JRkxNsWY8N9NjMbLtmgpedeh5YRx4mnDUYG4nymFHCxvaFuAhLOeRERPSXM/26pBQqjMXy09DVfCqooXD1P2NhDdOYFjONbWSYR5G0lustJcPIfUZilJwOy9mqYcznEfKQJ9v7XcJ4Yjg5GnugD8J9+rEcFeeOiDIWVTiMnWKGsY2Qww2HuycmLyQz769PjHF5SKau5KZx2N2RfRcqj5ZhYsQqY3QPNZ1cJl9iZlCBNGYesX5W1tSlGQXzUGlKh0zKM3b42JhYq5ZT6nTI7ptO0h0aMn8uP5szRmkspTkleXE33+ShOIgwd4Q7G5OSxtXafS+vqDHuT4yVey9k+rPLL7dyXK4MkShjwZwuePLk3oNGzvsB5yGz5+euxh5lLDtuvuSkTN+jnbHi9lk3nKU7xVq3v88csSLH+lGYNwgLtomcttciTEZWrKuxd/18atF50PZoaSxYRSFv6vkZvKp1iSqyoVXASGP8KXLMvSXzYuCL45paR8384xLj7hioO6+K6fk54XpmyIPrdUJbY7OP7v0zWLG8ofRJlUwZE66CS3Up2QYqLewhKGPHkss2dorppxVGuZFb5UdbY7HzSl6A5QsritjcGJcyRvlHNt0TP6WDakLVh11gdDVGXRF1Q6yzseV/lGNE+ijLMRKj11zKWNRXye2aQeU15KMdkTuWD2mM7ycFwnFXHmO6sSceRrWnCzWZ6rNCW2M0v/LQvd8liJ+5eUXUPDaZ01OJtnod2eRVHSoT1EzDrjP/IdFia2HdWm2Nka/E+ch7JtU6pOZvLRXS6hv1XGBNCPqjjlVgdDWm2h0HKvtgpH5bYwfRvGadQ8x2hYu5NU9qT0mRVfRvZTJU0Chf9XDnClZWYGxbdkGVoXpx0armJ2Hy0eHZvds5UN8TdsjSRUb3GFWjdU5P4lP5yewkq+VVZi9LnY2p3BX7WTaIX9WjztbYgYxFw8dZiXZWMpa/U2g6EsKR95dgLw+cyCyxV/GTsWATWZeaFoT8lHd9birtbIzSnhclolrCmZXcZIxqoQqt8JFP4jl9KRK19rvq8nOZr9TvA8VM9K7Hasbm9GxpFBB7Xl8fyR8fa/HuxqipqPqUO36VG0b16dMydmzp+GntImQreUkSuqTmbZfKS1gmfSw/16+2+qK2LTeX2nGNHeoMPohJ5gfVJ8r9F0earFgdzdju9P1mabe8FPN4ejhM7VVlHhPVRkafl7XePdB2/TbNjO1gUW9t8FGsJF6/jg4zZ5bIU53QQg/Vtw+uhgAAAAAAAAAAAAAAAAAAAAAAAAAAAAAAAADgq/MvhvFnQ5NMW0IAAAAASUVORK5CYII=;" vertex="1" parent="1">
          <mxGeometry x="314" y="1937.75" width="244" height="132" as="geometry" />
        </mxCell>
        <mxCell id="aU2NGoO0RUycPqF2l8S9-3" value="" style="shape=image;verticalLabelPosition=bottom;labelBackgroundColor=default;verticalAlign=top;aspect=fixed;imageAspect=0;image=data:image/png,iVBORw0KGgoAAAANSUhEUgAAAOsAAADWCAMAAAAHMIWUAAAAulBMVEX///8pgKgReaS80t/5/P08iq/m8PTz+PrO4Okmf6i4z90gfaUJd6Obsbk2g6bV4+vc6O+lsbaJmZ5IiqfU2NuDk5o8h6fY3N1KhqB1mKR8lZ3m6OiXvNAshKuqx9jC1uKDssl7qsRfi55ckKaZpqtUl7fA0dpskaC0vcG9xcnt7/BfmrlupMCiwtRFj7Ls9PiWssCLoqx3kJu4xMh2o7qFp7lxmaqRn6Wrws1UhZsAb55zkJySpaxUj6xcCoWmAAAMIUlEQVR4nO2de0PaOhjGJXLLUhGwFUepAuqggDqdOx7nzvf/Wqe3pIlN29wquOX5Y+cIbeiP9snlTfJydGRlZWVlZWVlZWVlZWVlZWVlZWVlZWVlZWVlZWVlZWVcw76ehvsGENZxB+jqvr9vCDHdObClKwS+7BtDRH0DqJHAZ3iOt8gEagss9g1SrwcjpJGCfZPUqwvMoEL4sG+UWhljRZb1kGRZFYSGPaNqHzBrS7vzxSpYGG+xzbGaFkDHfw1rRGu4l33IrOj272Ftge5fxHplWS2rZf0srM6HsSIAUNDZp4KPYYUA3M763Ydee58yilrGCtDcbNt2COKzgvnhj9DkxWOFLbM+ORRxWFHwGeKfCiqywuDPc2qqIiv6Q+8qhxVc7vuSGtN7VrTb9xU1pwLrn2rWowIr+gTTMsp6x/o+xDO8Oj489XtGWDvMm1f3hgOhhtSaKfWUWVa2ZroERqZmGxC4VYFlWZkG5/SAh7ZK073vWOmO8M7MLHQzUgkxvmOlhje9YF8cIlLp8jCs8L70Wzg0gZkmK5hT71wdNqvCZA/LStt1rs4Ko2ah4SpcZbqXZoWQNvy98tWi+/636bJRWMZtSqx0AQ/qtXAQNX4T77pJWMZtKqxMAcfKj3BqpdHUBFPpZ6hEiRhWI3aFMDl/4v3X3I1VW53BsNIFKNsV9zO9VYOsKnalWdnWVdmueBnmTYMPsUrryrAyBWjY9TQtYT1truOlNqlFszJ2Vb+vmRPc8cAIF0eKi6lyVtgyYtcWyEbSE685VrWFFBTrLfdlvhCCsOTbQO1a1vhsNcpUSq0rDcXY9UsN63yxWp7xrzdnPee+D0Fn/n11rgOrOAdNsdIFLCrtmiwCX3srbqcXVN/XdLl8qFNJs25TYIWQjlh1Kr/2IIOZDjiHkbqJy4o6ydu+p1FJK9o1Z2UWTg2ra+FsDbjvTTmPIl75z7116L6dnaqOqti6UqwydsVVbQRbvHfYC6O34veAOtkD7nLeFGdVnDIlrA4dGa62az5Qdr2vLEsc0cy+NG+JCvUtaRfXF+qsEGnGh2GLsWv1p+Wh1XU+dIs4B893fR+Xs/Hd9ePqYtDKefN1LTptL9qqoRJWpoDaUJNDBvXjcWJZCJztJSe0156sx8vzrL7OA52uzkhe1a4ES6p1paZ9Jl7kPOR0LsufK3/99JpU2IgEsF90ulTKS20Jq4RdIzlkQvpmfOZsaz69HY6XA5iHOUO9AI2iXfPHlSqgXd26xspbKP/pUeB7bofea4Bv6+ZJh1R9VXHGyrauAuM5cIePnoh9UG/0A//vDa8LIixlu2JWpoBLkbGrw72b3ePZ7rYTtILOdnFXMncYarQ3LZ2V8ZhVzq6xCjPw7W/PAwcAlJBAFLe1ndlp4RPdV83YjKpdMWsg0bpmgi0G1v85yDDpY4DTuWOvbaKJqty6YlamABG7xgKUxyf/oAIoPgzMKVrNKljHrhmrvF2jc/Lvx3+srG0AVbx2jFxjI0vGShcgNu9Koa5fy+4pObhDfKsLGyjbFfuVnpIXGlnmjdSm+qamgg65ta5XEtAQkoZdU1Z5u0I8ODuavIm1lmCLzwh1YPN2XZGVKUDErpBM4Yf8QAzvKu/x0zfijHqFWTX2nSWsDt0KitjVwQPY8E38MhGx2ov69AfUWBefsAZUAW0Bu5JhTvgmEzYiUYmNcv2ktVwyZmUKEOoMZw+Syw2uVVwprtBC1dCajl0TVmm7tpx5fOhGupLBo3WXHzoWKKDY55RklbVrdErQP2p/lbedEweHN8/KC+I0WteUlS5AxK7pVS8WClN5EPSO/kXK82I6rWvCythVfGGe2hWjbUdjlaPeovWIlSngrulVTXpjVx27Jqw1dkWZuH9DVBDzek1Z/JdKFWjtOotYa1pXuN39PIn0OP0nvSe73Un6d1QLR2+evNPjND0p+eP3lK1xd9/Tg6akBkdb/FJ9Z0pzM0IXsK2rU/gAh8xFfU2uDy+nHo2j63WKG1xG41YeQJ6M2RkffNANqcLJ6myBaXjNPSZdUGdXfNl81qKBUtbsO3BLWMkkXj60FWHV2zoUsdIFcDJXNcLa87IAW/5gCLB29DaJdh3GrpwPaIQVz+LBfINBPavu3qGuQxfQ57Q4zbBms+5U97SeVXdLWPcXXcBMmbXdxvl5ns9EWI/GyVCHWsouwKq506/7q8auYqwT78LJNpQkU5D1rOu4aaKnG+pZdVO6dRH1B3eJvyArOyKtZ/W96B06rWItq/ZWv26dXRnWWPjbLbBmEmRNghOAGnXUsmrv4BzSY1eeXSnWp2WsFZ91eZHq+ryWdZP8G07xndoIsupuzO3SFSk3LySZQ3+XCIFh7fmZ3LTOqWT1E7hopJ+GrXxfjFWzdY0AqKeoxw1pOyW7fvhtju/Vs27C5D83Kye5+h9tIVazO3O5dm2A9egm+Td8Sq/+8UiI1eyGa65dm2Adpw/xU1IL+18FWY3uo+encW2ANZti9xLkHz/FWI0mTH3gh5okWVcX9azr9Famtp3OhVgN27U4dqVZN+63y0Q81k347yzRPK3fqlnDZf48+q8zIdaPsCvVvq7STcU81qiPmPYQMxtUs7pv+YTsenApxmrUrrf8kE8DfUT3KTffm/NFhBVqt660+K2rBCukeok0K/169uqUrKJxX/E8WDXrR7Suwqy4jxj1EgcUq/dKXo/vMGYls1+jgRir2eTrJXYVY924E6ww7iViVur1myXFCrNe/2YFgdh9NWvXkii1bFzCj0NJnPgiw4rvU3ghyNoplKehh7KIfDOs2Zr93/nC60pWs/lMSrdsN8Oahp2HAyjGataupXtA5VmvRVjh7W63i3d3ibEaTclTZtc87r+6ZlhPvp5zmfzVWYv3+mN0eoCLaqUzPkl4LWNdVbCq7QEtU/mWbXD5JdbxPJ1LhMFx+vd9fKVglv6V63gWHwfuCq8ni5JxUVT5aJ4cely17eyD7EoSgeMvA+J4If0mk5mG/zr1Mvu9Iur9skswmk5bacu20lyqyklmM2iV2rVcAJ7JXzUYKCxag0Zb16701w2d2WosvUwJzB/HS+nPQnOTrNIJUUBnGHWCx5I3KV7bEXpPshtC92pXmC5wCr2x1GIumMwJbl5kl619UOtacs3ZkGzN3xZadhquYtZyi8MNt66SjzAJEowkYCE560RuuZBZu8pmWIBkgnot7FkEMeqPumXk72TYrrLrsvLJxMizQu4DHbwfdCK5FQmabV3rN5UVLp3aPThe1V49dJ7x8b7sriuzdu1KPlQJ7ByfvbnxxhfVbSZCZEy2kc5AoJhhoURKCVGc/BJcz3s7K++7I/BMZsgUlkmbtavYprL3+kVtGw9j2hYPFwL07OcHtm+kO1tM+iFtKSVEcZgl2u3wxZsuY1yqLBiNUS++++yHjcZyewcN21XlES66yF9HuKvrs3jMndAMLl5P3GII+8WTsqxZu9Zu2eaIv+N244ajl7E3fXp7m/5euz7vmMiyUklDzP4oh4JdITFRrwjUbvN+hWxGvh1Xpn5STYhSIvnWlZo1C98WImvwrzogj8ONJFIuqCZE4Ush3VheX7S9c1D/Kw9X94DZgieRi23vds09NIqHLMDZVWz9ergL0uAU2a0V9aKFb+ze7UpiIpMsrwtyghl/A/vlNg+bkeQm4j0K5YQoXLXlW1eyOrRHLVwHDtrOrrp5rdTrXy46Dh00zLec3IjmvjFsV/7SgUpWPDr7zfTjIQLAASRn4NP74ChlvlA0p5HGlm2O5O2aZbaMxty8IQuubte8SQvc2RLOVWX2twcV7JpNVTxyh0c4OBRy659sf/NGsDthuHVV2LGYpFTr/lfyk0pZZcLPQdZydvHJruAg1qxda9KNcYUW3dNF2W+V1+XRQ/BueCrafdm3XVvpT5yVvlebH5FMBtXLrF2NZ7avyRkoJcOtq0JnuFokZ6CB3K1mfxW1ZBGihkjOQK0sTVlZc5OsGklay64P5ww0kGvZ8I80lS1rUr++rOp80UvTlMjwD5n3AsOVUzZZqpdoLJXZFifSMDB8Z9N1IaFuSqpo7DQ3jBrd2ZnZ+ilZJtnTd+vtZ/j1w7iBNf0bn1ZWVlZWVlZWVlZWVlZWVlZWVlZWVlZWVlZWVlZWH6n/AUloFsyyHtI0AAAAAElFTkSuQmCC;" vertex="1" parent="1">
          <mxGeometry x="563.5" y="468.91" width="110" height="100.17" as="geometry" />
        </mxCell>
        <mxCell id="aU2NGoO0RUycPqF2l8S9-4" value="" style="shape=image;verticalLabelPosition=bottom;labelBackgroundColor=default;verticalAlign=top;aspect=fixed;imageAspect=0;image=data:image/png,iVBORw0KGgoAAAANSUhEUgAAAMgAAADICAMAAACahl6sAAAAulBMVEX///8Nzv8aGhqy0NddXV3v8vNgYGCixs/f5ef7+/v39/ceHh7BzdB7e3vg4OBFRUW0tLR1dXUjIyPp6eke0f/FxcVoaGguLi5KSkqRkZHR0dGHh4cqKipSUlI6OjqkpKS7u7vR2dyYmJjH19s1NTVIx+dsw9kqyfGLxNKbyNRZxuKtra1kv9dH0PPOzs6cnJy809mAwtNLvtw92P+Ay95p0+2s1+KEwM9JtNCWv8lyyd6dzdmyxstdsseocj2HAAAJ90lEQVR4nO1ba1MquxJlgBFm2ILAAALyEBAQRUXOvZ69t/v//62bzmMmA92ZoKfq1K3q9cEaIISspB8rnVgqMRgMBoPBYDAYDAaDwWAwGAwGg8FgMBgMBoPBYDAYDAaDwWAwGAwGg8FgMBj/T6gdD7GzQbwL9mmLl1Xnxqvbx+Ozu1sc0eLawvj1pun91SQIKs4GfwVB8Kafu4NyeeLuL358ONZKkej2t/cYMozLpxi0e35fFcOsuT5figZJqJ6jiej51dX6/iAYBJtSKP4++g0gh+oZEYHVuOvx1QIi3Y21IDBffUfj5UMgsS+VKg9fMq1mtZVhemeoNPovhV91E4lgaFv94kZ02aKHFz5LFsnuZ3jh8OkuX177A8WlX7QqbiL/ER8/6OemmKDGiGy6TCSN7VcWwonelTKwgkVxEnkEg9cj604FDzpkvQGP5OBjzRdj1G+AfQ2djVxEpKPX1bN09AXZzScsx+6ERhSGYeQ/XgeafWlers4cRHKOfu109Epg+ZJAOB9XW8pX71rVYXEErZ8j72k34CsTh/cZIvFkMD75aCc+W+vnnljcAdnNPfD4b/rypdo4zQZjp+vEOtzlkey391mbETC5pbsxRObCCPMD3YKD6Lekg8ypPqK9lTaipwmaDJ4cRN4wHhKbj9Rcu7dOozBEILbm9MDjKQ/a0X9aS/cy1WtQbQ9nNzc3s2H7Vq3PhJYbFZIIeJ5ZlhiYnJpNIRGIpp6OHiZZbBvKQU8WuTAdzibw9oCM3UCk8iOPt9r2OVFUDtrJQ5hPyt8IItHGspZh2SmxYO20sIKQUJ4iEb8Hnr+iLByIoA643CmpoL/4IuZjSoQugshBvP+un0cdEXscMlR4aqJ+CRh3huhwm2By15cSMbJno23jle4EJ5Jz9JXL0UXkDIyAlqGNsp9uS/wC4WcOIuJDMI5EOwrkE3wsKJELHF0uXqKexFA7tIYBC7/DM39KJB4iSjcG+9qo97vCOlreRLrgZEv94soVKgDHIHiWD72ClvATuMxIiQxRy5Hhfa+ewQtRf0eIRO8QKfTnM7fkFfOVRgXxGx2n1hJLcusmIiyninwe7lPh0GwQyQQhIh1dx4aXAkdXWV2tXov2ZgUx3w005qRErnAiajuh1JLg2sH8yRDppZn99wWOXlJZWcaUqEEseunxb1UX6J0mXW8i0to3kekE26UaIlGr3E4HZjJh3HJmwvwgmqItalmhmc2RaIEGg2IiMo5+yqcp3sYQKUVqEOEmyMoR7YK9LaAm2seGCDkGaXy9bxCJE7PFEwbaQZw2yMv4yxwdUE+CnXqa4K4MQ1Ah54ZaMw8icjpkMukKE0YU6AkRcPQH4+iNIkdXA62bpybqyTvjRDCXd2gXPkRA0X3IpwnaKE8k5yAgKmZuEh6oZdL4qjD8OoiUns3CjtH5yBG5B8mrM2FcdYgjf1gqOr6jOvQi8mYaPaHBzyYiHd288nH0YlSSrMsZlZT9iEBRVPbUREWbTeTd2iC9+jh6AaIaZGRt2aVwRckkTyLvRgt1MKljEbGLP82Os4jlg/pB7Yt0TULuzuZ4Uz8iIhAd5YPIbu2zTzMiOQe5JQWeF+LK+qg33boME4GpUoP0I/LTyGw0bP0yAlny0L8aT77p6Hu9304Ljz3QCANKUvoRsaUlEv1056G9t+1/19EVi7Ve3+aiVS7csxcT+WFSopDZU7LVGuoV+rnn2l97ATozGxq5GE4enkTuDRGRSFaurhKz8rNvR147Fupy+rWjSuhP5Ac8CCIDqo29J1Q53VVQK4RNRNfrbh0x8EIiC0rqKB7WCdxI5OBO8dkKDUhIRoJFs2tZomvQZ12XmxaxIntL8krMG44Y4wHl7B+pNTXlmRq5yP7OLmeH9JEPqwamce2I+h7QJcJgZ4r5sgRJSmk/IjXTiopatuQ1kHn46xlxafJhdmYiNzdEcz8iHyYhtnEVLR3E5N/Ds3Z5OIkm66w+qNf+qMM443tDulrkRyTV8fiGBDYs6Zn4r0xtgVhefe9YM1Zq66d+2SLqH75EjsaRbzGtJTdwJhM+SmPQ+zxwk8k39W8X8qyJ6zPS372IpDUMyEznS7u1HP1e+egv/REIFYT5ZYDikr5wABsrPM96ERGznMg57qITYh2DSLllZZR/Zq+7zabminJ3LyJHYzl4eSzbMIAzBc/2lQ2oPriLoD54SDsU8b+DNvEhskzVwgLtJhMTusJ4sHzm2n3Co7A2zReNCVZGqSdmScBJUKfzIQLepiYVLxCnRGqKRynaZbYQQSneebqtjkfU4cWA2JIfTEb+Tl0LaqZ6wgaowRsiMG/qNMW+fyLzovNQQRL5YX4APUepm3BzduB6AZF1Gv3meBQ3RCrZvqpuBYDivXuYRocpVSdeB0dz+vFV04LJ0CckfdzcbSJGpoC3mHJjYTUlSlPepGgXc0WJvWIi72kSgYoppp0wIjJJGjVcuO1NT6zGZOZWCDtfzSMRBNS/1DMcsmCOhhKJrQ28+5i+ZJ0h9gp05pisBxUQiSz1Ea3K5SusD5SIEmCWfKSOYwFLWzoMaCtskueYRUSerdz2RM0GTkS+NPLxxlXJEdhY1WXaCpsr+szXSaQO62EKbqA88SsDBJFcXoQBorlO4cMsidQ0fdxNRivH4ZeDiJKdKY9XUnhSRGQ20W5SkE2y8z15FekOufoQDzuu1aKI1GvqCsfOTA5cwiASDUXkPJvMSSa7lHNT1n4Gi/yqxEP5Nr2o50Tiz6UaQmCXE6AOfkcERpJIrtQ1h1NqMi/Ws71yU1XjGq324mk+GjVHvadxtSPfI2wOJ7KDqamd7PujqkOO00SkALfz4pSMSNbVlWi4KmNYzUkaGBGxFn9gRZK1dYnOeWTjIOKfF2XCMvdeSvN+54RFYzJzKs9zIr9lQT2qW1+LYQj0XUAXEZlN9PDCgbP6uLeZlOL5eJKS6UyGRXsaxNnDU0OURruiezKX/DEiStqbbAI1O/KMV+0uc/8u0BUO0uuNfDZmHupX3jJtOTp7+3sbmb7OiEj5aHb0s4ZrRuS9l2D/Rn3uRCGRuSwgu27L5vo6JwL1oVxevCVtXdd+HipfuLLsJtIcygufjXHBDi/rCyESWzc6oqlbFarb8UHy655ug4MmEvXG+nhlWnCiudc+ShCRktDcFZLFCEd/Sk4Al/f1h/O/Uk5gExlUU0xuV+Ym9AC/KZmhbrZFFBGZI+wza+fepLvdBAYHV0OaCIJG9am4UPiu5Xrd6KUzrK0xjYsLXW8HfRL6x5sHLLuqvS3OSbTaM7+K1Kdeh+UnFRO21r+T9eYeXYaVw+64R9eXQG2v5e1r28Zw1vvH/x2FwWAwGAwGg8FgMBgMBoPBYDAYDAaDwWAwGAwGg8FgMBgMBoPBYDAYDAaDwfg38D8lZKIwBbAqZAAAAABJRU5ErkJggg==;" vertex="1" parent="1">
          <mxGeometry x="609" y="351" width="97" height="97" as="geometry" />
        </mxCell>
        <mxCell id="aU2NGoO0RUycPqF2l8S9-5" value="" style="shape=image;verticalLabelPosition=bottom;labelBackgroundColor=default;verticalAlign=top;aspect=fixed;imageAspect=0;image=data:image/jpeg,/9j/4AAQSkZJRgABAQAAAQABAAD/2wCEAAoGBxEQEBYQERMREBEYERYRGBEREREWEREWFhgZGRYYFhYaHyskGh8oHxkWJDQjKCwuMTExGSE3PDcwOyswMS4BCwsLDw4PHRERHDAoIikuMDAyMjAwMDAwMDAwMDAwMDAwMDAwMDAwMDAwMDAwMDAwMDAwMDAwMDAwMDAwMDAwMP/AABEIAOEA4QMBIgACEQEDEQH/xAAcAAEAAgIDAQAAAAAAAAAAAAAABQcDBgECBAj/xABEEAACAgADBAUHCgMHBQEAAAAAAQIDBAURBhIhMQcTQWGBFiJRcZGSsRQXMjRCUlNUcqEjc9EzYoKTlMHSFUN0svBj/8QAGgEBAAIDAQAAAAAAAAAAAAAAAAQFAgMGAf/EADURAAICAAMEBggHAQEAAAAAAAABAgMEETEFIUFxEhNRkbHwIjIzUmGBwdEUFTRyoeHxQyP/2gAMAwEAAhEDEQA/ALmAAAAAAAAAAAAAAAAAAAAAAAAAAAAAAAAAAAAAAAAAAAAAAAAAAAAAAAAAAAAAAAAAAAAAAAAAAAAAAAAAAAAAAAAAAAAAAAAAAAAAAPDnGaV4WmV1nJcFFfSlJ8orvPayrts8++VXbsHrTBuMfRN/an/su71krB4Z4ixR4cfPxMZTUVvNi+cSn8G33of1OfnCq/Bt96BX6Z2TLv8AK8P2PvMoSi9TfvnBq/Bt96Bz84FX4NvtgaEmdtTz8sw/Y+8lQrrZvfzgVfg2+9AeX9X4NvvQNFRyefluH7H3khYap8H3lh5TtjViLY1KucHLVKUnHTVJvs9RshT+W4jqrq7eW5ZGb9Sab/bUt6L1RVY/DRokuho0RsTUq2uidgAQSMAAAAAAAAAAAAAAAAAAAAAAAADjUHhznMYYWmd1n0Yrl2yb5RXe2epNtJas8k1FZsgOkHP+pq+T1vSyyPnNc4V8n4vivaV0mZMwx077ZXWPWc3q/QvQl3JaIwpnXYPCrD1dHjx5/wBFLLF9ZPpLTgZEzsmY0zsmSciZVad0zumYkzsmYk+u0yJnZMxpnZMxaLCuw7otXZ3E9bhap831aT9ceD/dFUJlgdHeJ3sPOtvjCx6L0Rkk/jvFVtWGdSl2PxGK9KGfYzaQAUBXgAAAAAAAAAAAAAAAAAAAAAA4ADKs2+z/AOU3dTW/4VbaWj4TnylL1LkvH0m1dIGf/J6eprel1ia1XOEPtS9b5LxfYVeXuyMJn/7y+X1f2KfaeJ/4x+f2NY2iz2+i911yioqMXxinzRHeVeL+9H3ENsPrcv0x+BCpELFYm6N80pvV8SZhqa3VF9FZ5LgTflZivvR9yI8rMX9+PuRMuzWw+YZj52GolKvXTrZtQqWnPzpc/DU2b5jc13dd7Ca/d66ev/pp+5H/ABd/vvvZIVUFpFGq+V2L+/H3Ijyuxf34e5Ez7SbBZjl6csRRJVr/ALtbVlXjKP0f8WhrjQ/F3+++9mailoie8sMZ9+H+XEeWOL+/D/LiQ1FMrJKEIynOT0jGKcpSb7ElxbN2ynofze+Kk6q8Ony+UWKMvdipNeKTPPxV3vvvZkmyC8scZ9+P+XA92U9JOZYVydNlcd5JPWqD10105+tklmHQvm9UXKMKL9Oym1bz9Smo6mlY7A20WOq6udVkXpKFkXGS9aZjO+2aylJtcz1yk9Wbn882cfjVf5Ff9CX2L6VM0xWYYfD3W1uqy+MJpU1puL5rXTgVYT2wV/VZnhbEtd2+L09Jqby3mDaSbZ9XHDNOxG0l8uTjBf3UtfayPvxdln05uXc29PYRJYyC0WZVWbXqXqpv+DdcRmlMPpWR19C4v2I5y/MIXJuClup6bzWib7jS8vwcrrFXHt5v7q7Wb1hqI1wVcVpFLRGdNs7N7WSNuCxVuIbk0lFfy/6MwAJBYgAAAAAAAAAAAA8eaY6GHqldY9IxWr9L9CXe3oj1srLpCz/r7fk9b1qrlxa5TmuD8I8V7SThMM8RaocOPLzuI+KxCor6XHhzNezbMJ4m6d1n0pPXTsivsxXckeUA7KEVFKK0Ry7bbzepo22H1t/oj8DauhvYOOZXSxGIi3hKpLzeSut5qD/upaN+tLtZqu2H1t/oj8D6E6I8BGjJsKorRzr66T9MrG5a+xpeCONxn6if7n4nU4X2EOS8CS2h2gweVYdWXyjVWtK6664relouEK4L0L1Jdxoq6e8FvaPC4rc+9rVvaend3tP3NB6as5sxGb3QlJuunSiuOvCOiTm9PS5N8e5egw7BdG9+b1WXVXVVKuzq2rFNtvdUtVurvIxvLnxXSVljy+zGxsjbBLcdElpbKck92uVb9PHjxWib7D5wxd3X3SnCuNbssbjVVFqEd58Iwj6OOiRZnzBYz81hvdt/oeHZfYiWC2jw2CvlXduaYluClu+bCU4cJLslGIBZnRj0f05XRG2yMZ42cU7LXx6rX/t1+hLk2vpPu0SxbWdLWAwFroSsxVsW1NU7vV1yXOMpt8+5a6aNPQmekrN54LKsTiK242KtQhJc4yskoKS71va+B8sSb148QD6H2b6ZsuxdipsVuElJ7sZXbjqbfJOcX5viku8nNvdi8Pm1DhNRhfFN1YhLzq5dib7YPtj4rjoz5bTPpToUzueMymDsblOqyWGcnzkoKMoavt0jOK8AD50zHBTotnTZFwshOVc4vslF6M92x31/D/z4fE2vp+wUas3corR24eq2X6tZ1/CCNU2O+v4f+fD4mM/VfJmu72cuT8GXcATey2Xb766S82L0ivS+1+BU1wc5dFHI4emV01CP+Ets9lvUV6y/tJc/7q7IkscI5LaMVFZI6+quNcFCOiAAMjMAAAAAAAAAAAA17bnNZ4XCOVae/OXVKa5V6p6y9eieneVOXTtBlqxOGspfOUXo/RJcYv2pFLSi02mtGm00+aa5o6PYsodXJJb89/x7O7eUW1VJWRb0y/0AAuirNG2w+tv9EfgX90M5rHEZPQk1vVKWHmteMXB+br64uL8SgdsPrb/RH4Ev0Y7cTynENyUrMNbpG2uL85afRnDX7S1fDtT9TXF4z9RP9z8TqsL7CHJeBJdOmzlmHzGWL3W6MRpKM0vNjYopTg36eG8vSn3Mj9g+ke/KKrKaqabVZZ1jdjnqnuqOi3X3F/4PF4HNcNrB04vDzS1i0pJdqU4PjGS70miDfRFk29vfJnz13evv3fVpvcu4jG8zdFu2Fub4WzEW111yhiHSo172jShCWr3nz85mkbYZtHCbXYe6b3a+rqrk29Eo2RnDVv0JyT8CzLbsvyjD8XTgsPHVqK0ipPt0iuM5PxbPnfpN2lrzLMJ4mmMo17ka47+m9NQ185r7OuvIA+iNtsk+X5ffhE0pWV6Rb5KcWpQ17t6KPlXG4SymyVVsJV2Qk4ShJaSjJc00Xb0V9KlNlUMFj7FXdGKhC+x6QuiuEVOT+jPTtfB+nU3faHYzLsxasxOHhZLRaWxcoWNLkt+DTa9YB8r11uTUYpyk2kkk223ySXaz6d6KtnZ5fllVNq3bZuV9ke2M56aRfeoqKfejNs/0f5ZgJ9bRh4K1cVZZKdk48NPNc293wNd6SulOjBQlh8HON2MknHfg1KvD68HKT5SmuyPt9DArTpuzeOJzexQacaYQw2q5OUNZT9kpyXga7sd9fw/8+HxIuyxybbbbb1bb1bb5tslNkHpj8O//AN4fE8l6r5Gu72cuT8C5sdilVBzfPkl6Wevo1zl9dZRY9es/ix1++l5y8Ype6avmmM62fD6C4RX+/iYMJiZU2QthwnCSmvWnro+4vNn7IUMI4zXpyWfLsX35s5jDSdE1Pv5F5I5PJlmMjfVC6H0ZxUl3a9j9XI9ZSNNPJnVJ5rNAAA9AAAAAAAAAAAAOGVV0h5Z1GMc0tIWrrV+rlNe3R/4i1jWukDK/lGDlJLWdb61ac2ktJr2avwRO2df1N6z0e5+fgyHjqetpeWq3oqw4ODk685o0bbD62/0R+BCk1th9bl+iPwIU4vGfqJ/ufidVhfYQ5LwPRg8bbTLfpsspnppvVzlCXti9SW8uM03d35fjdP8Aybd73tdSBBGN56MZjLbpb9tlls+W/ZOU5Pxk9TzgAAk8t2jxuGSjRisTTFfZrvsjD3U9CMABLZhtTj8QnG7F4q2D4OE77HB/4ddP2IkAAEhs/wDWqf5iI8kNnvrVP8xGyn2kea8UYy9V8ixmjho7tHVo7fM52cDfOi7NtYzwsnxj/Fh+l8Jrwej/AMRvRSmS5hLDX13R182WrS+1F8JL2alzUWxnFTi9YuKkmuTT4pnL7Vo6u7prSXjxLXZ9vSr6D1XgZQAVhPAAAAAAAAAAAABhxM4xhKU9FBRblry3UuOplZqXSVmvVYdURfn2vR+lVx4y9r3V4s201O6yNa4+Wa7rFVBzfArfEOLnJwTUNZOKfNR1e6n4aHQI9WHpS4vn8DsrLI1R3/I5Jle7Yxaxb14eZD4EIbBt39dl+iHwI7KckxOLclhqLb3FJyVUJTcU+WunLkzjsRLpWyl2tnVYX2EOS8DwAnvITNfyGM/09n9B5CZr+Qxn+ns/oaTeQIJ7yEzX8hjP9PZ/Q64nY3Mq4SsswWKrhCLnKcqbFGMYrWUm2uCSQBBgAAAAAEhs/wDW6f5kSPJHZ361T/MRsp9pHmvFHj0LIZw0d2dWjtSpsrOjRZPRtmnW4Z0yfnVPRd8JauPs4rwRXGniWtsbkvyTDKMl/FnpOfc3yj4Lh69Sr2vOHUqMtc931+3zGChJW5rTLeTwAOaLcAAAAAAAAAAAA4bKd2uzb5VipzT1rT6uHo3I9vi9X4lh7c5jKjBzcNd+f8JSSfmb3OTfZw18WipUX2xqPWufJfXzzKbal2lS5v6GargeiDPJBmeEiyvg3vKU0Hbn65L9EPgTPRVtxTk9l07a7LVbCEUq3DVbrbeu8+88O1uV324qU66pzjuxW9FcOCIj/oGL/At91nK3QfWS3cWdRhrIKmCclouKLk+fzB/lcT7av+Q+fzB/lcT7av8AkU55O4v8vd7rOfJzGfl7vdZqyZv66v3l3ouL5/MH+VxPtq/5Hg2j6a8JisHfho4fERlbh7aVKTr0i7IOKb0fLiVatmsZ+Xu9xjyZxv5a73GeHnXV+8u9fcigSvkxjfy13uM4ls9i09HRan+k9inLTfyM4TjN5RefLf4EWCS8n8X+BZ7B5P4v8Cz2GfVT919zNnQl2MjSR2d+tU/zEP8AoOK/As9h7cjyfEQxNU50zjFTTbceCRsqqmrI5xeq4Pt5GLRv7OrOzRkwmFnbZGuC1lKSil3v09x17aW9kSys2Do9yXrrvlE15lTWmvKVnZ7OfiiykeLJsthhqYUw5RXF9spP6Un62e45HF4h4i1z4cOXneb6q1COQABGNgAAAAAAAAAAAB0sgpLRpNPg0+KZqme7BUXazo/gWc91LWqT/T9nw9htxxobKrrKpdKDyNdtMLVlNZlMZxkeIwktLa2o66KyPGuXql2ep8TxQkXhZVGScZJSi+DT0aa70zU882Apt1nh31M+e49XU/DnHw4dxdU7WjNdG5ZfFafP+synv2XJb6nn8Hr38f4NChIywkd8yym/Cy3bq3HsUucJep8vDmYYSJFiU10ovNFTKLi8pLJnqhIyRZ5oMzwkVlsDEzxZkizBFkzlGz1uJhKcWq46aRlJNqT7u7vK+cE2Z00SumoQ187yJxGI3eC+l8OZ4WyXzLZrFU6uUHOP369ZrxS4r2ERodDgaaqoZVNPtfad9s7B04Wro1vNvV9v1yAAJ2ZYHWZ0aMrMZkmQsRDfmdGjeOjvJNE8XNcXrCtPsj9qXjy8H6TWMhyuWKvjUtUvpTkvswX0n/su9otjD0xhFQit2MUopLkkloip2riejHqo6vXl2fPwIEo5MygAoTwAAAAAAAAAAAAAAAAAAHGhyADFdTGcXCcYzi+DjJJp+tM1POdg4S1nhpdXL8OerrfqfOP7m4nGhsrtnW84vI03UV2rKazKgx+XW4eW5bCVb7G/oy/TLkzHCRbuJw8LIuE4xnF84ySafga5iNhqHYpwlKENdZV89V6Iy5r9yWsXGa9NZMp79lTTzqea+Pnz2ELsvkDxMusnrGlPi+2x/dXd6X/8rAqrUUoxSSS0SS0SS7EcU1RhFQilGKWiS5JIykKUuk8y0wuFjRHJa8WcaHgzDJsPf/a1xk/vaaT95cSQB4pOLzTJabTzRpuY7BRfGixx/uWLVe8uK9jNczHZ3FUcZVycfv1+dH9uK8UWoNCdVtK+Grz5/ckQxVkdd5TLR1ki18wyHD3/ANpVBy+/FKM/eXEh6th6oXQsVkpQjLedc0m3pyW8uzXTsLCvatTXpJp+eJueKhOO9ZM9GxGTfJ6N+a0ts0k/TGP2Y+zi+9mxHCOSjsslZNzlqyC3m8wADA8AAAAAAAAAAAAAAAAAAAAAAAAAAAAAAAAAAAAAAAAAAAAAAAAAAAAAAAAAAAAAAAAAAAAAAAAAAAAAAAAAAAAAAAAAAAAAAAAAAAAAAAAAAAAAAAAAAAAAAAAAAAAAAAAAAAAAAAAAAAAAAAAP/9k=;" vertex="1" parent="1">
          <mxGeometry x="4" y="2419" width="79" height="79" as="geometry" />
        </mxCell>
        <mxCell id="aU2NGoO0RUycPqF2l8S9-6" value="DEBUGGING" style="shape=image;verticalLabelPosition=bottom;labelBackgroundColor=default;verticalAlign=top;aspect=fixed;imageAspect=0;image=data:image/jpeg,/9j/4AAQSkZJRgABAQAAAQABAAD/2wCEAAkGBxQSExQUEBMXFxMWEBcXFhkTFxYaFhcWGRcXGBoaGRYaHikhGhwoHBYWIzIkJiosLy8vGCA1OkEuOSkuLywBCgoKDg0OHBAQHDAmIScuLi4uLi8uLi4uLi4uLi4uLi4uLC4uLi4uLi4uLi4uLi4uLi4uLi4uLi4uLi4uLi4uLv/AABEIAMgAyAMBIgACEQEDEQH/xAAcAAEAAQUBAQAAAAAAAAAAAAAABwMEBQYIAgH/xABIEAABAwIACAgKCQIFBQAAAAABAAIDBBEFBgcSITFRYRMiMkFxgZGhFCMzQlJicrGywSRDc3SCkqKz0mPCNGSj0fBEU1ST0//EABoBAQADAQEBAAAAAAAAAAAAAAADBAUCAQb/xAAxEQACAQIDBgQFBAMAAAAAAAAAAQIDEQQhMRIyQVGBsRMiYXEFM5HR8BRCwfEkoeH/2gAMAwEAAhEDEQA/AJxREQBERAEREARFTlkDQXOIDQLkuIAA3koCoiw9HjBDM8sp3GUg2c6IXjb0yGzL7gSVmEPE09AiLy9wAuSABrJ1IenpFiqnGCmj0PnZfYDnHrDb2Vg7HqhH1/YyT+K9sRSr0o70kvdo2RFrAx9oP/It0sl/ir2nxqo3mzamO/rHN+KybL5CNelLdkn1X3M0ipxStcLtcHA87SCO0KovCUIiIAiIgCIiAIiIAiIgCIiAKnI8NBLiAALkk2AA5yVZYbwxFSROlqHhrB2uPM1o5yVA2OuPc1e4sBMdODxY2nlb5D5x3ah3rqMXIhq1o01nryN/xryrRQ3jomiaQaOEdfggd1tL+4byrDF3FmrwmW1GFZZOAPGZFfNzhzHNFgxu/We9WGSzEUTZtXVtvED4ljhokI89w9EHUOc7tcz6uhdNqOUdSOnGVXzT05FGjpWRMbHE1rGNFmtaAAB0BW2EsLxQDxjtPM0aXHq/3WBw7jTa7Kc7i/8AiPmtOqJC4kuJJOsk3J61n1MXFPZhn2OauKUcoZ9jO4Ux2ldcQtDBtPGd36B2LU8IVsspvLI5/tOJ7uZepFayryE3LVmVXrTnvP7fTQtJFayK6kVrIr9MzpNFBypOVVypuVuIiVaGvlhOdDK9h2scR221rb8DZSqiKwnDZmbTxZPzDQesLR18XUoqWpapVqlPcdu300J7xfxtpquwjfmyehJxX9XM7qWwrmMOINwbEG4I1grfcU8oz4i2KtJfHqEmuRntemO/p1KvOjbdNXD/ABBSyqZevD/nb2JfRUKSpZKxr4nBzHC7XNNwQq6gNMIiIAiIgCIiALH4awrHSwvmndmsYLnaTzNA5yToWQXP2U/G01s/BxO+jxOIZbU9+ov37Bu6SuoxuyKtVVONzDY34zzYQmMkhswXEcYPFY35uPOefosFcYgYtGvqWsN+CZx5iPRB0NB2uOjtPMtaXRGTLAHglGzOFpZbSSbRccVvU23WSppPZWRQow8Wd5dTaYo2saGtAa1rQABoDWgaBuAC0zGDDbp3cDT3Lb2OaDdx6NizuFGvqCYYzmsB8a/+1u07Vf4OwZHALRtsecnlHpKz6sZVfLHJcXz9F/P9l2alU8qyXF/b7moUGKUr7GQhg2HS7sGgdqzdNilTttn5zz6xsOxtlsKJDDU4cL+4jh6ceF/cx8OB4GcmFnW0E9p0q5ZSMGqNg6Gj/ZV0VhZaEySWhbvpI3cqNh6Wg/JW1RgWnfy4IzvzBftAusiiBq+pqtZiDRSao3MO1j3e51x3LWMJ5LnaTTzA+rILd4uO4KUUXanJcSvPB0JaxXTLsc74XwDUUxtUROaL6Ha2HoeNCxa6XljDgWuALSLEEAgjeCtExnycRS3fSWik15p5Dujnae7oU8a994zq3w2Szpu/px/PoRCV4cr3CVBJA9zJmFjm6w73jaN4Vk5TGfZp2ZsWJmN8lA+xu+Bx47NnrM2O9/YROuD66OeNskLg5jhdpH/NB3LmNy27J1jgaKXgpnfRpHca/wBW46A8btu7TzKCrTvmjSweJcfJLTsTwi8g31al6VY2AiIgCIiA0XKxjF4LS8HGbS1F2C2tsfnu7CG/i3KA1teUzDPhVdIQbxxngWbLMJzj1uzj0WWqKxBWRlYie3P2M7iNgnwqthhIuzPzn7MxnGcD02t1rpcjRo0KIMhOD7vqJyOS1sTfxHOd8LO1TCoqjuy5hY2hfmUo4w0AAaB/ztVVEXBZCIiAIiIAiIgCIiAIiIDCYy4vRVseZKLOA4jxymn5jaFBeMGBpKSV0Uw0jS0jkvbzOadi6PWvY5YusroCw2EjbujdsdsJ9E6j1HmUtOps66FLF4VVVtR3u/p9jnpyt5Fe1UDo3OY8Fr2uLXA6wQbEKzkVlmRAm7JFjCaimMMhvLT2AvrMR5B6rFvQBtW/rnbJhhbwfCEVzZkx4F34+T+sMXRKqTVmbuGntQz4BERcE4WKxnwj4NSzzc7InFvtEWb+ohZVR/lorcyhbGDplnY0+y27z3tavUruxxUlswbILJvpOteV6RWjFJ7yO0nB4Oa7nlmkf2Hgx+2t5WBxHp+DoKVv+XY784z/AO5Z5VXqbVNWil6BEReHYREQBERAEREAREQBERAEREBD+WHAfByMqmDiycR9tXCAaD1tH6VGMi6SxzwX4TRzRWu7gy5nts4ze0i3WubZFZpSvGxj4yns1brj+MpNmLHNe3lNcHDpBuPcuraWoEjGPbqexrh0OAI965NlXT2JsudQ0jjrNLFfpEbR8lHULWCepmkRFEXgojy7VGmlj2CV568wD3OUuKFcuD71UDdlMD2yPH9q7p7xXxTtSfTuRvZfLL1ZLKyZDeR1HgSPNp4G7IIx2MCvlb0QtGwf02+4K4VM3wiIgCIiAIiIAiIgCIiAIiIAiIgC5mxrouAqqiIamTPDfZvdvcQumVz/AJV4c3CM1vObG7/TaD7lLS1KWOXkT9TSJV03iUzNoKMf5SI9rGn5rmV7STYaybDpXVmDKbgoYo/QiYz8rQPklU8wfHoXSIiiLwUJ5bv8bF90b+7KpsUKZbB9Mi+6M/dkXdPeK2L+U+ncjuy+WXuy+WVox3odT0ZvGz2G+4KurXBhvDF9kz4QrpUj6EIiIAiIgCIiAIiIAiIgCIiAIiIAoDyuOvhGTdHGP0A/NT4ucsoNVwtfUuve0xZ/6wI/7VLS1KeOfkS9S2xEwZ4RX08drtEoe7Zmx8c36c23Wui8JVHBxvdsbYe0dDR2kKMciOBLCareNfio+gEOee3NHUVueMtdeejpm8qScSOHqRHP09Lmj8pXks5WFBbFK74/zkjZkRFGXAoWy1f4yL7q39yVTSoXy0D6ZF91b+5KpKW8VMb8l9O6I9sllUsvNlaMRvI6dwV5GL7FnwhXatMFeRi+xZ8IV2qJ9MEREAREQBERAEREAREQBERAEREBZYVrWwQySu1Rxued9he3Xq61zfQUUtZUNjZpklk18wubucdwFyehSvlhw1mQMpmHjykOeBrEbToHW4D8pV1kzxR8Ej4adv0iRugHXHHrzfaOgnqG1TRexG5QrR8asoLRa9TacH0kVFTtjBzYoYtJOwC7nHeTcnpWiYmVprsJzVLuSyN2YD5rTZjR+UknfdUcp2NQcTSQO0A+NcNWcNTRuB179HMsvkkoMymfKRplksPZZoH6i/sRR2YOT4nkqvi4iNKOkc37rRdHbr7G+oiKE0Aoayyj6XF92b8cqmVQ7ljH0uL7s345FJS3ynj/AJD6d0R7mr5mqtmr5ZXDBcsjpXBXkYvsWfCFdq1wX5GL7FnwhXSzz6oIiIAiIgCIiAIiIAiIgCIiAKzwlWsgjdLKbMY252nYAOck2AG0q8WKwvNBEBNVPDWsN2550B20N1uds125l6jyTsjWsXcWnzVDq+vbaRzrwxH6to5Jd6wFrDmOk6dVrj5jyIg6CldeXSHvbqZta087t/N06sBjblFfPnRUl2RHQXnQ946uQO/3LRQrEKd3eX0Mivi1COxS6vj+evLT0rQxOe5rWi7nODQOckmw7yuicD0AghjibqjjDek856zc9ainJXgXhagzuHEhFxveeT2C56gpkXNeWdiX4ZR2YOo+Onsvz/QREUBphRBlfH0qP7s345FL6iPK9/iovuw+ORS0d9FH4i/8d9O6NAzV8LVWXyyu2PnW8jo3BfkYvsmfCFdK1wZ5GL7JnwhXSzT7ALUMbsoFLQEscTJPbycdrjZnu1N7zuTKXjR4BSl0Z8fKSyLcbcZ9vVHeQucZZXPcXOJc5xJJcbkk6SSecruMb5sgrVtnJakm1OWqpJ8XTQtbseZHHtBb7lkMF5ahqqqXR6UL7/of/JQ+il2EVvHnzOkMG5ScHT28fwbtkzXMt+Lk962ajropReGRkg2xva4doK5JXqN5abtJBGog2PaufCRIsS+KOvkXK9JjVWxeTq5wNnCPI7CbLJQZRMJN1Vb/AMTY3fE0rnw2d/qY8jpZFzoMpWEz/wBV/pQ/wVGXHvCD9dXJ+HNb8ICKkzx4uC4M6PJtr1LA4Uxxoqe/CVDC4ebGc93RZt7ddlz1V4Tmm8tNJJ9o9zveVbtXao82QTxz/bElTDeVhxu2jit68ti7qYNA6yVH+EcJzVD8+okc921x1bgNQG4KwavbVNGCjoZ9avOpvMqNVxSQOke1kYLnvcGtA1knQFbtUuZMMVeCaKqZtpHDxbTra0+cd5Grd0r2c1FXOKNB1p7K6m24s4GbR07IW6SBd59Jx5R+Q3ALMIiot3Po4xUVZaBERD0KJsr0RFRC+3FdBmg72ucT3OCllYnGDAcdZEY5dGm7XDlMdtHzC7py2ZXK+KourScFr9jn9e42FxDWi5JAAHOToAW5VeTWra60bmPbzOzs09YI0dV1s2KOIYp3iWocHyt0sa2+aw7bnlHq0K260UrmFT+H1pS2WrLmbpSRZjGNPmsa3sACroion0pBeXqoJq4I/NbShw6XyPB7mN7FGal/Lzglx4CqaLtAMTzs0l7OrS/u2qIFYhoZ1ZedhERdEQREQBfWr4vrUDKrVVaqTVVauiGRUCqNVMKo1dIiZVavbUpoXSODGNLnONg1oJJOwAa1LOJOTkR5s1cAX62xaC1u951OO7V0ryU1HU9p0JVXaJY5O8Ry8tqattmCxjY7z9jnD0dg5+jXLSIqkpOTubdGjGlHZj/YREXJKEREAREQBERAEREBY4XwdHUxPhnbnRyNs4e4g8xBsQdoXPmOWT+poXOcGmWnvxZGC9h/UaOSd+pdIouoyaI6lNT1OP0XU2EsVqOfy1NE4nW7MDXfnbY961iuyRYPkvmcLFszJLj9Yce9SeKis8NLgyAEUxVWRNv1VYRukiB7w8e5Y2XIrUjkVMJ9oSN9wK620cOhPkRevrVI5yMV3/epvzy//JVYcjFX509OPZMh97Am3E8dGfIjhqqtUrUeRY/W1Y6I4r/qLvkthwbkooY7GThZT6780djLHvTxInP6Wo/QhCCJzyGsaXOOoNBJPQAt4xdyZ1U9nTjgI/6mmQjdHzfisplwZgeCnFqeFke3MaAT0u1nrWQXLqvgSwwMf3u5gMW8VKehb4ll3kWdI/S89fMNwss+iKFu+pdjFRVkEREPQiIgCIiAIiIAiIgCIiAIiIAiIgCIiAIiIAiIgCIiAIiIAiIgCIiAIiID/9k=;" vertex="1" parent="1">
          <mxGeometry x="289" y="2643" width="94" height="94" as="geometry" />
        </mxCell>
        <mxCell id="aU2NGoO0RUycPqF2l8S9-8" value="" style="shape=image;verticalLabelPosition=bottom;labelBackgroundColor=default;verticalAlign=top;aspect=fixed;imageAspect=0;image=data:image/png,iVBORw0KGgoAAAANSUhEUgAAAO8AAADTCAMAAABeFrRdAAAB4FBMVEX///9p1+QAAAD+/v720qL2//9p2OP///1s1en//v9p1+Z4z9dp1uP7+/to2eL9/v94ztrDwsJx3OddW10+cHZjsrbI/PrZ29g7NDPd3Nz106D20KNXkp5t1OR1ydO9vLynpKJEPz4PNTx5dXT72rDp6ekdExJlpa1PgIZ62unz8/MAISZZTj330Z7Q0NBRjpMAGB0AKy4OAAAAAAkAGiKKh4Q4YGmvrqmWbFbQ///62aoAFCFJR0kAEBk6ZmoADhEwKSgAICwiRkqZlpY9W2QxMTFwtL8ACACQgGnt06wjHRynfGfdm3EXAABHOjCijHbQt5cYl5ZwbG1BeX8YPj9fnqMAIx121thPhIBSgI0nU1qViYw+c3QrVVUdODkWLjVdUlo1KCxxaGmMlY9NeIZjlaRtxsh3wdBdXVcAABgfR1IhIh1zdW94s7Nk29mGyM89XW0aFB2osqmFen9aoZ8gMDwYABAfTkgjFxE8LylxZlO3o4XcwqFGPSppq7sAEwAdFQB8bVU2Mx7NlnrNoYh3UjzflGw+Jxu9iWq1j2wYZmEegojPwa0efXEadHhidXS62dbYwpuewbvO5eatc3FMIyJOX19mWURvjI9qNTs1QTwWZGkXk500JBoVmo9fQzSz+5n/AAAgAElEQVR4nO19i18b17H/7sjaXe1LYiUKAq0kBEJagSUeFjREBoyCbEgMNqASKwYaJwHipPFN097YhrjNdV83aZzXvXV/TZ38q7+Zs6u3sAGDaO+HMRg99nG+Z+bM45w5sxx3WuThXKLo9Xo5j+flLyYSuV7+OnXkcuio37U83OvFo0XPUU6q3qWGECd+4aU/3iNc6XB30w6EVfnmcLekAzWPx2Pz5TBnsWNa4EXE9FUqHneOOSnCBtbeuu4rgtt41PMv5dLEylsN6RANPQgM4k2tAEB32nWYyxyW8HbpDkZxrgGTq/plUHsxXtZfWtdkdsW/u9If7TgkZyr3r6dIkONWhhLhwjTEuZPF64dLr756CaIcGzYu4pCIegfv4nFpg3Dp/VdhUHweXhproohSHMwOwlApsLq6Or0G0BeNHwKvl8vByGWbZi6XaQSynAadhiwrlydPGm9A8fmUWBTh0biLM4ay7zyuOBR8vvVkDpt1MLHhKnpT/bBWDCuGqhu8ZfkKb/4CguJzTrPvj3iT64riM02fso4v8EdRDKX0FpeCsCBJRix6oMwfhwivIQvGGuGlcZqFcYA83cPlEdOg6Po6ffcCvB6ua/FKYl2QZCRVEHiBN97s9rxw6KE45W5Zksnrgmmasoon80hG6S2Rg6IhG9vQwZ3kAOYIryRTN3q8pBTHioY1l2dKU+SiW5Ys7UDQ42KDsaKs6xvgRXEPwrRPkniVNywiQRcsiIoVsbDPbTzRwWvIkiyY2FWEWiKyEK83D4FQcibn0my9Wa/L7bNddqsaL1q+W0vava3LvMXwej3eDlB4w8Hr4lZesyQpM88xvExfO7DrrkCjAKYVHvEaO5mNzdG1iUzBKoLbXfY6XC6mrLVmI6BxuddCoVAmEwqtC7y+nQll6M1WHtVnxN+dy6dIz1dR2tfRyuA1+7f+muVuOZC/JsmsiJbTw/kndNk3F3WAzGd0SXo1ihxknHHF48F4s+ryiJx/01J5QfVNQHc2Gs3398HoaJZza55yC/DcYDDVdCri/bAv14f0NmyrkpyAPptqhhDiKXebh12HNcHG0/qiLT+twcvkWUQeeCPQiaNnbta/6/f7I6iuZGxCnHOjxMbzfcCo+5MODd2eygVEzZOGHVMX9O3R2bTzYTwPQeZrkffBxaM5durVD9OiqLlrBmTlOkFUT4LcOVZpNNePTcBm0GW4D3+Jb7Iil15h18lFU25R7EJ7gPR2PuW1Ge7xaKI46bebeSciejQvftCga6t43UE/JFFrGKFkMpNMwmQafLIx4ee8XtH9FsQyiZ1weKeQKcH1bE3/IR7/tCUgd2P+FHkHTMa4FBNDDzmF78CVdx/t7IQL7/0H5LqwfxpFTfSKXYhXlzuhzFaN6y4lk8l3sdvQ+g9OvJkMAHog09iG7c7k+HzQk4e5YmEH2zMKEdFmt5uLfHw5kOjEQ96bhrfTji5tjZdLw9y2hRpSN1GBSNbWZHTTZ92DtOj2ch9Cpw8xoR7SZWP9TajB6xKDKBW6at0aTNnj1PYs6RXqBFHzQ9EyZUFHMsITlca1xlvx6bjuomEYCgRJdQw+MgzfePelgiWj+pYt38bbWUgYuo6WQPfdgi6mpEQxD0mfgYoElZ+hTEAHGcoD8UZe9fF0OdRfkmwi3l1Yiw11Y2s4lHM8SrYMVL+oPjf6azStR5x835B10zc+KZY1aVlfeN3I/CthapZqoLzKvJFpYWFErgkvx3WHJMkM23jvJ2TTKMGOJOk6whF4XwwSiAqvycuSMd1No1zjJiGhY8sVdAN0XlhPQhey92C8kAk9UlVZSGSQijOTk1GkNIdaJ4cHmeuJu1eu3F3dXr9Hjaji5fon0BMyEoON+pcCJi4K99BvUJVEEpU2stlYHUs18bcl3gz2vsPf+49Q6MJhQym+mdkxUFT4cOe69ejWKjIcjX4Y0rZ7lEH5NIqjAKNFnyysb+Rw7DTcq4q344P5668ZqmrdvT5LNGkfoHGeFCTQOIYhOzmJWmtrro8cozJ5xVzGNHljegUVhhivUCpOKl+DDPa1kRiHvm5Yu4cehTKUbfTVD+CvbPIOfwcTOoKXEnA91w1F5KEg8eEY9OXQDuqmaW3mSWb659CUW0nIp9N5vK0sbONg9DQ4eVV9hYzPbqCrQP6Gwx/nmBR0Sh/JBdTUSPHoeKTaKgrd3k6YPG+todXW4lBDXShLEVDwywK848Yzc3MogGYI0BJ4a9VmC7w4fkMIsYKXR6/Nh241hwKjIEvN9bVcitR6ArWKNfEhDp0UvcZWdpD9jMA2qoy7WVQhB+HFaC477eBl0V0FFOE1JXUDohpZW7emVQYF+SGDyH3eGppERyAOvwqjFg+Ht7dR6j0atzJtmKrFlLxG/rjKk/R56s3EYfDygnFrlvOg+7EY0mVmJ0U0NziWVEFO7iJG9JUkHC658nCQJfW9ee45/K3B2xCZ9iUNHY8KXYZskJR8LV6vNtiJXq81EvEQonvMh0azhn4oHroYkmVdQaXsdZHhWjUEmSTh6HhVwYjlRRey7k7AQCch4EdF6hYnhywHL5efQ6fUmMvlGXVPY4sfQarR+FX85wa8NeRCGUIdq8qmL7EG/iDyseoZoyQsIn8FaxQjN3Qs72GsIMuoO33U1BS6LKa+jYqSRSP5OcIbWDkWXgUl1Y22cWWC8M69xVEfRi5hi228/tuWpFvvluZsyggmjqNUo89+CLyaJua2dlBu0OOzMATvT3lr8Hpd3UXCS6MA8SY6kRRB1Um1euKwI5sII+71iKSsY5agChhg2jNUR8OLHSiSlmHmgCJY8t5q8ObetISPTMtAq2nIloWuML/dPF1QxYtdnn3N0IUmvPhVyg8ZVBMSGmerMNJX4yKhpvYnsWPliRWRTAKjDIZ2YRtvGLVsJ6S8HmYgt9DPNhneI/JXoNc4YrGf+icswTS2bPMRGTF4lGcUbq4vI+u6qRo1VKCOboHXegFer1uLDo6/GZZMFe3VvZlstdeww/EsVJjFD0Q3KmiibsJL8kxRO28KyF8WXnOTsZfFy9l4kUMVvEIFL49BdGCa0cTEBP43h3hb6ecX4kWRTk0uwfQ2DWM+AVUDii5yBNaRiRiae5lfpXEVvCKOX0EWsNX2hGV+zkIQxxm/DfxtxuvC8WuYkjJzJ1tLqZbxQhNeZo8qkDRkMCoKriNHkkqqKF35Dvkbh05VVo2JPs2e3K3BK86HUMRIP4vUEf5Vi5dYfF3nxrf2n+vHL8PLohMb71Yd3l20O9mSIUjra3XMEusVBXfQ+KXGVWJmTetC/wCdJbcYgZChytblSNVeoQrxYwtUM3y530Vy7qnBy62U6PLTftaDFGAKkg/17MvjjTXg9YqRy4rO65kxd4W4Lrc9A9mAV7L5iyOxRGim79AXwY7yIEWrkotQRIQ+Uv+GoZrrVzuqAxgjkA5srIpmZ3yWHZaazaAJJv0sauQESEIBotRvuU0FTVUCjWL9Qgk2qsuOf5+DVydlixaI8PIUzjh419H+IV6yDY90yVRGVhyEWiT3seap9zdcVX/DI3q8k69aqooX7t7dBVipHJWCDYB/5CMdHW+hX2rK2xCskxkut4G9rKrKbceTxABQILwo3rPMxSjCIF5yjeYw1mP9jTYCFXsQFNWUOsdq8WJcV8GLCpGNXxsvhpbIX6/NXxyONH7Rf15bx74NX7mOfv5kNgewOY8uSa0g0XzsbYpLbf560+hXoMXZTr6bTEzX4v3VeiFZGoKZzeK6qeuh8ZqLePDEOCTRVVd1QykkOgs7PgwAmf31alwH+pDYoUoxmUwoaBMxIEw1rle4iL8KrwsN/NWFMt7f6EIt3o8+Wkf3xmPj5XWd8NJwwVbIki+0Mbq1VcLbFWc1j1esuxHy17LHrxtNpOfjJI55fC+Zxu0KXpTnRzJ+sr6uYETH6/egVifgFTUxDYF19GolDHBpVgA7DcdvF6fh3frHC3RNyaJAXDBCEKn3VekGbPyibS9ANX7rDuF1qvpZJ3m28f6HPR3h4LX4jxhePIy0C81JWOht4MCUCa+rAe8uyrPB5phRg3oikMB24/VM8vqq4zeB0ZVOjiIG/Ylxf53SwxM1V3psNGFQZKrTQZIl7bxHTiS2z7MCmXVd1dFD0vX12xAVmyeUGV5dtwqg1eC1DNspdXEfP7Jki/EXh+OHKM+GFfs1U3noX0m8dYvh1cRJmLhnoR4w6XaGkVxE/tbejPg7VwyFMiNsfQFtcxamE+Hwzk7i1vsrZT5oqVnYCHVS2BPuzMSgv77FXo/X7eJS/TD07qNCmE5+FArEAHbjGpuvQ+/7UrKTXXQC3u4QWyykecUgJDOZ9wK1eKdp2oHhFQdvYxuTDt7+zRB+cfnXNn8hE8oUN/z2HBLX1QevUUuVcCERuIQtbRi/GtdvT4BG7DlxHG/O/F4uH6/YIy4V6e92VFEfRkiuBicN2eilWUj/oHNQ90o0neKYqadrpJz5yUF/RBNbTwwH7Wbkynhd3Ir9SZDiUj972U362cPlyy0m6rDf2CoQ/QRPR/8sODeLxhtnjmpWOp1pbXyfigfZHG9ldsb+Sx8H46lW635sJpIWEbUUO8a+aGVdgG5ac9GWeKvOjavMCa58lbpF2woClz2FXzmMK1+82ogW96qZvrcP15yVD60qWbVrGPRFq9XC8kqLq+yp1EyBsLVgZ6b2ALxsPrPuNuV1eE2rrOSwgVBZn9dcXO2SfOU8eyHjOfc6p3M6p3M6p3M6p3M6p3M6p3M6p3M6p3M6p3M6p3M6p3M6p3M6p3M6p9Ml1//F5Tq2AVGkHC+PvRmxafMA5+G8+M8+zlXOBTuBveBnQi7KiGCJac42GHcq3pXuiEwiRSIdHemueDzl7BGmA70ul6dpb86/EVHzKQsPGRhPT2ZXch+zxIJLsVhsdGtoZsZOM5jN3clOpuNsR49X005ip/9ZEMuPcaOUptJ5/yIC25oLZBKPdsKKahIZhqIo4XAhUcwESqMAY339kS6RNoX9e45qlmURj2T7AGITmcSOz7IsltovyTplZMls5ydl+pv4jRLuzJQuwXV/NHhwTse/OAXzfTAynelULIv2ttrpWrzKq4SaNnKxTH+elwWBvTCscCIwBLP5IGUE/zsQJfmKlBtNYN+GUgi5Kpu8ekjiBQExZ2LQN6mJoqZ565NZKXn/X2t0ezxMyXLx/CJMJ3wGbRLiTf4oJOiGEV4dh0/inNvtLiejsz9sm/xZwmskpzBI2g+lhGLwOEJJZI9ETNZVXSnGoD+OCN32lZHTjjV3nWS5gpcjBjcVfXsmGaYt6ThUaQ/+kRCrOMpVEzXaR+uJGORTYjlHjXM4XU7rajOw2qSumndeLTo4lPEZqH4EFdHSoDRlZ3C2BlgzeokIr6qy/VlW4tJih6OrPfHJ/t1czp/vSJFVPyAH8RQBi163lzkTtD/DS96iR/Ny6fnxEKXTSiZrNuofyvqmX/kAhpqIkA4wJdMyfeGw4rOYmcLBoOI4hk/QhnPaZA5Gp5OZTLL0KqwERarI4/E0JuafKl5yhNBrCga74ug+oWeBb1P9cHtdN1VdlZA9bCCqyCiJMpDNA7QWHiLosuVLJCdi4+RuXSmFwgqpdOwH3ioMzQa5jtn3k9vrhsGj9vYVpmElRfvivY0bL04TLqGbXFm0HcLdyTgNr/TiaMHSeclEfGRpVVNFR8LgaRhj61vjFSTZ8CVKMJbLRtPBeLwrku2GzcS6gBIiS6aqlOAOrKKml2lfL7JdNwqxj7tQeblPvDTUgXA1jUtl4VIgEUaPsFCcALIeeQgoNOx0RGooO6FAKTY6urZx+zfbhqHyNIqbhq7N4OIlyHZRyikzrSKrbTDaaUiqTl6KkYTXKFPeNAWUGarKIVkB6OBOoRTWQXApKXpsKGEYTGZlwVJ+84vf7VLKOypjyp4vBMYB+YURUCSK7Hr11jYKdJPSYh8Y4RhE3U7tGhYwekh23oJVCwWaRoT1HiQN3SbSBFTV4xYEXWKblBbdJksbxdE14E2qO4Aj8N7loTDtu0UU1iM0nWlWZsh2D1IdK3C3YPBNeKn6ShH6U5SD7JTI8rBCV6j5usbmFLLFqPOsBNwydDzYVgl0V2t6MeURT7r0V0uiXUl3oCDb6pdnW3sR7qZC8HXTIn5prFdcTvcgdJT+pKLztXhJA1MFgQjXQi69Li7Vt6mg40G71wwETBsz6V6qwAaCtfWhWL8T4bTg0qZdKFh4Y0RLmFFDKSN3fYJsol42MpDVyknX1VM0rms+Rhvra4RZMGlrfbp1VSw8J9VX8uEJiFdfLwKaOR+6bJLsDIQCBNsxNUAil6ZNcCbZVpVZHd732zkfqimTl62Jj9Oi1rCbiNVzc2krl8OyXDN2BRWFOY1907TDzcbrSg2uoqLDbkGXOgPJuyO/KBVYXEV49VI/1xa8nDaYtCSB3ESUTtKYVmnLJ5DRla2Nbtox0lRdgsqGieKdK4pgKyl7KOvbVGrkALVDXO+AThwi5F7K+jQzfe93qo7e0x9BUxWL08CrcdFxn6xSZSrTMkhvGqvjYRJPQbJW76dEV8sIhrb4i7slQ63ilZW1Fe45TgPtI57z6czBNE3fJsIdg02f3VeC7JvpaIMXjXI2m0GVbNLe/VuxrVLoXhEeoQ6hchgJtBLuFsPRw7Sc1536z5AhoIJVmUctFyHl1g72kdBPjUNCZ2VnBNpNzCghOHitjeyJFjprSV4qcKGgAULr79tiDZiBWwpP27dMKi3XXNGq2no31d5AhYtmFaWSty7laSfawTdza8hgKhCDA0eS0OYSBZiI8KYur/rbgJd2ZK/zpFvXJ9j9x+AuYpCQXcatHFerluvJRZuFuVzGIP4KyCCedsE+Fy+65EEIM+0moLuisP5918EryJnu08eLtLtqyHg3uVAumlJgxSZkU6E93gdH44RX7BhR0B/jCa+18Qn3fItCuuztInkc6EzjCCpg56KAl/EWF9uA1+WdLaLfoJOhvUr3R19PYoX1jEz3c+voecgfokokJosCBR+kxaZaNpXbULeJHjf3yYRFlg/DDck0NgCm14UKf2fbEfVrY52kPyQ1g1gxgNvykV+pC7yxFj1IOJmMiy4KkO+syhJPXr9QgJTX3VjLpmYqlmqhucWOS+jZ4A3Q0ktov17DiKQ8fgN3Th0vlRiAToGqWsidtjSHdKYueSFMu11bgdWcnXDoZIncZMxggaIqZXItm0ub84LRbJ62gqN6RO1IMYjtohiladpEzZS7ZIxG24CX0xYThBfVK9NX6GnwdhhQWNRaGhfiV4rq5bH9felxGsCEN9C0id0+nNxVon4qy+dKwbbKbB27S/GyT7DxSjyVaGkDf2k7tC1fSoD25RumgzeU47yt8CK7aEPtIrrV2Lw4EF6K8kr5xqJXNl6u39GD9o5l2Gaz8gyvHIaCbvtXkrHhP+G6my3Ii65DZAbjNGwxOsvvzSB7HbxGcoVr7VoFnfbnqHVxCKP+wWDDmjtAHNOVallkzRl/y3h5427AsGf/jE7ocp/61DvixRYQT2VUWbI1kpQkJ4w3kv0t8bq0D8rtz7ISEQwvb9fUaj6ayvWWaR6Hcpz4W5Zn1Qh94LPvF57Jeg/aKX2SRMNrREFlKaGNSEAY1YdQwet1t2h/tFreDB38LlbdTNZ5g9xBT6M9IgGuUtzDdZH8sxls5nbvQIGnCV5fLEdzBG2J97XFgEVhoG5NlCyqHMeGr5HxN1UO41g5j2r7J0lfreNIEHSJR/3MNt83HJ4qj94sQJdXnNxk9ogF+TT/99s3DXQtw1vdqXZlQ7hcQcgY6OHpPkiYGIA7E4+JWbGFt+TiHHHu75ilYnPROQMZhHip+F1zKIj63z78A45bQQXM/XKVVysRs6wagU2f5cuAv6lix+nB1agEgk8ijxIDhTJe1J1xT1MbEI9TLADjSCrScWeV5rFo0sJ3JUJ1O5uOt4u0ziLeGc2dgs4avPiyEzJJEpRDVVQ/CcIbUZGgibBhZDZZLSh7eUi2rkw2VirlauQ5yGUhwqU+7qTVMKppqSa7Xa1W+yYdeciTOOS3DEGozogIkjIC3dGUXTurLUR+ktsb7IPVe6+9q1Nj7Dka2QjsNuNlwmArW8SdomI+tNaC8aOgh1vUVSH/KueM4MWUNzVW5OkezqQVDgPr07fKJRXaBNfWE+Ikyt2jmglHEu+u5sVodPzny+rqHQyublk8zTHSZJ+VvO9pXiPQXHEb8HzQI2ZjPrm8uui4VUkWdLZ79R9vSDWfavHyxlwrD9HliturLrCC4SDVxKFwh0hQRrPNU25UVmzSn9uNpkQcNgXTrNxBpcVhoZOsWvuTHUhQL/lq8KJTjS4P1+TS0jwjeYjzUZeovf2mhZZbtVmmm49Qohu7qPyUBpHKE4cMwayfsuYVCiPbBLKWWCmwGry6KVkT3a4WpUdoSjMe51B5Z2MKGl/U6LphGLolGb9BwI3Vx1kPuNxUMztpyULdFD2qRyOWbz1jfcrkEXNJo2YNTMWgPzzeT+jqrapdX4U+n4QCYfUlAnOX4fLmRGLdCEGUq5Q+KR/OUbIdmq+khV6cUIcXvZvALquZ02byaqmxBF+DFx1qGlxZTtS8rkoiJAPgoVQbUtQJqjxW3Kr4W1ceWb9B14GjGsX2GQSb5Zt15SDxkSzZk9x1/E2MaVz78XLuLiqcWbcAhm8KkEVwLlb1kxGrpy1SHdsoJCxdMAJQS0UjPAf5FFW9pVwcyheglMvgHZgOq3XLTRWltYNaov05lh5vBCN3tQGvahTGfxlny5rlPCJaW8ChG9+FTpqCusXmvKq0gwwfRWezWg5djE/m4G5hXZDMZrz4ie/VVmb71EnMx6xmvLq5U4IoLW66nVHJHqmRykNpR0XNvHO5Biub7TNl2ZeYvgp9H0YnI5HJ/O4i/DYZtiivpzV/aaLgLLIN+wNyA15sjG7yRuLKbDRezQf0pNKfwGjC4nVJ+CgBDXhvf6RSDTurEJqeo3SAEqUD0ILRATk9KEKr/lYrqKdMXi4XogSrphYJuqokSiO5bCQdDAY78ivoLW10KvSVaYXfrcVL6SlzBYNnaQomVb5HM2XX23fmM5oJRah4nXO3W2FRjedHZde5Di7aD9m0fIXMxubQyFCsFAh1KgZ6SbJkFUrwAOpp6SGsKlQ/kSr1qwTTJI/q4Aw1VWW1hdvNX4rLC7zQKqmK8UVVWRaVxfIuyGNGN+M9eLi/8DnxdbwMd3hh4MZnowkqmegsGj4vNc3Bq0DwDPDGqbxra4lT2fy7wLgtm7LJJNQswN7AxZ6BvSqLH94YuHCxZ+EahCxZdxYND4N3KNJyZvN08abBdyB/WUIggSyDF3gzPLI8cPHihd7egf29a0jLNxYQ7YULPRcG9iBDzwuSXwC1jFcvNT2+oA14I6PWwcNMZolJFNXrlPWAeKXkZwsMbm9vT8/UVA/SRXyPH1xAnkNCFlp2Xqve1Ff9bdfPLpqIkg/Aa0syIZXZK/rxxfZ6L/Zc6MV/DuzeC0gXLyLu3oHlUam1sLTkb+jtdmdBY/e+VUK8h8z0VTGUuLpPzOy1OUqYUZQR6gX87e1duPqITPeh8MpmJ5wB3v6Acfi8dVXeubrQQyB7enqrhO96LhDHB4ZDh+evuW0/1qOdeF3cyqohHRYuxunhkX0asT22IBN38fciQ4/MnhpGm3RYvLICXe0fv36Mfg8JV6VnIc0tDzgj98LU1ML+/v7C1NSFiwzuhQsLvwvLL9LMZbyyvA4d7cfbl9EPy19UqbL5m98vDPQSXwf2l4d/Pzg29vvh5X38BKm39/MNjD0Oy19+fev5zwM8Dbhcd1E+SD83NxKjdl/ps/2BATS+w5CLBhf7U8FoH3kcvT1TC9cu37NTdg6DV1ANjJDaS4h3tigfVp55lnHim4b/Gn4G3bSZysWe48MFP4Sla3vLD9bCKuWwHBKvbNBSeVtDQrzXYuIIeMnHUq2dxPvvkGb1euMQ5TSvx8XB9GppOmFQuKC39E5b4bUzr/6F8VJGC2UO01Mp2EbfOC0t0OLgxyGLKruzzP0DEv4bCfV4pu9fHS+5mOyBMfbG5iB0cOzxO31Jiyesqh1VHA6vXJw9G7xH2EhFGxvYA3JclFCaZqlpXjd35zbt72CJ+oe9EvI3Mdb8BL/Tx8sfvo08DTyTyTNrKMNLD0LITlgsvfBwxtfuOZ0vwFnw96h4eXr+lv248SreUjlB/yh4d9o9w0HL2EXjSDshaVGfHp3GsrCCjNGI95OS/LzZm4PxtncDIcN7pFayLBOzwB7+Sc/5oHUj5NFK4JB+ZA1egT0Xp73yjP5k8dDq2cYrm6pkUZKY5uF2wc95XGh/+5KyesQNs63wtsobOWG8/oxwFP3MM69S3oFJTkzltn5F6y60JpY4Bn/tZ4rUtUdLV6krHQw2Lzq+LN47q7p5RM6gjyUV4c4d2FCsAnRPRrsh9NGLp6yaETfhLSdNVKjjZNeI6dFCgQPncw5oJU2HqEZiYqK4jjY3/O7lodUdSzoZvHn448+r9BBOOHUWXYbsxFHxsh1LMm8YtAkP/yo+2vRwMniz8Pjx6/hj0zXInjhemq87akNxCFO1DdTU6FXRlll0rE4G7wr84efwhz9W5Ll1rvHL4I3EjFbrKQeT4KSpULYrbVHRVVV40ex66wu1wJu7/sYbr7/xuCzQ1/0nW78Dx296Zl3ij8yakyCdt5/5ROUCvPaWUm7xz2/86U9vVOjP8157d+3J4Q2Ccuj5upPHi/aXsLLqS4QLfkKUj//yl9f/+78f46ufPtZOGK+YokTms+EvynOqvj0p+Onx60t25sD1pdf/8BRSJ4zXpX3cqcqHLhTTRDz/onObtkdX8e7AB0Tz8305/0p/Nh/NQ98ijMc+/eKLLz4dBXi2BPGTxsvlii0Mknr8HjgS3mFGS0vP7kAVq68AAArXSURBVA86+SAzP3z5z5uMvvxhBtiTO08W78qqYin1pFoWVWSw2EJ9A8mywfLjmKIuE/WQbJfpcMDZW9iJZKcD7VpKztFs6V8uwMKAQwtEf52FT7/88auNoZmZ8dFPv7r55Rrkoh1BJvQuVmPI9ZLQKa1/ZnN0a6hKW0Sx2ObmJnuY8kapVJpACgQCq0mkTCYUCiWQOgtI9GA7RfH5FJ+glvvDIVpqI6uMVpr1iV2noMJdOqATFtjy4kV71W1hCX64+VUM4B85yM0DrH15c4PxPNdPD4mjskoH7NI9AmD09R8sDdfQZ0tL+LO09ABp9tn9+yhpY2PwPBofHxkZ2ordvXu3NDEdCFCXFBMJ7I2dnXDYpyhUB4wSOmz2UqKAyiQE+TtwgYDaixM9D2Hj5pOr8PU3r3xzFX+/hpknCHh3+SEtrY/7o3bRtJfDS893/+vAc2ihQt/adOPGjT1Gy8vL165d+/zzhw+fsjH44Nmz+9ebemZ85MrW5hx1xGoyQ92AfaAwSbCMThjoRbDIXlqhuQFrN5/A1e9eeeVnjF757ur4k5sxuDGwsH9jefj3APP5eCUP9dgUgRtTPRfwH/uPlvp67OWvCvXW0lR5SXCKqEXPfPvt/r7TJ8usO54OLz0brOuHy0OxudcCtzJJ2F9YmJrqmRqg9IBh+OrmZfjmlZ8RYML8yjcw9M8vYXiKJH5g4cYy8rk/3iIx9Yh499g630FES50O7p4q2Z1AX7Glo4sX7UXSagfhn9oOWaClNeoF7IOHw0sP7pexf7D08Nre/sDU1A349GYJvnOY63AYPv1xDfZ7nSyCgRvDAHnXy8yJeMQOxNtesjsBhRTBPxxmeS+LewPX4MmPMFcH92ev5ODHJ7A8RQkFPdSHAzeWYD7IaccexV4X4e19cSNPlpwMgQHk68DCt3vX7kN2d+bmVxX2vuLIdBSe/BMeDgxQtghbYV5YWAaIHD/R1COmzwLvBUr5KFsiVAoLKKijNz+FCmsdwN9D6ebo4NNhljTCzukZ2P/ATrY+Hn+5LpSXM4BL1FMe8JQZAGs4VL/+nsH9/mukbxDv1+zTMWTxRRIIhnhgf4mmgY/JYDEO16bOgL+OASCOkfa7uH//d+RqfMPwfkdj+jtS0KjEYtf/Bz5EvJQANMASY/YH549tlDBA+nyKpZv0lhvSW/uypoWOYbL1c5Vs5dz46fOxVq7svEI/aw8+nSNrZOtlHMgk0N8T3rH/Jf5eoASvpyx7ZGCZJvKO5VqKojb+FNUBWpWei3bqWLn3e20MF6tUY4meB6fmjMOgv2hn+AwMzzh4XyG8DC4y+oebI2P37y9PkVMy8Bk8+HZgqucl8Lo0bX7w2o2FhQGm9Fmujc2oelQ9zu8FNuoc6LX87H1hNxzYO/t7C+RQ7EEJvn7FkefvbK31NXz5FXzeuzBwgem1fTTbw3s3HkIfK7R1DLwc1fxCevb02vLeDXR3mG3snUIV1lOGYP9UUNm3ZtTEyV77YMfcHAI/9h1aXlJHF7+FjTX4/pVavN+gi/kF/JUEz77vwkPmpKykjh0lurj8xr3QdMzJ7b3+7LPhh59fW17e27txA73lhYUaj5G5kFNV0e6pYWpPGS81rOKCHoK7Fxb2kGn7AwM34IuvIMcU9Dd/+56x9x/w5OYILFH+LTlzvaScu6++01UuOH48vCWD1w0l3JkoJqc35oaa4p+xZ8+WloZ3Hz7EjriGXUGdwQjd5Bv7NlXDitoOcnqI0QF48QcZDLC0PIbhUQn+Zmss5l39DbXVF/C/AMvkbjCPo2dhzF8uG3csvF4uumbXwqGolAUuSninUEgUQ5lkMjA9sbExt7m5NTQyM97UES1o7Pr1+/efPXv24AGGlMPDT58+ffj553Y32T1EfUMd0VMeIz0XLk7tkTs9/w8MGO7CPAZI3/+dlNY8wn0C1//n/8EyyQELo3CUH9/ZKOPVa/ZbCXZSAisoKpuG5RCb9wjb1IlEEX+iWCxmGCWTydXVQCAwjTRReu210hz10dbQpZadNPZsafjz5RsLvWUVgf7V3oPFVBBmvvrxi3H4xztZ+PvfNwF++OeT3wH8JwwvlNXF1P4zSL1UQOjlJjdr99PZEzRUUY9VDNVZcT5W7FeyS43SngzTyUphcxaGzqSCdyZ8ynNArIt8jKiTCtRH2D3J1emJu7+9RCpyb4DZLgZkYHjey3XA5a9+/HJjhPXKzKdf3nwyA9nlq1f3WZ41ho0Le8/gJZPi2QpD7X46u3YizUPw9kyMw3VnqspZTbBLKlYmJ6snY1+wP/YBusBKnuusECt2lMzLtriEO0OvwtP9AYoBMOi+uAArnIebhPG5r368+eWTH558eZOmr0iDXn1ApgNjyeWHz2Ax8pLVSSjD3WioGaqy0rgCFWY3HaKJKFPQy5hrJ2RVVWgg9rlgFzenWRy7mmdlEou6QNDVnQmAaziYaRBPLUNE1LggLAKsfYFYb371A6IdhI5fr+QqhT+gL5962XDfxXXU42XtNU2fWcXBttkwfjGmqg4CR7ydCcmWE7GV6V2+9hT2taBbj1Csh5dJty9DThPd3jg8ff0zmgRiTzj46fU7kBI5jxZPd0SQ0nG70PpL4fXaeBvYa/oURThSetERiQTANGJZ2kI9hgycj2sibQ766Y03Hr/+x59++umPrz9+442l8ZRLTMUrlucEFgtb460dlKeH2bib51IdWX9uJUIW1SVyH/y5ulj2pz+98ed5tuTTlTq5vH8mz3wDXp4NwSOmORyVZNmYyFaa4WJ4+5794fFjZOxjhvjx/RxtuhbFE61QGWnkL61nM41zynBlY7qfY49ksZ8y4/LWFK35+ePrP/8DKm2O7bo+ObQiW/Gux2sDPVLa3XHw8vrqrv1sAhs04u2HpZ9s+svjP/7lMWTpmTsn+tAKF/mTbRisrRAbtbXgGKY8vE4C7dDr6Due9I4de8fV2eAVqPRkXWtqik4xmjzxfEONxUdnhDdxvV4RueL9dfRJ/MRrdHi47PTZyDOrA1G/GtTMTO9Jy7OHZZydEd5CQ0IDS10hhF4EevyY/vl4/bda7WdvB16DEkZbFHIhnxGReli96ZOFi056X0g6Tc/xIKKnsoSbErBOm7ADHyTMs8FLOwiPv1BwXLza/cKZyLMs8JIC7ajtXYdXTMHZ4OWpcDrtX2ovXlccwmeHd+TkHYoXkCsI7Ck27cdrCoIVa1Wc9HQpjXjPwt8QTOGAYqynSR6u47JxRnhVwSqdcEL3C8lLlavPir+8hAFwe8nD5e8aLZ5p1A68siwFVtqMl6NyfWfDX1mVzYC/zWhddkGKs8ArqLJOO57bCpc2XPFn4k/Soo2ebF3s/vTgurjcWeGlfS0HFPc/RcBid/Es8fa1E61d3yxxrM1SJ4S3cQLrtOG6UmM7wiErDJwwXtqtVWw3Xk8cdnT96DvMTgIvr5vFtjw7pQYvhkc7hyzR9X8CrzcOvjPF227z24V4j7R/8N8cb3rcd9QnVZ8QXpPwdrc3PHJxHUOWIJhyA/GNKQrlbUZ87b6juuY3HvvCSyJ/5VB3W+Ha2RssUeNYxIAc81xKgjFDfW32r7hIzLI3LNdRS/YKrb973qfPuyQ9CPhWu/1JbnLNEo5tf5uk+ijnor8hYbzQ1pKbtPqrrK/7GklpSY3fPe+Mw1xyW7n9kvGg6xDUAJhznyEdrsUH0v8HLtKWps2u6kAAAAAASUVORK5CYII=;" vertex="1" parent="1">
          <mxGeometry x="566" y="71" width="105" height="92.7" as="geometry" />
        </mxCell>
        <mxCell id="aU2NGoO0RUycPqF2l8S9-12" value="HOT RELOADING" style="shape=image;verticalLabelPosition=bottom;labelBackgroundColor=default;verticalAlign=top;aspect=fixed;imageAspect=0;image=data:image/jpeg,/9j/4AAQSkZJRgABAQAAAQABAAD/2wCEAAoHCBQUFBUUFRQYGBcXGRkZGhoUFRoYHBocGCMjGyAXGhocIS4jHCErIhcZJDUlKC4vNDQyGSI4PTgwPCw0NDIBCwsLDw4PHRERHTEoIig6ODQxMzczMzIxMTEvMTExMTEvMToxMTExOjMzMTMzMS8xMTExMTMzOjE6Oi86MTExM//AABEIAIEBhgMBIgACEQEDEQH/xAAbAAEAAgMBAQAAAAAAAAAAAAAAAgMBBAUGB//EADkQAAICAgECBQIEBAUEAgMAAAECABEDEiEEMQUTIjJBUWEjQnGBBhSRoRUzUnPBU3Kx4UPwYmOC/8QAFwEBAQEBAAAAAAAAAAAAAAAAAAIBA//EACMRAQEAAgEDBQADAAAAAAAAAAABETEhEkFRAiJCYaEyUvD/2gAMAwEAAhEDEQA/APmufw1VDm3Gov1KAAQoamN/JOqkdyPmQ6bo0ZMhLWVIplB1A1Y+rYChagXXciT6zoG9TFyxUdyvbVQxViGIXhqHeyD2leHoNlck+pSKKkOtas3LKaHt7/2nez3acpfbnK7L4UAL2LHW9VFtYNWB8rzdi/3HMkvhmNmWnIBUMaBajS2oAti3qLdu3b7VZfB2UWxNa2QqBmu69oaq572P0k/8H2ZQG4ZA/YGuFsWSBdtdfC0fmpvTf6/qczH8vxEeHJxTsTQJAUWbVmAUE3fp7H6yt+nxjNoWGnmaUCbC3V7Ea197Mn/hfHvviyAt8FSw159R9B+ncftBuiUZtLpPM04KlxzXtu/3PH6ybLxwqWeeyZ8PXQtswIfXUoxYcqPVQoE7Ei6uvvMZ+hRRk9xZCpFAe1gTbDuvIF2BVj6zA8MtC21ANrTLR7qOVBJB9d0AbAP2mM/h4Rcll9kKVSLRDAnYkOaHp78/34WcaJZnbQl3UoBpQ741J/U3zKZf1Iry/vjU8n9Zz7Ol2oiIktIiICIiAmWYnuSaAHJvgdh+kxEBERAREQERECeLIyMGVirDsVJUj9CORIuxJJJJJNkk2ST8k/MxEBLEzuqsquwVvcqsQG/7gOD+8riAiIgTw5mRgyMysOxRipF/ccyBN8nkn6/+YiAliZ3CsgdgjUWUMQrV2JXse3zK4gIiICIiAiIgIiICIiAmUYg2CQR8g0f6zEQEREBERA6XWdLkJYtkUmuw2FhFDEa6gDUMODUrxdCxV/VqwIGpPDDVm/LYv0fPEt6zHmOxLCiASquaYKoa6PLUpBJPMqw9Ll1cAsnIBQkrsCGbt88KeCPmdrPdquMvt3Es3h7qNmdQNbu345rQjW7/AGr7yf8Ahr7KFcC0DgsxFAhQSSBXdq+tDmMmDOtMzsBpezZGHB41vvzxx2Mlj6LqNlCM1lQ4pmB1IUbUDYHIW/nX6CVieKZ43FJ8PcC914FkgsdRRYEkLzwp9tzDdAfN02pTk8sO3PN1ZA5/t/SS/lMy0d6Pc+sgpQJtq7cBv7/WRPRP5tbHnJoMjBgC197+v73Ix9Nl+4DpHKFw667VZZhsQQNuQO2w788GYzdIVGQtkFqVFeo77AkEHXken54/tdg6fOVZw7Mu4sh2otYG1nvRK8n/AIkc2DIoylsnIKq4LtbWCQOe/bsYs40S87aEv6of5fN/hr3+O/Eol/VD/L/21/54kfFd3Doun3yKl0CfUf8ASqjZm/ZQT+02Ol6jI7pixri5YKu/T4WNHgF2OOzQ5JP0JlRQ48aOHo5Q41A/+MECyb7MQwquynnmpLBgcKuRC27s2NFRSWYa05Ff94XtzbdqkqT63ErBsqGwMhQ0qoKq8bBUUBQwV+AO6/ec8mbmDBkAIYPjxM648jFDqpBum7C171YPea/UYijOjD1IWU/qpo/+IG51TnC740CFfT78ePI3qUE0zISO/wAVKOswhCgF+rHjc39XWz+0s8WBGVrNmk5qvyLMeIg2lm/wsXxXGo4ikZZvKGJlCk5Mex3xpkF7uvAdTXCCbGbq2XFjcLit97vpunr0EAV+H95rdaDrhs3+Fxx2/Efj7/8AuW+bpiwsUTID5oC5A1D1Lz6WBuO52VZMe2M5rF+Zo6hVUeoFlKhQABSsCK+B9ZqTf6lmOJGGoxl8loqkBcgrgkkk+gqRz/qH1vQgIk8KbMq37mC33qzV/wB50uo8DyK5UFGF0GVhR/zP6H8HJY+w73A5UTpHw0Btd++A5gVQEEhS2l7dvSRt9fyyjrehOMYyXRvMQPSE2oPwbEDUidPpPBsjHHtSI5xgOeR+JyKFi2r4sc1yO8z0ngpcYj5qDzHdAD7hpySR2+R88QOXE2v5B/NXCNS7FApDWp8wAq1/SmBm1m8FcDZGDIV3UsPLOQAFjopu6Ck/++IHLiIgIiICIiAiIgIiICIiAiIgIiICIiAiIgIiIHT6tszbkhVUiyEKkEUCSKJJsaliPir4lHS48ujlDxYDDgHlWNi+boN25omX9ZmzHcnGyivVslkbAAnYqNdgBdUKlWDJmKOyksLAY1sw9LeqyCVFbC/vO1x1d3KZ6eybN1B5J4Kkkk49aJ5sn07XXf1XMlM4KgG/SCNtK1IX4f49o54sfWMvU9Q3DKW9N0cYI1/1VX1+fiZXN1KsuoJOoAKrta6qdQa5A9Jr4J+83j7Tz9IDH1AruLHyUAACn3A+0a7e6h3+krbDkOfXYF/Mrcmra/dsfvJjLn4OjENwLx2GoEVRHq4J/wDokXOY5dNiX8y6B43v3Bew/pJ442qZ+mdMzA8Bht8DGw2tR6a+LKA68ci4yLl1yEslDVWG2P6GgqjjgA+3nk/eZbNnCsmhC7i10pQxriqoXS8ff7xmOdhkZlNekPsg4oHU9uKF8/f7xx9nP00Jf1V/h3/01qh8cyiX9Tf4d/8ATX+nMj4ul3El6n1A5FGUBAihiygBeBWhHx/5JPMh1GcvVgBVFKo7KtlqF8nlibNmbGPwnORt5WQArspbGyh/oENeom+AO8zg8IzOAfLYA5FxDZGFs23bjmvLa67VJa59S3PlZzsxs0BfHZQFH9gOfn5lj9FlCs/lvorFS4VtLBqtqrvX9RIYsDMrsOyAE/8A9EKFH1JJ7fY/SBe3XKxZnxIzNXO2RapQooKwHxfMoz5i5UmvSioK+iCgf1lzeG5wGJw5AEGzE43pR3tjXAoE39jMHw/KHCPjbGxVm/EVk9KAsW5F0ApgZTrF9IfEuQImi2zrxszX6GFn1mVZuo2VVoBULkAX+c3Vk81U2G8H6kFR5GQlkDgLjZjqa54H/wCQv6WJTn6PJjAZ8WRFbgF0ZQT9ASOYDpup0BUqHQkEo1gEqCAbUhgRsexHfmV5XUtYQKOPQCxH6WTtz+vzK4gX9V1b5MjZWI3Zt7UUAe/A+02D4vntm8w2wo0qjj1dgBS+9+RV7t9TNCIG6PFctg7LYTyx+Hj9h/LWnbk/1M18vUOyorGwgpbAsA81tVkcngniVRA3MXimZQgDmsZBQEKwUrYBAIPI3av1+wmB4jkHZq9RfhU4ZhRK8emxVgUDQmpECxszFg+x2GtEGiNAAtEdqCiv0m0/i2dgwOThgQQFQCjd1Q9N7tZFE7G7mjEBERAREQEREBERAREQEREBERAREQEREBERAREQOn1nVMS1YyqgV6lYFN1CmhdKCFAAN/aVYupy6u1bci2NkqdWF8H6FuSCJZ1XiatsEU0QQNjVWoQjUcEUoqzxK8PXMFc6iiQLACAHVlAKqADwzf0na2dW3GS9OlmXrcrDQ4wQV9ur9rvYUboV8cSS9bmBX0AkIFFBr1pWC2p+wb6iz8cSOXxXcalAFqvSaPe+4H1HY9/7yX+KMhXZBaoF7/lIVgaIIv0g3XzXwJuZ5rMcYwqHV5T3TYMAOVY7UpWruzw5PBuYfLmOTWvWMm2g5AcG+B/7kh4o3NgEVR9Vcaspqu17k8SGTqn829AGGTbUKL2v27AbEfFXJzPNVJfES/m8ioU01UNdAONSSDr7vnUd7P0qYzvlYZGbHx6Njq41Kg6td3dE8tff9JkeJEKVC0NtgdgW7qSNit90HPH71I5ut3GT0UHK+00AwBAJoUbtuKF19otmNklzppS/qf8A47/6a/055lEv6k3pxXoUc1z354+JHZ0u46/T+P8AVjVEQWAqisbE8KQBV82pPFci/iQbrc6phJ6ddN0KHTLTlC+iAh+QDkagKJoXdTOH+JCoxg4sZ0CiyeW0TywxsEX37g9/sCIN421o7Yuz5WB2ZQVy7bKPuC5ph2+km7bFPVjOyreMqrO+oQN7nblGsk+5OA3PHzKicuNWx+WKx5dsjVuuy+kIzC1Kg7fNHczYPibBEQ4z5TXqC5sjzBkJDV3tdbqbH+ONjyuGTUHNkfIm2xDOU3A7AkHEa/7ohWfEPG8pVly4gmQilLK66oVdSVDNZJ8xhZsfuJq+IeMnIcoVFRXLUBtYDuHaySbLFUv4paAFzHj/AF+PPlD49wuoWnCiiCTwFJoc/JPNznZsimtVC0qg0xNkDlue1nmhwIHQ6bxrIlFVx2MYxlirEsoqr9VWKqwB97mfFfF2z/kVb0ZyLt3QEXySABu1AV35uc3yzqGr0klQfglaJH7bL/WRgIiICIiAiIgIiICIiAiIgIiICIiAiIgIiICIiAiIgIiICIiAiIgIiIHW63xJTsq2wYVexrlQvIZbfXWwTRs3KMHXlVesdBiPaSq3qy0wIO3uurHtl/W9Xj9arTWKBCIAfSACWHYqQW9PBJ+JR0/WoqupT3EHUDZT6WXkuSV5YGxfad/Vb1bcZJ06W5vFQwoIV9OtjJ6gLugxX2/aZTxbVlJxcqgWgxX4Wn9vuOvf5UgfFll67ERQQqddQ2iE97oqTR4sbcfYfEyniOO1JTkIF5RXFgKN62BJpStXVUfqJvVc7/GdMxr9Q/xXsCvAHGr66+llJX0+k+oHt+X+lTdcwy76asMm/c79/YW/t2lg6/HwNAKHBVE9J1YE0T6uSpon4lbdaPN8wJVZN+fdV3qRevb7Sbbxy2SeFn+KUjLqTb7bM+zd1PqtaY+ng1xfb6wz+IlxkFOBkKmhkJ5UEeqx6gb7ce0Sf86mhXUEl9tmxrZFqewYBa1IrkG/i5jP1ykZFUFQ+hHpTuoIIq7UGx2JIr7xbcbbJzpzpf1Rvy/9tRz+8ol/VG/L/wBtR/5nPs6Xcdnpv4iRPLP8v6kC2y5ShZkTyw1hLB5b696+Llb/AMQElGKvSPkdVGalAybVqClB0L8P8V7ZZ0vi3TL5ZOA7ALsdEYMyppYUkcEk8Ar2B5NgxyeM4mOP0EJjfKQgx4yAr7FGBPdkLj0EUde8m7bFR8afRUK5NTZVjlOxbzBk8wPpy4optXyf0l48cC5HR8bJjfLkfIjNsQXKWGUoNihxsQCB7q4qzUfFVKBCGIBJGTycdhvM32C3XtsabVZ/eW4/FMBdwyXjy5sjktjSwHKFQasgKVfhT2Pbmog1f4k65M+UOjWNAvd2ANsaVsgDsOQeQKJIFgAzd6b+KSmRsgRiGKels1hQm34aej0p6xS81qO80v4my43y3iZWXQD0Iq0bPB09LHkcj4odwZu9N47gTIzHFujFKQ4cX4artaKfzcsvq4J15iabWl4n4ic6YlXGyhWYKNy62y418vGoUagaA6izeT+vJM7+fxjCRj0RlOIZTjGiBVfIuNBypttdHfY8k6yzoPE+mGJEK6vjRz5jYsbnYqRQs09sVIsLVcknkmPPeWa2o6k1dGrHJF9rog195GdTxHrsWTHqoKnzsjhfLUKqv2XYGzVX7a5ocCcuAiIgIiICIiAiIgIiICIiAiIgIiICIiAiIgIiICIiAiIgIiICIiB1usfCNwNSa40VTZ1ABDLQUhgxNd7rn4p6bqMQTIpU0SCFanJpWHDADU2ym6+Jd1mLCuy0A1cD8S71GpAJIX1bWH5AqpTgfBo6m+4I2B24Vh6SnF7FfdxU73PV2cZjp7rc2bp69Ao61syAjv8ASqurG1E/c95JOrwEqWXsgBsA2wCjYkg2KUrVcd/mxXmHTflIJ1/MMoUm+/Hqur+0mr9MxUt20Aaw49YCj8v5aDdubu+KlZvmMxMaqP8AMYDQ0C0ODptR1ay1+4ba9/p+spbqk87zACR5m9nUgrd1pXevvLAenPFVQ7ncgkq3ur4Da+0D+naD5cXnb1svmWQR6Cl/T3ftItvHMVJPF0sGbDqQQC+93rqCLXkACxwGFAi7+eKjn6jGRlVaAYoVvGvwCCoIUa9xRodj9eQ8jRrrbbijkC62vtsHitrvn6fExnbDWQIE5KFCRkvsdgpJ72R7qB/YRbcbn+hJM6rny/qWB0o3WNQa+DzxKJsdUf8AL/21/wCZz+K7uOj4f1mAeSMwLLjTIvtBCszlgSCGDCifymiRxxLB1nR+j8MCnJJ8ssNTvopsjYIWQmx6xQPt5lkfo3RAzKuTykXYDNSsiKD5gAom1IGgI5s/WBnwK+A48iIuPqMrcLm2GJiupYlTfpQrQ/1Cx3MlSvp+rwBAuTJuvnjIUGMqulFSQvCjuDqK7VL+m67pMYcAFgyhDWOjkGmMGmJvHbLlJ+Tut/atcnTBMgDYy7nuy5uayhuKAC49B9N7sfS5n+UyZMisQxyZshXIDkSlYoUA2pR7nBLDivpRjZpzfGsuF8l4VpdR8VZs866qBxqOB8fJJM7GPxXpTkOTIiOGGL0/y6jQKpDrxQJ205+nHbiaX8Q9HiTIVTVAMasFK5QzksQQVyFmxmuaYgELY9wnM8lP+qvs2vV/dV+V7fd8X7eO8TRXQ8efB+GuEJ6eSUUAUVSlJ/OwYOSfjavsOREQEREBERAREQEREBERAREQEREBERAREQEREBERAREQEREBERAREQEREDq9X0eJNx7WA7bg0dQRqO7hmLD7AWalXTJhK5Nj8ggnVGHpbstnb1aigfmWdV0KAOdmsC7LqedQR8AuGJKgj6XzK+n6bGUe2BKkEMpqhqx7OASLCigPnv8AXvZ7tRxl9u6sy9NgA9LBm19pyKoJvvt+nOpon6A8SSYunJUluNBYUqvrAUa0xAA9x2vk2PscZvDkUcNsdb1V1sm6vYiqo3VH9T3kl6DEzLTgAoCaYABqW07E3yWuq+PgmVi+IzMxuq/JwcU3IH5nA2JVjRPZeQou/mVv5PnX3TzOQBSaX3DA3+2oln8jiNAOSaH5lXa1ZtVsenlQOb939a3xYvOqxp5muoYghbq9q1r7g/07yLLxxNqlnm6T8jDoST69q1V0IAtfkt6gQW5F181UxnTCBkCgEgoVO4sAg7Ac0xBrgE9/tJDoU0ZixBDhddlYjlR8AA2GJuwOP3Ec/S41GQDllKEEZFPpIN2NRtRqwPqP3WXGoSzO6502OqH+X/tr/wAzXl/VKBpQ741P788zn8au7joY8HSsFQEq5xK27ZAELkAshsemvV8/bvU2MvTdEDQYsFLG/N94rLqo9Pp5x4ef/wBn3Eu6XwrpXAAy09YiQWC2Wx7sit6/zWbKca61zKsfQqD09LjdfPyIxYqN8YK6s67ccDJXbtJxyqMjpuloDZPL89SW83H5nllOR/rADUO1fNcSf+E4W6bNnRWOoGo8z2HTG7DmtwrO4Pz6RxNLq/DMa43fb1KzUA6EAh9Ri19xbT173VcV8y/wjw/DkxbPmGPnKGBfvQXXIV2HtLg1+aj9DGzTkP0uu43xnQA+l7D7UKTj1Ebc/TU/SQy4ta9Staq3oN1sL1P0YdiPidXrPD8GJGZncNQARXx5GRmGSi7Lww/DQ8VQyfUc7+HwvEcyHIEVdMBZFyIi2w9bkknhSKKjklh2geXiYXsJmAiIgIiICIiAiIgIiICIiAiIgIiICIiAiIgIiICIiAiIgIiICIiAiIgdTq/DiN2Z3YqOS69iFDUzbGr21FXZEhg6BWRzsLUj1KNlA1ZiGPGosAX9Zo5chY2xs8DsBQHYADgD9JXU6X1enOZET03GMurm8HKi9ifTtqEtruuBtyOfdf7SS+EhmUB6DIG4XejS2vey3q2r4Fd/jkUPpFTev0+P06fV5/HTHhYPZyTVkKlnlWYBRtbH0djXeQfo0GbTak83SgbcC6ujx+9/1nPqZmdU8HTfLpf4X6WbYim01OM7d1HqAJ1PqsD5r7zGfw8KMnLlkKVSCtWBOzDa17D9PpzxzaEVM6p4b03z+My/qlry/vjU97+somWcmrPYUP0HxJzxhuOXa6bw/p2xqzbqWxO7HZXAZXCelKXv3ot8/aZPgP8AlJTjbNnxtkGFmB8vXXVQTsDT/T818Lc4VRqPpMa28vR65jipiVfT0oGY81wobk/bb950Ot8F1/mnGy+TlZQhxmtL9J3Zvowoeong/NziVGo+kDqeF+EnNjzPtqMSM3s2BIVn1J2Gt6VdHkiVeGdEmUZb32THui40DljsqmxsDQDE8fc/FHQIgiB6Nf4ZtsS+aScuMv6MLMOAhFNsFKnzK2JAGvPcTXxeGY9ukP4jjKayegBbDspRHRjZpRx3o3fNDiaj6RQgdzoP4dbLhx5dyN3ChdAeLZSwO4sjQ+mge31Fz6/+HDix58nmWMRUD0Vttp3Ox1YeaPSQfaZwCo+kBR9IHdyeELvlI3CJmGPRULEKa5yMWBQUaBo83Ln/AIeRjlZMxCICwBxkn3ZEo6sSFBw+/n3rxPOaj6RqPpA9Fh8AUl0Z32GNHVtKDEkWMI3rLYNAkrZ+k89Maj6TMBERAREQEREBERAREQEREBERAREQEREBERAREQEREBERAREQERENIiIYREQ0iIhhERAREQEREBERAREQEREBERAREQEREBERAREQEREBERAREQEREBERAREQEREBERAREQP/2Q==;" vertex="1" parent="1">
          <mxGeometry x="442" y="2617" width="390" height="129" as="geometry" />
        </mxCell>
        <mxCell id="aU2NGoO0RUycPqF2l8S9-13" value="&lt;font style=&quot;font-size: 20px;&quot;&gt;mykenai&lt;/font&gt;" style="verticalLabelPosition=bottom;html=1;verticalAlign=top;align=center;strokeColor=none;fillColor=#00BEF2;shape=mxgraph.azure.github_code;pointerEvents=1;" vertex="1" parent="1">
          <mxGeometry x="79" y="214" width="120" height="108" as="geometry" />
        </mxCell>
        <mxCell id="aU2NGoO0RUycPqF2l8S9-22" style="edgeStyle=orthogonalEdgeStyle;rounded=0;orthogonalLoop=1;jettySize=auto;html=1;" edge="1" parent="1" source="aU2NGoO0RUycPqF2l8S9-16" target="aU2NGoO0RUycPqF2l8S9-4">
          <mxGeometry relative="1" as="geometry" />
        </mxCell>
        <mxCell id="aU2NGoO0RUycPqF2l8S9-16" value="$ k3d cluster create -c ./mykenai/lykourgos/k3d/config.yaml" style="text;whiteSpace=wrap;labelBackgroundColor=#000000;fontColor=#FF8000;fontSize=16;" vertex="1" parent="1">
          <mxGeometry x="89" y="383" width="426" height="33" as="geometry" />
        </mxCell>
        <mxCell id="aU2NGoO0RUycPqF2l8S9-20" style="edgeStyle=orthogonalEdgeStyle;rounded=0;orthogonalLoop=1;jettySize=auto;html=1;" edge="1" parent="1" source="aU2NGoO0RUycPqF2l8S9-18" target="aU2NGoO0RUycPqF2l8S9-3">
          <mxGeometry relative="1" as="geometry" />
        </mxCell>
        <mxCell id="aU2NGoO0RUycPqF2l8S9-18" value="&lt;span style=&quot;font-family: Helvetica; font-size: 12px; font-style: normal; font-variant-ligatures: normal; font-variant-caps: normal; font-weight: 400; letter-spacing: normal; orphans: 2; text-align: left; text-indent: 0px; text-transform: none; widows: 2; word-spacing: 0px; -webkit-text-stroke-width: 0px; text-decoration-thickness: initial; text-decoration-style: initial; text-decoration-color: initial; float: none; display: inline !important;&quot;&gt;&lt;span style=&quot;background-color: rgb(0, 0, 0); font-size: 16px;&quot;&gt;&lt;font style=&quot;font-size: 16px;&quot; color=&quot;#ff8000&quot;&gt;$ cd ./mykenai/themistokles/odysseia&lt;br&gt;$&amp;nbsp;helmfile -e local -l tier=base apply&lt;br&gt;$&amp;nbsp;helmfile -e local -l tier=infra apply&lt;br&gt;$&amp;nbsp;helmfile -e local -l tier=backend apply&lt;/font&gt;&lt;/span&gt;&lt;br&gt;&lt;/span&gt;" style="text;whiteSpace=wrap;html=1;" vertex="1" parent="1">
          <mxGeometry x="85" y="477" width="357" height="84" as="geometry" />
        </mxCell>
        <mxCell id="aU2NGoO0RUycPqF2l8S9-21" value="" style="shape=image;verticalLabelPosition=bottom;labelBackgroundColor=default;verticalAlign=top;aspect=fixed;imageAspect=0;image=data:image/png,iVBORw0KGgoAAAANSUhEUgAAAWMAAAGGCAYAAACuS+DQAAABXWlDQ1BJQ0MgUHJvZmlsZQAAKJF1kD1Iw1AUhU+0pVgzOIgUVMiii1VKzdbFWqEWO8So+LOlaUyFtr6+Rko3FycdHMSt4iDirJs4iIOOCoLgIo7uShG0xJtGSat44XK/dzj3cbhAh6gxlvcBKBQtriYnpaXlFSnwAgFBdMGPkKaXWVxR0mTBz2yv+gO5qe5Hnb+2Jw616/6b24PTnVTsaVf762+rYNYo6zQ/qWWdcQsQIsRKxWIObxL3cgpFvOew6fKJwxmXL5qeeTVBfEfco+e0LPEzcTjTopstXMhv6N8ZnPSiUVyYoxmiHkAaSUiYxhRUmouYbfLIPztycyeBdTBUwbEGEzlYtBknhSEPgziFInSMIUwcRYRadm79+4aetjUExPYJ+jxt5hg4q1D8mqcNd9P7DbiqMo179xbqvvLqeNRlkQP+d9t+HQQC50CD2/ZHzbYbR0DnI3BZ+gKfTGNcnOWOYAAAAGJlWElmTU0AKgAAAAgAAgESAAMAAAABAAEAAIdpAAQAAAABAAAAJgAAAAAAA5KGAAcAAAASAAAAUKACAAQAAAABAAABY6ADAAQAAAABAAABhgAAAABBU0NJSQAAAFNjcmVlbnNob3QNho2GAAACPWlUWHRYTUw6Y29tLmFkb2JlLnhtcAAAAAAAPHg6eG1wbWV0YSB4bWxuczp4PSJhZG9iZTpuczptZXRhLyIgeDp4bXB0az0iWE1QIENvcmUgNi4wLjAiPgogICA8cmRmOlJERiB4bWxuczpyZGY9Imh0dHA6Ly93d3cudzMub3JnLzE5OTkvMDIvMjItcmRmLXN5bnRheC1ucyMiPgogICAgICA8cmRmOkRlc2NyaXB0aW9uIHJkZjphYm91dD0iIgogICAgICAgICAgICB4bWxuczpleGlmPSJodHRwOi8vbnMuYWRvYmUuY29tL2V4aWYvMS4wLyIKICAgICAgICAgICAgeG1sbnM6dGlmZj0iaHR0cDovL25zLmFkb2JlLmNvbS90aWZmLzEuMC8iPgogICAgICAgICA8ZXhpZjpQaXhlbFlEaW1lbnNpb24+MzkwPC9leGlmOlBpeGVsWURpbWVuc2lvbj4KICAgICAgICAgPGV4aWY6VXNlckNvbW1lbnQ+U2NyZWVuc2hvdDwvZXhpZjpVc2VyQ29tbWVudD4KICAgICAgICAgPGV4aWY6UGl4ZWxYRGltZW5zaW9uPjM1NTwvZXhpZjpQaXhlbFhEaW1lbnNpb24+CiAgICAgICAgIDx0aWZmOk9yaWVudGF0aW9uPjE8L3RpZmY6T3JpZW50YXRpb24+CiAgICAgIDwvcmRmOkRlc2NyaXB0aW9uPgogICA8L3JkZjpSREY+CjwveDp4bXBtZXRhPgoBvP8tAABAAElEQVR4Aey9CXAV2Zrn9yEJgYTQgsQiQOz7XmzFDsVaUPVqr3rvVU2/rtfT7rHHYc/isGci7IhuO+ywPQ57PI5wjGd6lteve15tPIoqKJaiin0HsQvEDtrQhiSEhEBCkv//c5WX1FWek/deSVcSnI8QmTfP/mXml1+ePOd3+mVMntsqVqwGekgDaRlpMmXieElJGSTlFVVSUloq1Q+re6g2tthXUQO95RrsZ43xq3j5vbxtnvfLf9Pljbvy3X8jz5/WdXm+NkOrAbcG4tw/7L7VgNVARw1MWvNPJGHAoI4B9ojVQBdqoEuMcVzCAOGfFauBl1EDA9NGy6Q3/qk1yC/jye1FbeoSYzx0yhrhn1uSkpOkX79+7kN232qgz2rAGuQ+e+r6TMXDMsbDs4fL4kWvdWhU8pAcGfv65zJ8+hb1x30eo/zyvS0yMGlguzQfJLfI6PiWdsei+fEPU1slpV/XfnfsjjwjbdvMhFb5ZXLXtsuvDv3i+8nkTSslCR/SelKypk6QCWuXCJ7gYVVj4qTxMnnKpLDidlWkaAzy/IU1MmRoQ1dVwebzEmvA1xhnZGbIW+tWy+17BQE14GYZu+TvS/bsX8j45f9QHpVckMqb+9Uf93mMYXH9kxG//Y21NClOsuLaH3N0O69/q/yPGSL/31CRvxjcIkPj9EZpU0qcDPTOxsku4m135BlpJWajp2cD2uZ7UiLN2BA/Lj5BMqeOl4SBiYZY3R80ZNIYGTpjEroC+odVWHFRiSx5bZYMHY4LJoYSqUEeP0YkObk5hjUUGT5iuIzKGRnTMm1hndeA732/eukiOXb2vDyseBgorbVVqu+flOEz3pbmpifSWFcpzc+fqj+1j2MMa21pQny9QXVXPR4/3k/pJ3+sa5X//mGrxMOI/xdpXWxt3QX20v0v6/vJn5e3SqTvDimpKfouIZOnaQoz6ciULsqwW3sOy9l/+xVGLTR2LNkjz6dPn8nuA0dly7qVkjggtg+SSA1yxwZ175HsEUNleFZm9xZic+9yDSSYckxNS5Uh6alyPf9mu2jNTQ3ypOqO1BTmyqS1/608fxYY9sPuitK8HZKes0Bah5sNcRo833+WLvLlY5FLTf3kL9XQ0oABPvusRf7RoH7Kr2Yu7Nr4x+lxkg2naedjHgnPUI9Auv8KRn36wDgpamyVv65plcvPA2l1eU5DV8GHKSL/S82LMt5OalEl7miIk/HxrfLrwSJz4OXfeNoqh560yv5n/dRjxxTGbpV/kCryenKcXEe67+pb5GxjnMr3X2UF1EubU9bUKv+zq+w5qM8nSDd1QJzcamyRr9H+80jnyMjR2fLepnVyPPeCXLhwxTksqSOHy7jViyQ5K0OePa6TolOXpOLabRWehjTj174uA9MGS11pRTBN5uRxkj1vmuT9cS8epoHzN3bFAukXFyf3Dp+RjHEjJXvBLBmcPQxG85lU3bwvBcfP4aH83BiWhGto3JrFkjpqBOI2SdmlfCk8eVHiE/vL7F9uCZSPxjc/a5TLX+0K1mfo9IkyYu401Yan1Y/kwYVrUp53KxheWV4p5RiTPHRYlhQXlgSPx2KHBnkiRlncPvgvcf3Xh1VkckqTbFpfJyfPJsqDIvPojEGDU2QJugZzRgyTpufPBT6QPKx5JHv3HRR+j1m+ZKGMHZUtFVXVcjHvutzHmyvHy25Ys1xSB+EChkydOE5tj54+L4UFRWpf999H6Fa8hTzmTJ8iCXhbunA1X86du6Sipw9Jl9XLFisD/+jxYzl6+lzM9a2r98t0/MVd7dGqnNGjpLisskNIYjJv8Aopz/9Jyq7+IImDstQf93mMYf366bPOhCH+v7Li5GdcwzTEjsyA4fkv0R/899Pi5F9VtQT96n+aESdXnyEMXmPJ84CRYBqmXJLYIktD/gbB8NFX+t+z4uXGM5HflrbIdhix/2lYnAxv6/7Q5XkTxnpiYpxMRV0o9Np/ifrktjls/3VGP7kHp//TB63yb2tbpB53iVMjXRjr+VdD+skTuLyfoy7/Bun+6ZB41e/NtP8MbwP/HH9/+6hFRvZ/oQ8ESTqM//d4Y/hTpPsWbfjvkI51cqS+/olU1tTIw6oa5xDORZJMe3cdzkO9XN22T6puFcrEDbhJYQzZJztx4zJpqK6Va9/+JI8flAfT1RY9kOShmUKjTEkYOEAZw0eFD9TviRtWwGA2yYW/+VbuHjglTU/5RhR4BdeFxSXEy7T31inPPW/rHrm7/6SMWjRHkjPTpbmxSW7sOiQ3dx+Wyvw7MhBG2y1JQ9JQ9/uS9/VueYjt+DeWqDq545Ti+hw+tO1p5g7Q7NcUnJTbB/43Kb2yTVrgVJRc+EKe1hZrYpsPJ6Xn4MP1WnOkttCUtEb58N16uXwtwdcQM8lSGOLqmlr5my+2yfU79+X2/UL58adDKrfN61dLA3T/+6++lYPHTssbyxbJQJyrWsT/7od9cvPufbmcf0O2fr9H/RUX+bcvPTVVBg4YIF9s3SE/oJxFc2dJMibiJCQkyDub1kpxabn8zZfb5OzFq/L2+jVCR81K12pAbzFRTlLSAKl4WNWhxKePHsigrInwDP6RZE5cLY/Lrqo/7vMYw1pbnndIxwPTYCX/5bB+cu5pi/wMj9ItA2AoaYv4mj6szeLQeI5L7Cd/B8Nd09JPDj17UWXuwTZJRsgfu6XHwZgOxvEv8Or/COnovRbAO16A8k150rT8Acbyl4MDdZsPQ18Mb7WkOVDutsctshlhfx/92qkwbGdcXqouLAttmDyA9RBZjX7h2WhkdXMrHiSB1je0wlDjj/UMlWNo71Mcfw9d8GuT+wkca8mBgXbkETzGr/+4s53nMxhecVz/BLl36LTUFpfK/WO58rzhqWSMHyVpMMiJuMnuI+wRjG/R6ctOVtLU8Axe6zUZtXC2OkbPtBHGvvpe4GYuu3xd0seOgse9GH27iVJ68Tp6ogJ10YWlDMuUAamD5TkM75CJOTJo2BBlhB2D/+RhjdRXVquHQ7AibTslZ6+obovhc6ZKxoQc5aEPzm7fR1wJz3A4HiDhSAu609jFNnbJP5C4+P7wav+FSjYwdVQ4yTvEYV6leTs7HA89kJXZLJ+81yB37rfKret4rQpD4vA28riuDuptlVq82QyB18v9wdDlCDx8GvBmMmXyJMkZNVLqcW7Hjhujwpug5+aWFmlubhbu86+l7S3Hr9ireANu4ptLaRmMb5nkjB4pmejuoJHmW9czlHn71h15WF2NsOh05leHVznc2E1R86hWRo+EN+UWGKD0MQuVJ/zscank7/4fZejUN1SMu0f+tYxf8Z+rsLh4WBrEDZVfwcv8fQ0uzrR42V7fLMVtRo7x+Pp9Hh4ojde/HxEvJ9BdwQ91vJaaYaxChYZzF7oOvGQk8qCdcPe/wrmWBHjNA1EvXZ7M6+DTfvKn6EJhN8c77Mt2dY0cgXE8U0ZD2k/+BAMQ4HzDYxeh46wLc+pXjQpXtN0Y//FRq9xv6zJxwr22f4mPmnwH+FvU4fsn7K4Q0XwD7ZC8BTekEiiC+3xbiUsI6IteqZeUnLsKb3g6DPdoGQEj6Da47FpgN0HWtAmSPX+GMsoX/+475YHrwpwymuob5OmjOvXz/tFcaXB58k4c97ZffJzM/tUW1QVSjC6Wktw8mfsn7yoP2x1vMF7nn7d55+7jXvtxCQNl/Mp/rIKGTf+F8C9aqbp3TApO/23wYWTKB59d5NhJkcXz4+TK1WfyqAon0Ufyb96RN99YIVMmjFNO0f4jyADiDBelMW6AEaacgaGsqn7xZtTaim41GPPOSH94xNRrP1xsLTDuLS1t1xIybcLxuHAvws5U4hVLazxj5eiTGxX6tZoWDi/m90/+OwyHGitZk1dJ/6QM9Td0ymp17P7Jvw6oUcVtr9H/52GLbHsSJ/8a3RB/lclREa2SDsP56aBWGYB9mtxRMHA0oqxcQXM/eYp83hjQqn6zDzUcKcC1A0dYNqO/l08cppsK7/QCrKZfnvTpv4Ib+0/SMXIERvdcm/fL+mxBfsOxcwie9l8+xIMJQ8PohZvCquDZlqJ7ZTRGjFxBtwwfOvTyH3p4wu62oYscfdP95HcwxOw+yYFeBrEglwzJGiK//ewj4VAvR9gP3NrcImOWzcdQwzR4urOUN/wI/aq1xWUIa5bRr89Vfcbsk3VL05On8I5vyOQ3cV4HJQf7mTnaYuK6ZUKvu/zyDbm194jyvtl/bAqj10uvPCkjVerLH8qjghIU1wpj/MhdbId9et4D8CpcnndbHsG7Tx870tPwZaO/uBTXaSyl6u7hsA0x67X/SD+5dDFNDp3oJ29tbJCE/i8Mm67e82ZNk70Hj8n+w8dl67e7pKoy8Ib6GH22NbWPJQ0PoaLCYtVXXItjj+E4OVIGxkcOnKg4PNAoNKjhSDaGsNLIcjTG0MwhUlBQKFV4M6ZHPnXaFPUgYFj2sKFS/KA0nCxtnAg0YPSMH+Ok8wnJ4UMVZS8+9Dy4vEMV0VBdCO9ig6SPWqh+1xSdlVv7/w/0wZVKy/OxntWobLsOaczm4UPWP4J3+X/jvoTDLH83Ik4YXA6n7f982CyVLYGL6d9W4wNeZrz8Q4Sdh3dYg1d8t8frVRBf/f+yskX+Ofox/gzeZRN+/0s8CAraPHG/PPfBO/4TfDT85lEz6hSoB//PxMX6L9D33IQLlN76vrpmufE8Thl8XRjr9z9Uor8Xfd9/yO4n9fCOz2Po6V/Xtspjl8fPx4y7XfRd/xPeIv7XofF4sLTKRaR5gC4Tt/Tvn4j+woGShD9H2Fd8c/chmbB+mRouRsNciA9tTndD4ckLylDz9b+O3wSQN+M4UnI+T0a8Nl0ZXX6oU6KKbZWJ65cqr6sF3lHVzXvoy70n8f352PAO44fA/O/3y6SNy+HpvqVubBrkugcV+PDF94mA8AER9ORxKPBQuC5jVy5QHyKZpqnNE3TS8EPWGDwcjp044xzq9u3D2welMPdLzweDrvD6ejxFITfzU2Ekq2X16lr5+Sf1yqNLIncLimUzPOPaunq8xbXIE7T9VO4l1YXww76D+FC3TGZ/9rE8fdogpTDUR6GDhieB8czFxSUyY8pE+e2nH6mPf7noesrLu6YtywkYi26JpfPnyAB0S/AjHbs4KDt/OixvorzlC+cpg3zg+Ongw8FJa7ed14AvKGgonoKb166Qb/AxwDnZocUOn7FJHSq7ujcY9PmnH8pX23dp0wQjunb4/E6Ed/zMZaCcYF7O8Qhr9Ahz4ui2yUhH49zejAU+zunyHAJv/f+F0f2LspZ2BpNlsJ704lnP0DxNYUxLs0Wz5+8bMXZAnCemdy888kxMxI3zwrA56XDnqI95TQ0NMLbta8oPa3Hx8e0MopMuLSdbpr+3Xi7+p+87erDIk15rc1NjhzxZnjYMmXP0RCtfecPsVmB9mIYS2q1Cr++9tzZKQUmpnD17QcXhf90BCnIyr7z5sxSd+wY/2+vSCe+q7QB8jPvso1/It7t/lifos4/HeZqBUQ6jMbJi+84fg8X0h274AGt2PUiDgdhhPuwDbtGEu+P++W9+JV9/t0uVx24Orzw5ievZs2fBkTbu9Ha/8xpw7nNtThXlFRhnfEEWLZgrh9v6rUIjV946Enooqt+8xL0MMTOj8fLqN2aYn/DjmJd45ZkEI/sBPpatwdC6f1/T0RAzH9bzqSZPUxjTBnwN7oUvOiPs5OBpiBkIj7exDq8SHkKDGGoUOQuPnmgqhr4Vn7nc0RAzH+QZ9JZD8zWFIW6oQQ1N7vVbl2YKZt9Vop/UbYi90nfVsYob+6T4/B+RXfcaYtaXI1TYLzsMH+rKWyslFR/txo8ZJddu3GnXHMdzbXfQ9YMf3CKV5xhGp5OnIW8munj2eHQa8DXGzPb2rbtyF8NldNLc6H3Ds6+prwm7Ispgpf8SXRrOCIq+1oZo68uugtqiUmWIH5fGth820jpz7DvGcsREyvN3S8nF7TEpi4XQIH6/d7/iPI+EN0zO80+Hjncr5/nI6Vx0eURuvGOmlFegIN9uildAB7aJVgNaDQxIyZJnmGVqxWqguzUQ+DLV3aXY/K0G+qgGrCHuoyeuD1bbGuM+eNJsla0GrAZePg1YY/zynVPbIqsBq4E+qAFrjPvgSbNVthroSxogVc+ZgNLT9e5NdQnVhedoCo5b/c/+5BMM9j4kBQCUUD56b7McPpkr5QCGUDKGZMiv339Lfjx8Qm7dvK2OEVbyZxiI/t2P+xXViYPyP//1h7J9z8/yoPiBrF+7UqaMH6vmzqsE+O/7Hw+oMOe33VoNvCoa+PTjd2VQcjKHZ8uzxmcSmJyRrybG+N0rXvcfoT5/8ae/kucYFdOEceAlmPF4/NQ5eVxbK1OmTlJEtq0Y++/IUpDfyMA4hkkc3SFp6WmyChAj4jw5VvoGRmQdRVlz58yUBbNnqCLjUT7HXHHKdSFm9e3as18d92rfQkw60aU7iGG3f/qrD+Tf/Mf/FGRxvP+LTXL6wmVli3R18Rse2B160eXpaYydyEsWzlUAGmeImjMvnuETQM0uLivH8JuxQWPspJsIaAmRhmPGjFYTJJzj3B48eVau5uW7D9l9q4FXVgMcwlaO+4iLOHz09iZ5gH2HHW66V0z3H+lqHFW64LXZ8vE7G+Vvv/pObt26I4vnzVLQed6bnBAyE7P0/rAtMJu2O07A8iULhCCnnXDG+KCYMX2qAhhxbLgzPvwf/PZT+WLbTql1TedmXbzaZ0qXjKn7XrMJAiBeAXLUuy7d0e5o89R2UzRi5k4dZv+QBuUl0yaOk6OncsGuGKZOrBOn+tEjyWmb4z4ZBru0wg4LcnRjt1YDXhqgs0P2xENMYsmANxmO6O4/J20jZsqdOnMOnm+C4pZwFt6J3Ivy+mtzVJRZM8GtvnFbnmgmBTn5dGY7EG/YT7FYAKfE0wO9ePFKWLMBWaZf+yKtV2fqEmlZ0cbXGuP+4A2cPndZli6Y0wE0QjgNXy/4BC98UCZjxuYEy+drz310SYwdN1ZxLTi33i1TJ4yVFcsXq79pmOJpxWrgVdZAKgD/ZL/MBT+YcJ5i3DuO6O4V0/3npOWWBvgeWMYZbezhO3fuSSKmUBMqNWfaZDkP49idQr7FfHRHfPjuZhk/YZziWoRTXrjtCycvJ060dXHSx2KrNcZ0+R/Cq60GLGj8+HHBfhhWagK85YcAWWePzJYngJPwonGEXRnXb96VNUsXyjXM3HN3bTBOFV5HCkHh4t9DrNJgxWrgVdbAbPTlroFzsmjuTNm6c287lovuXjHdf6G6pNft3IP0UE+cvSgbVy+Xy9dvSXdPb+b3pd9/tU3ZgeWL5gn7cMnT8JNI2ufk5XSlOr9Dt9HWJTSf7vytNcZOoSfRv7MEJCcCqx3hKwS7MSbTCMNqjwZWjx/vHCHPogZYP68p1BUwwFwihn+MZ8Vq4FXWwDEsifT9rp/URzt6rW7R3St+95+TB3GY43NGSbWrP5Yf5Pmx7Obtu060bt2ye4LfiP6w9Xv1sXCs6y1aV3C47XOnd5gag1IC8H4+gDLw1tGEJcEciaYuTtpYbI0f8FiBGkDASysfyjS8ZlD4CpEIbOPPB44EvWW+BrFvmQbWkW+/3+vs2q3VgNWAQQME+hxHf+4aUOi/xMcsE2XNdP+RIeMIh3Bx1AJX/ODHO0ccD9JZ49A53tVblr8S6+adxWgGrkZDzGsKRlc9xXJRJjG1L3QtTnc+NLQ1GDUybepErN13UXLG5AjxsjVYkizaurjzj8W+rzFmJc7gQuGQNApHSty6XxA0xDx2626hTEb4PRhj52TzuJesxnCa1a8vCAb9fOyU3MArkxWrgVdPA1yNplU1+zrWrJs9fbLMnDFNLl++qo553SuEyuvuP8cY/+aXHwA21IShbZXyzY69QS5xLPVLdCeXbPvwrU0KWP8MiNdL+bcAxOfiAnox2ReTMWaOhPG/DrokcaAPYYT3YPVwPugI14+mLvpadk+IBQV1j15trlYDVgNtGuAwumhwntEqUMv3RoaxrkskbfDtM44kMxvXasBqwGogVAOxNMQsW8v3Rlis6xKqC9Nva4xN2rFhVgNWA1YDMdKANcYxUrQtxmrAasBqwKQBa4xN2rFhVgNWA1YDMdKANcYxUrQtxmrAasBqwKQBa4xN2rFhVgNWA1YDMdJArzPGI7Ey8QKMFeyLsnrVUiE21IrVQFdqgMSzVSuWBKc1d2XesciLMwHdM3S7o0xOs177xorgnzMFvDvK0uXJ+39g0kBdsO/xsCZ9+ObShRGGZmbKhLGjMYvmUnBAfBdm361ZTQYc6fzFPGnAv1gIGa1zZk2TsaOygTOtkBPAk9oVfmOh+a4pgwZkOWbdjcYK0A9rHsmRE2ekrrauQ+YEcQ0cmBi8H+iwzJ89UwanJMute4Vy+cq1budMdKhUGAcSEuJl6esLZfrkCWoKdn1Dg+z++bCa1RtG8oiiNGNF7bxrN5XRf2vdKjlw6JgoUHKYuQwH0iGhf7xC/4aZpEO0qZilnHsB8KUG8yzDDgnbDvQ6z5iYvW+2/RC88HQVt8dF1q9eJtXVtbJ990+YQtssm9avtmrpQxpYCOYLPbhvvtstxQ/KcT6Xe9Z+BrjDV68HFnDgpIWVmMF65vxl2bH3gOIvEIfZG2XRwtdk+LBM+duvt8u/+/1XchIOlpsV0ZV1bgEEqay0TMrAg45GskcMVRD8aNJ2VRqtZzwagJEFIEkNHTJEKqur5dylq65VP7aAjXpBli16TQZhzvmlazfkHC4Oii4dX1U2b1orV/D0IsMiJTVF3sTKHz/8eFCRqn754S8EUZRUwzvYgxVAKNnw+maAbDVyWBbmnj8G8/WRosTtxZOvpOiB6hZYjinW9A4rALK+mHc9yMj46D19PdmdoEuXhbIWAcw9HEhDeiz0PvLRRmfqqqqY5r+RI0fIpnUr2+nFr+2meg6D1zQOkP4yTG1dBDg4OSD7sLpKFdi3aYMHS97VwMoQXNHhzz77SFIRHgrq1lTVHu5hDYzGtfLTweNqIsKVvGtgDc9WEHYHesPqDUoZJFkZaVJSHJhGzEkLX/1xZ7DmF/NuyNrli4Kw9mBAD+8k9E+QuUDk7sEU5QaQHSl3b99TW/6XPiRdVoNdwVVAHgEqRsQlofd+9zvvlVuwH3OQd0J8glzA9c+3aD/R3e9p0O2GNcsldVCKymLqxHFqexQAp8KCIqN9IUdj7YrXJRVwosvXb8J+eeHt/Wr2IlxrjPkKdf7yNSkpeSDZ2SNkw6pl8rvCIsWkSE9NlVnTpoDgv19V9pN3Nss18CWodFO6U8D3vQOD/A2MJr26K3jaOydq2/d7FAFuOIzPchh5RxLBVc7BsW8Q/v5bG5RhPIsHw7RJE5Qx3gxvsAwgo99/9S3qkiwfbFkvX+IJydd1Uz1N6Vbj1fHO/SLZDc+DXQFpMHA0xPRiJqiT1V7pxWDGOt0D48eM8tSLqe2meibiop41ZYKMGJop+4+elHrwoQmSIXmL9RlM44sHxmA83J4/b1Zba4ydq6f3bhMHDJAM3EdPnjyRjetXCa8POj2ZOM9lYIQ7Mhns4asAANHz85JR8OhKAabvbTIYjgKvz5KS0g5VYx847cDVm3dkD5Z2Gz16lLy9fo1a8cPvfue9MhC6+2LrDhkCZ+m9zeskX0Hy23PTQwvV3e+1QAF/98M+WbJovjwFkP/CpTyVlN0eFF063u9vLH9dCkrK5OKl/TJq1EjYr/Z2QWUQwX/abop7WK/qefNzmQfo9XS8Jg0EhSkDjXfkBJ5kNKRcoYBLq2ThCUcxpasEH5lrUn3y7hapQ1p6m44QLELyUlNTs3MouC0HdpNGiKD6oqISeQQPmR8EBqcOhpHKQhfNM5kyeZLkQCH16K9xr07iVU+/dOev5OPJO1mWwSgnw4MuxEOIQl0nDRiIvwHt/voBqO/IMawT6KUXU9uZ1queTp7El/Kipa7pGVFXpHEdPnVWtuBG/uyTd2XhvNnSiHXUWpq9b1onL7vtHRpIwocePjwpNDBczOEZrn+uiecIjdksvBVeb1tj0jnubNnPOXfGVDkNkFdvE8J5eCW2tr5A7zp1zIStoEG9gP5VXs+3QZV7iAdRDowyRXe/O+mv5t9U9wC7JYrxlzMahtAgpvudThbtDu8x3lPKBuE3H36mdHwDzcxIV14523AHSFI6SJ0RrWe8CU+qhPg49E1dUR8IhuK1ol+/F0bHXWgTniK8cCh+6QbAqFMBbHhnxSmTxrihrdP8DE4wX+G9xKmnXzoqlgZ4PEh0i9GvlwTDv3X7btw8z4Wvk+GKU54TP9y2h6arq2+QxmeNTjbB7U14BPxjNwjb9PmnH0ldXccPQMEEdqfXaICLMtDBSYAR/hrYTEo2HIvcCwHPjL+HYUkzemtEUIYKDfGWdStk575DUv+4953zOtSJ1+QI1JOv+26hoabhaml5YQOa8GDidRyp9IeX7TzUdGn97nem40PD7VTxmCkdewDYhmZXG5imM+JpXeNhhMehD/YYvF8+fQbjyZ2EvmE/8UvHlUFm4LXrCyyCyKdKZ5ddeoy+JvYjEytYVFis+oprceyxC6btVWdTOp4A1osLHBLtuQMfxwYlJSuOs1de4R7r6raz3OFYa5CsVlKquNJvGTznx9CHld6vAcJsCtAFyFUtKCPQf0wHpaLixYIL09A9xa68UOGb3+a1K2THj4d67QINdB6uwINdOG9mcFgb682/KqA16ZBNRVcn7zc+WLKHDcVHzI5dGqFt5+/stjU2mY5LVRUUBFawZxjX/uMbBj1XCg286X5XkfBfWUWV5OAcxMH2UfjAMKXjWyqdswltnHfWhUvRdUY8PeNm9EmexqiG9zdvUE9mfhij0Xsh3q/CpnTsVti0Zpns+vmIeo3fgyEuH6OvuRxdF2xYUHCS3LnzpOmEgOwf9h1EB/wymf3Zx+i3bVD9Z0cxRCjQF+2d1pSOrynp6P5YofqQAkNUbmDtMC7b4i/e5fm33TudU56XDniRzZs1XX24ZDwu/LoP/FYrfUcDB4+dlrc3rlFdYvw2sPvAsSBYnt0WkzCk7cSpc+0axFfnLRi6RR/yw7c3Bj8a7UQ3VqgH2i5hD/w4gQWLl2P5tT/99YfqQfO4vl5+RBtpqHf+dFjexH27fOE8ZZAPHD+t7EDKoEG+NR2LbomleGMdgK4OfvjjPesIuxdyL+dhpe03UeZzOXjirOo6NdsJwdqDJcJRK7/F2yXfTHMvXZM8vAWb0h1DP//6lUtl9ZJF6rtVPfr/IxpP51S6bWvkGbOjneL+utuWzriJNp0xU59A9doAz4IPhEjElI7DiHjheBnDSMrozrj8as3lyNmPbKVvaoAP62ch19kkjM0dmzNKft5/pG82ylVrepsJCf2V1+o6rHY5SeIZvNlwVx4hOP7r73bJE6xcz64F3f3OMc68b0PDTfc7K8R7nvdS6GorunSBtiUoOxHatkh/e3rGTiaRGuHOpnPSR7N1Px0jSW9Kx4753i7PXWt89fa62vp5a8AZieMOHY/hjHzNfxmEhq2x2fteinZRVD/bpOtHNt3v1LXuntelC7St4/ecaM6b0TOOJkObxmrAasBqoLs0MHXaZCx0XODpZXdXmbHK1xrjWGnalmM1YDVgNWDQQOc+/xkytkFWA1YDVgNWA+FrwBrj8HVlY1oNWA1YDXSbBqwx7jbV2oytBqwGrAbC10CvM8Y9xTNevapzLNLwVR5dTA5if33xfHkHfI7FLnaHLje2x7KVddrpW8c5VNTyjM3njEPPLM/YrKOIQ3uKZ9xZFmnEDY0wAcFKBYCuHAGzeKBrNiRn/nhxWGPNVo6wOTY6NEADYnnGXXMpvAw8Y+M4465RU2S5kGfMPysvNMCB8Zz2+f2ufR3m4ZPDSnQf8YNW+pYG3DzjqVMmKZ7x9h17OzSCM8MuACBPcXjGB4+dEc74Wrb4NSHP+OzZCx3S9fQBN8+YM2LHTxyHCRUBGlpX183hGUe70kZvuI+0xng0Zv/0BZ5xtPU0sUh17FNeQDq+MGl1JtFxWDmt2cR5XoelZIjPjMO894/BcqWQtUoGh4nDynhcBWQCJg9Ewn1lOiux0YDlGVuesftK0xpjvkL1BZ5xtPU0sUhNDFMdX5jAkwl48gMx4tavOKxjE4fVxDo+dOSkpKangtO8QbaS+QzhKxmRHSYOK+NxFlKk3Fems9L9GrA8Y8szDr3KtB/wTFxiZqLj75rSmZi+0fCMWQ9Tebp6mlikJoYp86N48YVhi31ZxzoOq0kvnPbZ1Bh4teOUTP7xlYzz7rnvxWEN1FJEV54Tbrc9pwHLM7Y849CrT+sZ+3GJ3Rm5+bt+6cJl+rrzN+37ledO69ST3rSORWpimDp5efGFaSAjYR2Hclij1YsXh9Wpp3sbKK97+uvc5dj98DRgecaWZxx6pXh6xn5c4tBMnN9+6bqa6etXnlOv0K2JRWpimIbmE+lvHYe1M3rx4rA69eJ6fOyTfsF9LXKC7LaHNWB5xpZnHHoJenrGJi5xIANv/q4pnT/Tt61qeP12527CV5rKM9WTeepYpCbWcYCRzFUB3DUMVan+txeHNTy96MvTcVjJVR2C9ft+86sP1BI3R0K4r/pa2pBYacDyjC3P2H2tGUFB0XKJo03nrlgk+9GW58ciVd0ZUTCSveoeLofVK204x3QcVvKOW9X6XpFxnsMp08bpGg1YnrHlGfNK8vSMnUvMjxnqxAvdRpsuNJ9wf0dbnh+LlB/IulqiratfPXQcVss79tNcz4dbnnHk58DvPuqLPOP4pMwRfxW5KmyKSDVQj9UMKrG8VFcsxBpp2TZ+39PAHYxb56KeVtpr4GW+j4zdFO3VYH9ZDVgNWA1YDXSXBjxHU3RXYTZfqwGrAasBqwFvDVhj7K0Xe9RqwGrAaiCmGrDGOKbqtoVZDVgNWA14a0BrjGPNw50/f44Q3hMqHF7WWU5pTzGS3W3Rtc8dx+5bDXhpwPKMvbTS/lhX2In2OUb+q7NMdO3QtljzcMeNHinllQ+lKkQHneWUMjsdI1nHAg6pQpf81LWPmXOM8GtzZ8r4nFFS/rBa4RIfVjz0LTcNkzpIZhs7KluKyyrkBFjHzjApU5hvxjZCTDRAA2J5xl2j6s7aia6wBZ1loms9465RUedzcTilZWXlUWdGPvI3237oMHOODNPhWZlR59tVCWmIBwwYoKhsd+4XColy4QiB89XVtbJ990/Sgskpm9avDiYzhQUj2Z0e1YCbZ1z8oFzxjL0qRJ7x1eu3VZDDMz5z/rLs2HtAMtIGK56xV7qePubmGf+7338lJ89d6naecbR2ojfYAq1nzBNJtsGmdStlEFaWuHTthpzDBUCJlvc7Gp6fjpGsMm77LzklWTauWSGnzl2WByUP3EEd9k11+eWHvwB4PZCkurZO9vx4QP1Iy0gzsoDTh6TL6mUdWatMnDUsSxa9NluGA/b+sOaR3LpXKPnQTSRTpEPblzo4RUpKKxSF7f69Atm4ern0798fF26T6rpZu+J1TG1OlzsFRZIEL/rnw8clIaG/pA0eLHlX81XZx0+dkz/77CMhkU6AkNOF1T6qDSjE/t/jGrA84473WDbe8mZMnSQjcZ/V1D6Wh9WPZOqEsbL30DEpKXogOi6438nU2Qk/W6BLx/JMTHS/+niFG43x+DGjZOee/cr4fvLOZrl2/ZaQzxAN75eF87VMx0h2KpeSOlje27xOPUX9DDHTmOqyjfxfGOPhI4bJcte6cbU1tVoWMPvn3tnkzVqlIVu9dJHcuV8ku+GVsCsgDcaPhtiPZ2xqX+7FPHln4xoZjIdQfHy8nMi9oAwx0zjc5R04D6NGjYShXgb4T7zUY0IAyxyM8mvxUBicmqL4xdyWlpRpw6wxds5Ez24tz9j7HkuEE5KD+/Ub3LvvY71HOjtnL12VaZMmKGNs4oKbzqjOTphsAfPTpWN3oHNvXrwUuDfpBHVGjN0Ux07mKuNLylllVbVk4ZU+Wt4vK+nHHs7MyJCP3t4ID7BYbt2849suv7roGMk0njoWcCbaOBBdBhcuXBFOMb596w6eztWSM3qUqs/5K/kyZ/pkWQajnJycJIWFRep4ODxjXfuy4GWXV9XIM0y/noiVObjGXT+49CbuMmfyHT51VrasXyWfffKuLJw3Wxobn6G7olXN8tOF+SrVRoiJBizPWH+P8btJfV291OKvqKhEHsFDJr/DkUg53SY7YbIFpnSme9OpZ6Rbo2fszsxhAUfL+2VefuzhJRhRcRxreS2aO0vy8m/II7yimCScupjSe7GAaQTJOm5paQ4mbcKKGURRUu7cvqsM8PjxY2Ux6stug63bd8Mrfe7LM/ZqH/sAly+cK7/7YhsMaYtcupQnH7y7We5jTbvnzwmSbwFA/kVdgpXCzs0bt9Uf60ZdfP7pR1JXF5hCawpz52H3e0YDlmesv8ciOSOhXHCvtOHYCU9b0ObpNsApa2h4qrI+AyetqrpGveWb7k2vevgdM3rGXomj5f2Gwx4+cPyMXL58VY6czpUt61Zh1eMXz4pGsB3oOao+UVSMBijaujjt8mIBVz2sUt0OU6dNUQaOX1mzhw2V4gel6ve06VMkeVCy3ECXzQ58OBuUlOw5JM8pw731al+grzlOUlJSVFT+HoCuEi7vZOIuM/Lw7OGSOCARF0aiLF2yUMrwBvMYXoRfmIpg/+tRDVieseUZh16AL6xdaEg7qvCLwGh5v/7sYZEnWO2WQq9uFAzNKowq2H/wmDrGURW5l/PQjfEmXsOfy8ETZ1W3xw/7DuJj3DKZ/dnHGNbVIKUwSEdPnFHdKyoh/4OB8yIC61jAO386LG8iz+UL5ykDfOD4aWUY2Z+cjj7tFYvmy9NngSfljTv3pLw0vJEeuvYdRH35oZSGOBFl3LhbIIX4WEcJ5S477eDDaN6s6WpYG+OVVlTKvgNHuaseVLowFcH+1ys0YHnGHe+xlEGDfM+NFxfcSRStndDZApN9Cb03uVo3OeLRSqdAQfwgxyFVNLThCg0axQ+Bp8svISFeGa3QMqOpi1OGjgXMZb+fwSPnAyhUmKbxWaOqS2hYtL/p5TLPUHFzl//i81/LH7btlLo2D5hvD+ikCH7wc6c1hbnj2f2e1YDlGXvfY15nJVwueLR2QmcLdPbFfW961TeSYwbP2D+baHi/0RphpzbRckqd9F5bHQv4aVs/USRpvOKGe8zLEDOtibts4hWbwsKtk43X/RpwJuq4SxqPD7lX8m+6D/XZ/cD1+8yz/qZ7zDNB20E/OxKtndDZAp2tM92bpvp7hVmesZdWevGxJ+g3ryivVG8kvbiatmqd1IDlGXsr0PKMvfVij1oNWA1YDVgNdJEGIh5N0UXl2mysBqwGrAasBlwasMbYpQy7azVgNWA10FMasMa4pzRvy7UasBqwGnBp4KUxxuEwizvLG3XpzbjLiSmvL54v72Bu/WIXE8OYKMzAWLUhzOrYaDHQAIeDrlqxRI15j0FxXV4Ex8S7pzN3eQHIkEPPOss972y9OntvdmpoW2cr35Xpdcxidxmd5Y268zLtE19ZUFIqR8AXJmeC0lV84Vi1wdQ+G9Y1GqABsTzjrtGl5Rl3jR67JBcds7hLMo8gE04UGQrwz4ULl6UawJMHxQEEqOULR6DEVySq5Rl33YnuLPe8V/OMTdxQE5d4GPB34zBgvQxjYRfNmwX4darsO3wCXIlGI6fUxA1lXYiVXIZX/lC2so5ZzNNs4o2ayouWWbzujRUyYmgmpiPHyceoM+Xo6fOKOqXjC9c9fiybgey8cu2mkGWcAgTmm2tXyg8/HlRTunVt8OO+qsLtf71aA5ZnbHnG7gtU201h4oby9UrHJSbgZtaUCcoo7T96UqHwOEtlJKDRJk6piRvKuswCuMeLraxjFrORJt6oqbxomcWHjpyU1PRU+WDLBrVqB+vA16d+/eJUf58Xe5h84VNnLyqG8jfAlNKDvoJVHciNpuja4Md9VYntf71WA5ZnbHnGoRen8QOejhvqxyVuBvZxz0+HFFyH0wvJFaboOKUmbqhT4ROnz3VgKzNMxyw28Ub9youWWcwpmk2Nz1WVOX2Sf3x9MrGHGbkSkJ/T6Nb45N0tUgcjzJVDKKY2MFynT4ZZ6d0asDxjyzMOvUK1nnFoRDc31I9LXFff4Am8Cc3T+R0Ob9SJy63DVnYfC91XYA8NC9ivvM4wi0Pr4fz24wsPACSI1DYabkdMbXDi2G3f1IDlGVueceiVa/SMs4Gx5LAUMn35UaqgoBDLAsXJOHQ5HIOnWlZahpU/UgFYD4wYCM083N+d5RJ7lWNiAZvKo6HuDLPYqy48ZmIPZ4/Eul+TxssX23ZIZka6Kp9pTG1guJW+qwHLM7Y849Cr1+gZ67ihp7Ha8vubN4Dp+0wq0M/JhQPdEgCmu48QKdwRQ+nE8Gck69M6eaCAdiRRlqfjjZrKY9dCZ5jFXjxTE3uY4y83gZ286+cjqhtmz8+H5WOsN1iOrgsaY20bDPoM6sTu9GoNWJ6x5Rm7L1Atz9iPG9pZLrG7Eu599WoeISPZnT503483aiqvq5nF0fKF/doQ2mb7u29pwPKMLc+YV6zRM2YEHTdUd5xpOiP0TLtS/HijpvL48bErJVq+sF8burKONq/Ya8DyjCPXuZ/9eal4xi8zNzTyU29TWA3EVgOWZ+yt75fZLmm7KbxVYY9aDVgNWA1YDXSHBoyjKbqjQJun1YDVgNWA1UBHDVhj3FEn9ojVgNWA1UDMNWCNccxVbgu0GrAasBroqIGwjXFnWZ0di25/ZP78OQrs0/5o+L/C4RmHn1v3xYy2niZGcrR5dl8rbc5dqQHLM/bXJoeovjI84+7m6I4bPVLKKx9Klb/ePWPoeMacPZjQP16KC0s803X1wanTJsusqZNkIKY33ysqkdNnLyhGhVOOrp5OuG7rxUh24kabp5PebntGAzQglmfcNbp/GXjGvuOMu0ZV3Z8Lecb8CxVySuMwxTkWxnjylEmyaO5M2XPgGABBzTJl4vgOqzPo6hlab/dvh5H8/a59GPf9gl3hxIkmTyet3facBtw846m4dtavXi7bd+ztUKEZUybKhSvX1HFORFr5+gI5eOyM1D95IssWvyazZk6Ts3jo9zZZtPA1GT4sU/726+1qdun4ieMA9gqAtLq6rg7PmPdKNBJLO6Grn9YY6zi6zEjHAvZj7KYPSZfVyzoyTEMrl5ySLBvXrJBT5y7Lg5IHomMkkx6n4xmnZaTJhjXLJXVQisp+Ki4ECvnChQVFYqpLtDzjRXNnyP5jp6SyvEKVdRLTmR3R1ZPhJna0jpHMNpjydMq1296rAcsz7mgL/GyI6V4xnWmdzfKzE7p0LMtkI0110YVpjbGOo8uMdCxgE2O3vLRCMXuv3ryj8JqjR4+St9evARxnp5Dp60hK6mB5b/M6OXnukjLEPK5jJDNMxzOuramV737YJ0sWzVcMjQuX8hhd8YXZB/cOgO66ukTDM+YTPw3QJCIjVq1cojyAm7fvKTwmy9XVk2EmdrSOkeyXJ8Ot9F4NWJ6x9/1nsiElRQ+M94rpbOtslslOMD9dOs6aNNlIU110YZ4f8EwcXT8WsI6xm5mViX5UPcOUFczMyJCP3t4odwqK5RaMtlt0jGQdz5igIE51ZjpiKbnPP77O+NUlGp4xXx/7ocIz0V989fotKQXohw8VHqfo6qkC8Z+OHa1jJIeTp5O33fY+DViesd4W6GyIcxZ194oTHro12SyTnTClM9nI0PLD/e3pGSt4ThQs4Iz0NG25/YDibEGe7Et1pAn9nySaObIEIyqOo+9r0dxZkpd/Qx5VP3KCJFJGspOwtbVF+mEZJLf41SUanjHbQbbcybPnpa62Dl0VlVKEPuMxWIKKLONIxM2OjiSdjdt3NGB5xmZbEO6ZDOde8eOXsyxPO4FvTZQGeMENDU/V/pkLV6SqukatRk171uyyZypCJ/5rb6XaMjJxdE0sYFM9qh5WKYzmVCyfROVwlEP2sKFS/KA0mOzA8TNy+fJVOXI6V7asW4VREJ7PimD8cHbKKqokZ+QIIfmMQkNsqku0PGN63LfvF8qcmdNVWfSIs7EeHtcCDEe82NHhpLNx+qYGLM/Y8oxDr1xPaxctC5jpdNL4rFF2/nRY3gS7d/nCecogHzh+WjF7nTRP8HWYQk9yFMD2q5a/LvsPHlPHTHm3RWjHM1bH8F9xcYnwa/RvP/1IrRCSe+ma5OVd09aF/cnR8oyPoD2bsJjo57/+SBqbGuXMxTyprXnh3Tt18trq2NGBuHq9euVlj/UNDViecUdbkDJokO/JM90rdIpyL+ehu/NNdE8+l4Mnzgo/9P+w7yA+6C+T2Z99LE+fNkgpPq4fPXEmuNakzk6Y0ulY474N0EQwgoL8OLomFrCmPHWYw0+eAUxPyHushJ4q+22Jo3SLqS5Mw4eI74PAnSH2+XGmCcbYq30TJ03AkLexsnvvgWAqP3Z0MKJmxytPTVR7uBdqwPKMw7cF4d4rCQnx6r5tDrnf/WyWzk7o0vnZyEguN0/P2MnAj6NrYgE7eXhtn7b1v3iFddcxHZvYVBddGr86NuJB4xaOEJkO77we7Z47fbKcu5LvDg7u+zFagxGxE26e7jR2v3dqwPKMIz8vfveK13h8luJns3T3vC6dn42MpGXxSZkj/iqSBDZu5BqIwwfEgUlJkow3gnOXrqpxzu5comG0+uXpzt/u9z0NWJ6x9zmL5l7xzqn3HTV2U/S+6toaWQ1YDVgNvJwa8BxN8XI21bbKasBqwGqg92rAGuPee25szawGrAZeIQ1YY/wKnWzbVKsBq4HeqwHjaIpIq83hHysxNtiRAxgj7DUsjPzd7OHDJDf3ohP1ld2Gq7NXVkG24cKx78uWLJQjgFB53U+9XUWcnZqYmIjxve1HGXVlvXvDfUTm+6kz58U0QsvU5i41xuEyRfsyf5fjEF8DJnN8zijhHHqiDR9WPDTpWIWRczx90vhgPE4F/2HPzwpclHftpnCs6VuYdXjgECa5xG74dbA+dif2GqABsTzjrtF7uLZHV1pXcM87y3zvUmMcLlO0L/N3aYgHYFLH1u/3yGgA8Ulu2rp9l+4cB49nAR9KeND1W3cDx9oMbrg6C2Zkd14aDViecdedys7eR72WZ+zHFDUxPk3qNfF3TQxhU1h3cIkdTumQ9HQQ5IokCV7rz4ePy5O6J5I6OEVKgAPlIPD79wpkI4Dg/fv3l80b18ix0+eUlzxr1nS5eeuONDY2Klbx97t+Ugb8Hmh01fCmrVgNUAOWZ2x5xu47wdMz9mOKmhif7sxD901MXx1DmHnowrqDS+zmlO7Ys19GjRoJg7sMdLl41Zxc8CbegeEdDAB+fHy8nMjFskqYZk2y04hhw+RJ/RNZuXg+KHNPpLqmRpLgRXNWD7evzZomi+bNUh7yteu3pbysPFRF9vcrogHLM7Y849BLXTuaQscUNTE+QzMP/W1i+uoYwsxDF9YdXGI/TmlW5hApr6qRZ/CMJwKPOXDgQEWCo7c8YniWDAOJ7gbAJCNHDJNhQ7OkuCyw6scpfKw8BGjJNiyrU4Y+5i3rVrbDh4bqyv5+uTVgecaWZxx6hXt6xqGR3L/DYYO644e7b2II68K6g0ucPDRZcZe9OKX8eLd84Vz53RfbFHDoElYP+eDdzXIfi52WYaml+bOmSj084iv4ILdq6UJlbB+0GeNK9Bc7kn/thixbME+GYkRJ2YMy57DdvkIasDxjyzMOvdy1nnFoROd3ODxjgnLoOdLLpLgB8k4+7q2JIWwK6w4usYnlHBhWFCcpKYF19fh7AIYdcVmoqqoqSU5OlnE5I6WiAn3K6LpQK16DZ8w+9tmzZwSZyuPGj1VpHtc+DqohUp0FE9qdPqkByzO2POPQC9fTMzaNZSQW0sT4ZAE6pmiwcBgx9+gt9r3qGMJ+fGEdI9kvXbAuITtseyin1KkrcZoHwUDdhC4GxkuEIb5xtyAI/uFoCR4nyakQHu+iOTOVkeYHviFYIJVMZS4B9aiuTnbtP6L6l53ifXXmRLTbl0YDlmdsecbui7lToCCOk2yBcQllhjoF6JiiTrjX1sQQNoV1NZfYzSn9i89/LX/Awql1Lk82cUCiYh17tUF3jN0qHPyuw/QxXTQ605Vnj/cNDVieseUZ80r19IzDvYR1jE8nvY4p6oR7bU2GyhRmmvViSudVBx7z45TSS45U+FbhV5dodBZpPWz83qUBr5lp4/Fx+Er+zd5V0ShrE7iXvGffme5bU3GWZ2zSzksc9gT93xXo++VbgBWrgVhowPKMvbVsecbeerFHrQasBqwGrAa6SAMRj6boonJtNlYDVgNWA1YDLg1YY+xSht21GrAasBroKQ1YY9xTmrflWg1YDVgNuDTQK4wxh8itfWNF8M+Z5eeqp9olB3nBgrmhh+1vq4GXWgMcM79qxRLR3RcvdeOjaFxftROdGtoWhZ48k4TLIu0NHORwGbSeDbUHrQZcGuC4+cmTJsgYOBkX8/KlGNPqvWTM2BwwUBKDYPlw03nlFctjn378rgzCrNR+/QQzcp9J7qVrkod2miaVdUX9eoOdiKYdvcIYh8si7Q0c5HAZtNGcDJvm1dJA8qBkSUtNkayMdGBaB2obP2PKRLWIgRMh3HRO/J7cfr93v6ITZmRmyEdvb5IHIBWGsxhDZ+rcG+xENPXXGmMds5gXwi/eXCdf/XFHsLxfffQL2f7DPrXcyEfvbZFb4PzOmT5FEuIT5MLVfDl37pKKOzpnlCwAnH3okCFSWV0t5y5dlYL7hcF8dDsmDjLLI8Zy2aLXZBAu6EuA8Jw7f1ll1R2s43AYtLp22ONWA24NkG197PgZ4FgHuQ+32x+EsCxMpS8pfuE1h5OuXSY9/IOeMJkvD6trJCM9TRqeNPjaEN09bbrfo7UTg8AoXwL7kQPSYtPz5/DcRR7WPJK9+w7GVHNaY6xjFveLi5MhbQAgp6YZaWlBCE56aqoMBLv3i607ZAhwk+9tXif5N24DzF4vfMU/f/malJQ8kOzsEbJh1TL5XWGRYlk4eXltTRxkljdr2hTZCfYwHyCfvLNZrl2/peDv72zyZqbWPqrVMpLZLzdh4jhUA+9WLikuKhZMoJMMlPfkyRPZuH6VnDp7UT1UModmWvqaS1d2t+s0MBlLdV3F6jB8e+yLkpo2GPdNC5Cyw2Uo7EFx8QPYinhfG+J1T9OI6+53hkVjJ5huKQxxVU2t7D9wVH2TioeNO4217GItnh/wOsMsZgOuYhonqWVlpWVSjL8cLE9EuQfO7/Pm5zJv7iyZjlevgeA7ZOAE+YmJg8y0J7DCBpXKp29lVbVkZWVKd7COw2HQ+rXFhlsNhKsBOgazpk6S6zdvh5uk18WbjfqvWb5YFuGNeOvOveo+DaeSXve0k04XFo2dYJ5xML6PAe+iB1/7uE5Bvbq7X9tpi3vr6Rk7X225ekVDw1MV/8yFK1KF1wwluEiIxQznad0fX4Id3sKm9WvQdREnZ85fkctYyHMo1oXr18/zeeCuY0T7fM1g/buDdcx28AGSAArb1wAHUbIBkM+9kBdRHW1kq4FwNDAMvOunwNE+qn4UTvReGefY6fNSgxVv/h4+5iXizTgoEdgQ554OpnXtmMJc0TrsutPl37wjb2I015QJ4yQpaYDsP3KyQ/xYHPC0hCZmMbsbngGSM2LkCGX0ZsycFvJCDwOVPVwZa664yleTgoJCLFEUJ+NGZat14ugxD8brfuhHi65k+nYH6zgcBm0sTpot49XQwLQpE+QKlufq60I41nGsdLNm6SLVnRmODYllm+dhObS9B4/JfqxzufXbXeoNO5blELr+BwAAQABJREFUO2V5esZ+zOIzF6/IlrWr4Bk3y+X8W1JTW+vkp7Zj0S2xdP4ctQjnUXQhOHS300j3/uYN6mlfge6EGheSkgl9mb54jejYc9bxCPMiVa2rWcfM18SgZbgVq4FwNfDLD9+WwYNSFDZ1LNZaXLN0sRw4fkpuo4+YDOxJGNJ24tS5DtmZ0nWI3KMHcL/yaxjkev4NmT19ssycMU0uX74qZhvifU8HmmIKC8TgF7iOsToeaYstd7FQ8GZ4xrVwNNm//QS9AadyL6luVidOLLa+PGMds5jcXYrTBeFU9s9/8yv5+rtdCpzeioaFso45gD2Q7rmTpMO2q5m+Xc06ZoW9GLQdGmIPWA1EqYFJkyfIWIw++hmLELysorMhsWwvx2x/htFg3+7+WdksLnQxAyPBRmNkxfadP8ayKv48Y8erDa1VqBHuGO5tbP04pMzHL+/Qsvx+m5ipfnxhXd5eDFpdXHvcaiBSDbxMPGNd27v6PteVYzrejO9ATfjj4sHlrZWSmjpYxo8ZJddu3DEl65YwX8840lKnTpssd7EUEft/rVgNWA1YDfR2DaRhHPeUieOxtuUgKa+okpLSUuFY7lhLlxvjWDfAlmc1YDVgNfAyaMBzNMXL0DDbBqsBqwGrgb6kAWuM+9LZsnW1GrAaeGk1YI3xS3tqbcOsBqwG+pIGojLGq1ctVRyIaBsaDm+UZXBImlvCSeeO35v3vdqXCubH64vnyztvbZDFmC/fGQnnHHVleeHU1XT+Yl2XcOrbW+JYnnFkZ8J0nUWWU2xje0768KvC5HFj5fzFPGnAv2gkHN7oVExNzMUUbGmbjs1ywkkXTX3cadJAlXpjxevuQ2r/HABHDmGOI0bIDODU6HtFJXL67AU1sYXHpwPs4giHzPyw52fnZ7utV/vWr14mBSWlcuTkWYxjDjyIOA7yNczrH48xp+X4wnsB08iJIPSrZzjnyKu8dpWM8AdnXCb0j9dyeU3nr6vrEmHVeyR6uFxiyzOO7PSYrrPIcopt7KiMcWerGC1vNNp0kdS3HrNwDp04E0wyCMjQN9eskMrKh+rY5CmTFPRkz4FjagYih8Q4LI8ssDZKKyrlOmZQKdFP+gnm7+zwLYBTx7/fta/dOGsa4gGg4G39fo+MxszGN5a/Llu37xK/ejr56ra68nTxwzmePWKoxIE5oIOk685fd9QlnPr2dJxwucSWZxzZmdJdZ5HlEvvYWmNs4hKzmiPBpti0bmUHhrCOg8w0Jt7okKwhshYeaWrKYLl8/aa6qZmGYkpnYiRnDcuSRa/NluEwcuST3rpXKPngHTtTNAO5t/+fk1LcYwznzZ4h+w6fULNzGHPR3Bmy/9gpqSyvUAlPghTnCI3mPUytdKd3wkztW4epmCOA4SQ96mPwmSlHAVgpLCiSVLBWS0orlOd9H5zojauXq6myJFS5ywmtJ/OYgzn3E8aM7sCVNpXHdF6SDa7IDLwNjIROOY39IeA1UyeMlb2Hjkl9/RPZsGa5pGJqL2XqxHFq67TBdP50dXne3Kwtr6Togcq/r//H82d5xoGzGMpEtzxj19Vt4hIzGmephDKEibHUcZA5Y83EG6XHV1BSJhcv7ZdRmKcPdzNYG1M6EyN5NcAkd+4Xye69B9RrfRr6ZGmI6cnqmMXumXWkZqVjJQYaQQqnSqYBcMTp9qtWLgEm9LncvH1PKuENU5JgjF+DAVw0b5bykK8B8lKOlQ0opvYdAiUqNT1VPtiyQXnAjM+lqCi56A56Z+MaAMiTVfm8SGmI3RJaTyeMM5y8uNK68kx6SQQrgfDtb+Chv48+bT7YzmJxgGlYNujAoePyHRYXWLJovuKOXLgUoNg5bTCdP11dcsbkaMt7WYyxc55MW8szfsEop3155XjGzsWh4xIz/NjJ3A4MYT8Oso43yo83mVh6hiuCPIPRvnObMO0WpxrK+HBadlNTc/CYs2NiJJ+/ko8VRybLMhjlZIDnCwGyp9DOJw0YqIwnDajzR3C+WxbMm4k+2vzgIfbx8RExEx7iVQDs2SVBeD6PU06BTHXoxFnZtmOvlKFfdwveHIga9WsfvfGmxoDxVe1EWx08aRa8+vKqGqwh1iQT4eWyL5l4ULeE1tMJ050/XXl+emGfNbtHCFQpQl/5I3jIZHTwAcd6N+OcNcOjDW2D7ryznrq6MExXHsNeBeHD0fKMXzDKnXP+SvGMnUa7t24usfs49x02qNN3quUghyZs+61gRLyRQYGLVEyMZBp1GuDx48fKYlDkkmA4tm7frQzAlbxrvkVlo+vgoItt+rShQdGgTp49L3W1deiqqJQi9BmPgZG8idVMHA+ZGbM7ZNmCeTIU3jUNDh8ukbaPRn75wrnyuy+2SUtzi1yCx/nBu5vlPhauLHtQGqx/aD2DAa6dwPnz5oU40fgACEcvTvzQLcFQoQ+00Dj2d/gasDzjgK4c++KlOVOYV3znmDtdr+YZOxX24hI7YV5bEwfZK75zjCt00GBNwAgKCr/Kc+kTPzExkvlgmAb6Ej+S3IAXu2P3TzIoKVnYdxuOsO87Li6h3coENFa3sWbfnJnTFZeVxpKGsAxGmfFno385Dtxmyjg8ABL7J8hjeI/Rti/Qtx2HOfOBvlj+HgDqHfN1xKueThj79emZv+BKB94MnPCu3pZhXn8Oy2zTQagH39Xlvez5WZ5xbM5wr+YZOyrQcYnFgxbKNH4cZCdfdrq6BxrQyBzDenLrVy6V1UsWSRlGLtRjnbkO5YSkI55Tx0hm/246CEwrVD9mYLWSG3fuSXlpoA83WBfNTjqGuNU3sA7t5cjx07Jp7Ur5/NcfSWNTI7iseVKLj4M0zEMAHPntpx+pV/VHWMZlF/CHT/Bxi+LfPrdGAmWSyXwQIzv4oZQ6SoQhvgEIEz/sOaKrJ3U3BG34za8+UGsSHnFxpQNpO5bn5Om1DTwYvEJeHCvGopn88k8d0PMILM3u/wbS4Twjy3DKe1Fy39wzcYktz1h3TsO4bkPsRCAnfbpezzP24xLrVOUc13GQnXCvLT0qDnCnEYpEmIZC79pLaCiZZ1fe4Inoa26CMeYDyC30BhMTE1Xft/s496NtH9MmYkxzpHphugR40a2qL/dFHzyPd6dQ3+wnZteKWybiY9+UiWPVB1X3cbvfUQOWZ9xRJ91xhNdqn+EZ6wycn2L4ESdS4c3b2ByZIWYZfnXkR8GuFh0ilMZZV1607WPdozHETPccIz5iLe72p+DthIvP1mPyzlx8TD3n+iAa63r1pfIszzg2Z6tP8Iwtlzg2F8PLXgondIzBMLWUQUn48FisZg++7G227etbGrA84751vmxtrQasBqwGulUD/kMWurV4m7nVgNWA1YDVADVgjbG9DqwGrAasBnqBBqwx7gUnwVbBasBqwGogYmPMIWtrAbZx/pxZd31NlavBS+aEid4gsagLy+DHtFdBYqHPWOqRQzdXrViimCqxLLevlvXK8IwJf8m7dlMxCd5atwqQmGNeY/ajOo9+PNyoMtUkCof3q0ka1WET61hXFz9mMcdIerGOvSoYyk/WMZmZtjvCvOoU7jG2cwMcgIt519tNeNGl1+lTF7+njrNdkzH2eszobLQtX4setTzjyM7QK8Mz5pTgstKybvGy/Hi4kZ2S3hU7GtaxH7NYxzr2a7mJydwdYX71MYVzEs2GN1YqxOiNpAJT1D4XZnnG3XPKXjmesU6N6QCsr162WIZnZcqjx4/B5T2nnvi88H7x5jr56o87gkkdhqnyfAw83NE5o2QBIOtDhwyRyupqOQd0o7PqxjBgHccB1EM+BNGVGSDAkT9Mmhtf7xYumKu4u/37J0rhgwdy+NjpIG9Cx2TWtYEVj4aRzHQm1jHDvdjDnMxiYhabWMcmfrKJydwdYX7nge3XyYL5czGxu1VugQniFr88vfTJ9DpON5e6OoZrlauozJo1XW7euiONjY0q/ve7ftJO5HHXKdJ9yzPuaAueYnIQz5HlGbuuJj+esStqcJc3yDub1srVm3dkz0+HsDLFKHl7/Rr5YttOhVccAkPploy0NDVFuLam1sjDZT/1eSx7VFLyQLKzR8iGVcvkd4VFCjNJaM6sKROU57T/6EmFeHSm4c4CWzh7eJb88NNhIcRoEghrbjSnF5OZMwd1bah9VCvRMpJNrGPqRMcedvTlxSw2sY51/GQTk7k7wlh/3Xng9wYTVzoHD1kC7LnKydLXFyCnF1PPdXk6+tLpU3ddkzQ4YtgwxRJZiXUI68AUqa6pUXjVZ90wg9Opp9/W8owtz1hdIzoeru4CyoQ3PBDMhgtYu44X8G14Fw/hyebAKJuEzAgaQR0P18QsZr5MR+NPOhrLJReBhmUBKGqnwEgm2pLH89Av576xvJjMfm2IlpGsYx07evHTtRezWMc6NvGT+RaiYzJ3R5jpPJj4yWRjr12xWHbuO9junFFfpjzD0aeXrrmaygg8uIcNGwoY030ZiTeuYUOzpLgssKKLk28st3xYWZ6x5Rl3uOZMPGMnMvv36Hm2uLjEXJSTGEcluLi474DTnXTOVsfDNTGLmbauvqEDu4EXMoE9jW3QdqcM3dbhm/q1IVpGso51XPagrEOVvNjDocxiGk4d6/j5c8LpvfnJJiYzH570Pb14zdGG3b1zX3seTPzkBeheigfClPB+yoDEATJpbI5ahooP+0jOrZc+Vab4z7muHwKcP3/WVLWE1BV8oF61dKG6Vh/0oDG2POPAWXLuTeecubemMHe80H13uj7PMyYoh6tP0Auj0MhWPaxSZLSp06aoYTgcHZENT6MYIPQnWB3iGchpI8C7paGcMXOa8tDcSvLi4ZqYxe60ofvsby1CuQuxWodi/oIIx6/SBNeYxNQG1jsaRrKJdezUxcQe9mIWBwh03qxjEz/ZxGTujrBoz0MuVk35D3/3tfzNH7apP3qrh0/lylmsxB1OniZ9enG6q6qqsBpMsozLGSkVFVhzEG9X47AAbDm+RfSUWJ5xbDTfx3nGorzb3Mt58tHbb4Lf+xzc3bPqo9lO9M++uWYZvLZ5yugeAP+XxoFy5uIV2bJ2lfKcL+ffwsKWte20rePh6pjFTmIdGvNnrM22dtVS+RxM30bQyx4/qZd9BzEUT8mL/kcnH25JR9O1gX3i0TCS6aWaWMfsCzWxh72YxayniXVs4ifrmMxsf3eEmc8DSw1P3GfMnKdZnzpON5fR4rXEbw6FeGNZNGem0Eh3l1iesc4WuM90qPZNYW1xX1WecUJCvLqACXp3CycYPIP3HMr7ZXwKP7DohK/goTxcGkIKvaJIhWnjUa67vzicPHRtYFrWkQZR9yDwyt/EOmb8aNnDOtaxHz9Zx2RmXbojLNrzwProxJSnlz47y+nW1aOrj1uecVdr1Ds/3scvDc9YZ1Q5RMVLdPHdcb2MZjRG2MmTaaNJr2sD8/Wqo1OebmtiHTNNtOxhHevYj5+sYzKzLt0RFu15YH10YsrTpM9orgddHbrjuOUZd4dWO+ZpecYddWKPWA3ERAOW0x0TNfepQizPuE+dLltZqwGrAauB7tVAxKCg7q2Ozd1qwGrAauDV1IA1xq/mebetthqwGuhlGrDGuJedEFsdqwGrgVdTA1pjPH/+HCFsxiRe3NDVGNfbWzjBpjbEop4sQ8cQNoWZdO4OC6cNnJTzOlgLBOEsXvSaO3mf3g+n7U4Du0LXTl49seXwPcszDl/zXnYp/NQ9FzMweNejfDX7qPKhmIa8e3FDexNL1tSGaOtp4hKHqjGUIewON4W54zn7HA8ZyvQNpw3rVy+TgpJSOXLyLBjUL+DyJmaxU2bolnUIl5/spPVjMjvxTNto2+7kGamunXTdvWW7LM+467XsZZe6vpSuz1FrjMMpqq9yQ8Npmy5ONFxiXV7hHo+W6UuvfGjmEPl+1752k2xMzGJTnaLhJ/sxmU3lMSzatvvl2xvCLc+4e85CX7VLYRnj5JRk2bhmBQhol+UBMJa//PAX4rB/qmvrZM+PB9ppVceSNXGJTQxTU7p2BRt+hLaBUXX1NGRj5BKbGMKmML6GmrjLOqavqQ3rsDLGiKGZYIbEycfgw1KOnj6vVsowMYtNdTHxk1UBHv9xcoWOyUx2yfy5M2T33hfXz2uvzVbMk6sg7FGiabtJ1x5V7LFDlmdsecbui8/XGBOsQ3LWSaAoaYgp28CXJeVnODCDyz36IXUsWROXmJzZWQAM7dyzX/U5f/LOZrl2/ZYCwevSYQq6kYfrNNSrDQzzqmcDOLYmxq6JS6xjCLMsU5iJzWti+uraQCjToSMnJTU9VT7YskHxgBmXS2aZmMWMY6qLjp9MgJJJZ8yXEspkrigvl2GZyyULqEpS7fggmA+w+5fbd6n40bbdpGuVcR/6z/KMLc9YXa6ZGRkAAW2UOwXFcgvAeEfIjSB/uKnJmy/hxYtlWj8u8QmstNDwpEGBhSqrqiULfGRTOtgAwL8HKgA4jaTz1w/eoCO6NjDcq55+eeq4xCaGsCnMxOY1MX2d9nm1gWH0SJva8KHqXOF8kcrGfkodz9hUF+ap4yf76YxpKaFMZtbnAta1mzVjigofD5B8cVm51D+uk2jbbtK1KqQP/ceHnOUZW56xumSXYETFcSALF82dJXn5N+RR9aOIL2U3S9aPS+zO3M0b1aXjzXwl75o7WYf9cNvg1NMvTx2XmMZPxxCmZ68L4w2nY/NOmTxBy/QlSjJUnDaEHnf/NvGMTexhGnEdP7kMqFK/88A6hDKZeSwfbz9/8sn7cmJgrsydMVWOnTnPwxJt2026Vhn3of8szzhwsty2IPT0mcJC47p/u9P1Fp6xsZviwPEzcuP6TXkK+toWrAT9zXe7w4LZkCVbh2WOhmIZG35AKigowutxnIwblS1ffb9b9SFmgXOc5Pq671aUez/adE4epjZ41dNJ57XlkD0u3ZR3NV9hFseNHytc9ulx7WPl0dMgT5gwDiuc3EUXznAY0oCH7uYLh4YxjcNdPnT0lCLdjcbKKFXVNUKmL/8cWYORESWl5Tgnt5xDEmkb+LC5jfXk5sycLidP50r//v2VkTyOtxJTXQLgoAA/mctPkVY3AN0KbH844sVkZrpnWIHl5r37smzJQuTVX0ox8oMSbdsJB9KdB5VxH/rvZeQZf4kl2Nxs8wfFpTIdD+G25Sd65Ow4POPy8org+pg9URHjnfTkyRNVp5s3bsuo7OGyavnrsj/IA0aQhhuqY/OaucTenFKiOc3pzGrTt8HMvPXK1Y9LrGMI03DpwliOmc3bvibtteTXhvaxnZxMzGJdXerwwDHxk528dVsvJrMT9xI+1v36vbfkIIbfmZCk7Vujb7tJ106ZvWFrecaWZ+y+DvtlTJ7b/hp3h3Zi34sly+z4kYZC7yUSiTadXxm6eprSmbjEJoawKYzlsY3RcJejaQPLMzGLTXXR8ZOZZ6xF13Y/Xce6npGWZ3nGkWosuvjsfuszPOPomqhn80ZqhJ3yo03npNdtTcxbXRoTl9jEEDaFsSy2MZp2RtMGlmdiFpvqouMnM89Yi67tfrqOdT0jLc/yjCPVWHTx+wTPOLqm2VRWA1YDVgN9SwOWZ9y3zpetrdWA1YDVQLdq4MWA3G4txmZuNWA1YDVgNWDSgDXGJu3YMKsBqwGrgRhpwBrjGCnaFmM1YDVgNWDSgHGcsSlhZ8LIG80ePqzdhAayh+9hcggnSLiFM6pWYnyzIwcwztk0FtWJ1xe3nMo7feokGQ7AT2l5pZxum43GtpjCTG2NNp0pTxsWWw1wmCEnxRw5duqlvfa7UqNe9qUr8++uvHrEGHvxRnXsYcJt8q7dBIt3gLyFWYAHDh3DZJPuUseLfP14vxyf6OYLh8Pt9ctTxx5mrbzCWAc/vnC06V5oovv3vPSSnJwsb6x48RB2anHu8jUpwAzCl0F4/izPuOvPpJd96fpSuj7HHjHGkfBGOX23rLRMu2JG16tExI/368XY9eP2+uWpYw+zfbowP75wtOm6Q6e6PHV68dOnLr++dNzyjLvnbEViX7qnBtHlqjXG5Avfulcgc6ZPkYT4BLkAHsM5YDQp5Awsx2vTWLAmKkBXuwjy1n3EpQwDVnPcmNFShtfsRfNmSQZevfcdPqGIbX4cZJUB/vNiDzthoVtTXbKGZcki8HGHg4/xsOYR2lMo+ddu+L7qmXi/LN+LsctJEjpuL9OY8jSxh01hJr5wtOlYV53wdVnHXTaFDRqcIkuAWs3BtUFAC9GnPB979x006sWkT10d+9JxyzO2PGP39ao1xuQLDwSW8outO2QIjBmZxvlgVBDysXn9ainDkky//+pbGOZkMHPXy5fwXp8C+kJwzKwpExTYfP/Rk0IPh7OhKH4cZMbRsYcZ5iWmuqxeukju3C9S8HJ2I6ThwcD+ZhN/twmgmTS0nQZj1colwIQ+l5u37yneLsv3Y+wyTii3148hrGMPMy9TmI4vHG06k154bk2sY1PYUhjiqppa2X/gqCxYMFcBlNgf7qcXtoMSqs/A0Vfjf8sztjxjdaV7sXLJmR0BGHgDbs4pkydJzqiRUt/wVMaOGxO8O5pbWmTPT4fUxzhSucg/pvhxkE3s4WDmrh2/upy/kg/PfrIsg1FOhjdfWFikUpv4u+zH0/F+w2HssoBQbq8pT8anV+3FHvYL0/GFo01n0ouJdWwKY1242sjjujr1IKwFq3hIRpra99ML01JC9Rk4+vL/b3nGHdnmPOs67rmffdGl012fsb7CtJ5xaEUCrNxm5VUyjMa4AUaYcubCFYV8VD/wX119A7gHjc7PsLfhsoedDHmxUnR1uXP7rjLA44G6XIzRGkkwtFu3AwMK46fj78ZhPSl+Hzx59rzUYUmpSnS3FAGbOQZdL+wWiI9LUG8JLHdA4gCZNDZHHXfzhUO5vSaGMIl40QgNmYkvrMvTL51OL+yG0HGXeR50YayHjhcbrl5C9alr28t23PKMA2fUzR4OPcemsNC47t/udLrr0x0/FvvGccbZwGbSOJHNG+ASF8pjcIprgFNMg2EqKixWfcW1OPYYjNvOCtnDly9flSPg7JKfTCKXI4TaPMNqFRyqRWG9THWhgZiG/m5+JCH/d8fun2RQUrJwfTSTuHm/JH/ReNEYsA+cjN3/8Hdfy9/8YZv6u3H3vhw+lStuQ+zF7TXlaaqLKSwwvC/AF2Y8/g6HLxxtOj7AHO6yaiN0MwYPInYrmcJYN4cXu//wcdn67a7g8MVw9OKlT+b5KsjLyDPmPeXmGfM+nTFzWq/gGYden7G+xl5YO4+Sx44eKUvhUQ5A3/FRwMe5fA/lB3x42bBmmcz+7GP0EzdIKcYGHz1xJghmDtzwHhk6h2A4vEan6dnDopYMyr2ch2Wg3pTm5udg655VHwV1dWFd02EoViyaDzh+wIO/ceeelAPO7icm3m9o2tB26Li9/nmG5uQuqWMY3zz8+cLRpnOX/WJfxzpmDFPYXSzbtRkLpNby+0FrizzBG9Wp3EtqlIyfXnT6fFGrvrtnecaWZ+y+erU84z//za/k6+92yRMs0NmKG4iQ91BRS9w0N3uGhcbtqt8JCfHKCwytj6ku9G5pvHwfEiGVNPF+Q6KG/bN78kyMqlsoWi4xuyx03OXQMOo+HF5sd+gl7JPSCyNannFsTkq412csamP0jFkBvoLqxPGUdeHdcZwrOnuJqS78iBiNmHi/0eTHNN2TZ+T984G6RJeO14TuuggNC5cX2x16ifYc9YZ0lmccm7MQ7vUZi9poPWPOirp7t6BbjEcsGmbL6D0a6C282N6jEVuT3qSB3nJ9ao1xb1KWrYvVgNWA1cDLrgHjaIqXvfG2fVYDVgNWA71FA9YY95YzYethNWA18EprwBrjV/r028ZbDVgN9BYNxMwYc+jZWow1df6c2XO9RRG2HlYDvVUDHC64asWS4OzX3lrP3lIv8ozJQOlr4ju0rasaFA6XmDP9EvrHS3FhSdjF0sgvB3tiNIhgJIEdweQTTmO2YjXQ2zXAMa6WZ9z1Z8nyjH10Gg6XOHvEUInD9MhIjPFCzBCkl/3Nd7tl6pRJgLAvl+079vrUxgZbDfS8BizPuHvOwUvFM6aHOn/uDIWedNT1GrjAZENczcuX0TmjZMHcmTJ0yBCprK6Wc5euqtUXeHH94s118tUfvTmlTl6hW47z27BmuaQOSlFBUyeOU9ujp89LIZZiMsnokSPkp4PHhRM7CLl5HfXka51uUoIpLxtmNRBLDViesbedIEv9RO4FWQb06qCBA+USGOTnzl9Wp8YUZuKlm9KZeNuxvB48uykqystlWOZyyQIqs7KiUhm3+bOmy5fbd6m6sWvgPJa/KSl5INnZI2TDqmXyu8Ii6QdU4pA2kI/TiIy0NCEcxCS1YN1+98M+AMjJkXgmFy7lqejs2qDXO0EZ5wChzcmnuKgYnAORDLCHybTYuH6VnDp7UT0cMgn2eVDmRLVbq4E+qwHLM37FecbsUriA1TtmzZiiLuLxE8ZKcVm51INFS7kHWtlzwHrmzZ0l06dMBIQ+UTIAoI9WyIzgdGZykJvBuuA+/1gP2GJJGjAQfwPa/dHwJyUNhAccmB5NGH7//v2V9z4IwHsrVgN9XQN0RGZhgdrrN6PDrPaG9s9G/dcsX4wVXWbK1p17gzAxv7rp2MNMpwt7aXnG+cBO/skn78uJgbkyd8ZUOeZaqXjT+jVYiilOzpy/IpevXEN3RTqMZpv3iwuIeEsa0kiFQCIaWbcwHx1jl4aYD4IEGOGvt+1UybLhzedeCHjW7nzsvtVAX9OA5RkHzpibPRx6Dk1hoXHdv93pej3PmH2wN+/dV0uEJ8LYlZaUqrbEwwiPw9p3x4DU5EKhg+GRJqFfhxIOp9SLS6wS47+yiirJQR+w063BhT9N0tTYKAXoKpnQtsrICKSlZ11RUWFKZsOsBvqEBizPODanScfbjk3pL0rx7DN2gi/hY92v33tLDp48G8RPEl15+uIVeX/zBtW/ywVJCZunsLvhDMK2rNVxSvVcYqYvLi6RGej2+O2nH6mFK3MvXZM8fJQzycFjp+XtjWvU8kpcf2/3gWPBNfdM6WyY1UBPa8DyjHV2wvRWbQprO6OevHR9OhNvO5bXSNSgII5YoHiNWiBzOBDmjbtkmI5LzDCOv2T/j7OQKY/5yUCkeRYFs9gvXxtuNdATGrA849hovU/xjHUq8TLCTlzno5rz22trihMNf5irF1uxGnhZNGB5xrE5k32CZxwbVdhSrAasBqwGelYDlmfcs/q3pVsNWA1YDfQqDbQfR9arqmYrYzVgNWA18OpowBrjV+dc25ZaDVgN9GINWGPci0+OrZrVgNXAq6MBrTFevWqpJCUnvTqaCLOlL6Ne2KaBmFreFdIdLNlU8E5eXzxf3nlrgywGPOZVE8szjuyMd8c1GFkNooutnfQxedxYOX8xTxrw72UVroDNuf+cUn2vqEROn72gmBgce/ga5tKPB52u/GG1XMCU74cVD5UaTHoxpdOFpaWnyRsrXu+g4nMAMRXcLwweZ/oNgPNfBDPEIdkx7ZxZ02QsZkQWl1XICUzOcYb4mcKCmbbtTJ0wDlPIr4g0PA0Navdb1wZ3JBNLNrQN4bZ9/eplmGlZKkfQvoFtsz3dZfbVfRqN+bNnyuCUZLl1r1ChBZ56nIMxY3PQ7sTgxKtw0/W0Xj79+F0hJ4Z8mWeNzyQwiSs/2I7uqp/pGuyuMrsiX61n3BWZ9+Y8JoN9THjJoRNnZff+I5hGDS4GrxoIDfEAgIm2fr9H7sAgvrG8o7H0apspnS6svq4edTgT/DsLYl3WkAyprAwYf5bDaeEb3lgpI8DdSEp68bZCI1VdXSvbd/+ECTLNsmn96mC1TGHBSBHu6NrgzoYs2W+2/dDhhvNqQzhtp8c+FBCqCxcuC5GTD4ofuIvrs/t8MK18fQH4Lpdlx94DkpE2WGbNnObZHs5KvXo9AAuKJJ1nZjE++P3e/fLXf/Ol7PjxoCxbOE+GZEUPFAu36rprMNz0PRVP6xmzQiPBeti0bmUHpmg6wECrly2W4VmZ8ujxYzkKTgWB8Nnw0GbA0xw5LEtNkX5Y/Uimgvi299AxKSl6oLo9li9ZqDw5TqOml3f/XoFq+zCs1DFuzGgpK6+URfNm4eJMlX2HTyhCnK48JsxCWYvAMB6OG5YrfdDDyAf/lFOzTbIIvOb9x05JZXmAY3GysioYPXVwipSUVigvmfXbCGA9iXCcFUihNzoBdU2IT5ALV/Pl3LlL6rgpnSmMRsaRebNnqHY/qX/iHJIF8+dKK/7dcnnKqfCK0wYPljyUz7YeP3VO/uyzj4Sv9HRFdGG1j2rVDbEW3nhqymC5fP2mAvoHCzPsmNpgYskyS682cOKQqe3r8CYwAjjUOMCjPgbjlhIO41pF7OX/cWLTV38MwK1Y1Yt5N2Tt8kVyFm9nbhmUMkiywPsuASqAEm46dx49vc/rswr318PqGsnAddvwpMHIPTexh01hpmvQlK5X84ydkzd+zCjZuWe/MqKfvLNZroHkRrTlO5vWytWbd2TPT4dk9OhR8jYobl+AmkagUA6M6jfwKN9H/x4N41mA56dNmqCM8WZ4bmXw+H7/1bfIM1k+2LJevgRsiK/W5ErMmjJB3Xz7j54Uek2cDs3+Ml15NCyrseTSnftFCoTP1940GCOefBMHuanpuaQBcER7vWrlEhjZ53Lz9j3Fbmbbc9E98w54F3x9jI+PV6BrxxAznLMHv9i6Q4bgAfDe5nWSf+O2giSZ0pnCmCeFlK701JTgA4rHcmD0+UCjl74UnhQIIDyscKZs42C0txYPocFIx3pxW1pSptrvFUad0dMvQJyLl/bLqFEjlfFmniad8RyZ2rAN9RO8WAzH+V8e0q+rawPLdMSr7YeOnJTU9FRcJxtU+xmXjOuXUUZhlZtSl0PgtNGPZ6xL56Tv6W0qPP4W0BhHYsEKvuEU480mDveUiXtOHO6saVM62B4acVOY6Ro0pVuK67UKTPX9B46qtfPi8fA/7aJUxkqHxm6KYydz1VOMT7VKeLJZ8IQz8TcQr/AX0MfIp/TtW3fwxKuWHBhlCvtYaUhr8VeEfthHgAiRGzE4dbB6zW5AmimTJ0kOjEA9+sfGthHXmJY8Yxp4lse8aQD9yjt/JV9BgpbBKCfjg2MhIPcU9jjoOMh81WOHxEx48VfxgCkFQJ9GlccpWbhoyqtqFBt5Iowh+yndBLmr+TdV3UitK8ZfzmgYNJ90fnky/YJ5M9E/nc9dJdTZ2hWLZee+g0ofznFuSac7fOqsbAFU/7NP3pWF82ZLI/rlWppbjWH0nDMz0pU3Tx3fuX0XuNMWlbVJZ4xgagPPleJQN7XnkZjaoApt+y+07TxMz7mpMWB83Yxrd7qXYZ8r6xBTezr3Yrvm8OFo4hnr0rXLpId/WJ5x+CfA2E3hzsbhf9Io8eZtaXlx0zXBIyPD2CS8sCg0xg1tHynOwKBX4dXFkbr6BmkE7MctfuXRmNAAjx8/VhZjPbwkGNSt23erG1nHQWZd6V+ePHteLV5aia6RoonjZQwMbwGWeVq+cK787ottyjO/hD7cD97dLPfRDVP2IIARddevPzx3Gg0acl26GjysdGHuPLPxSn4Q3qAjUyZPkPi4BPWg4LEBiQNkEj7msLuAr7M34ZHzj+2hfj8H7a6uLrAAgC4sER8ref6aXefPKc/Ejja1z90GJy9n69cGJ15o253jL/uWBnXLuhV44B4KLt7gtNnEMzalc9L3hu0xLJ1WU1Mjfw8f8xKxQlBQcL2Gyz13bE8wrWvHFOaK1mHXna638IzDNsZOa6oeVqlugKl4jWDfLC+Y7GFD1ZfuwSmBNeycuO7tY/QtE7WZBkNCQ0HPLiMzQx7jtdkkpvJogDgi4gG80xvwcG/BS//tpx+rPtHy0nJttjQ6t9H/OmfmdDl5Olf1B9MYHEffd6CvOU5S0Ba+0vP3ABhcdqM4wr70OrRn6LBh6tWLBjzwsPFOF06eHEYYB8PLVzFHcuEp8c+RNfhgV4J2sa2U4dnDpRpvLCx7EZYmL8MbxWPo2BTGuHx4TMAIitu37qJbYTgMvvEFSeUXThtUxJD//NrA6F5tD8nmpfzJt8I3li3Cx61DwS4yd0N1PGO/dO48esM+38CO4zpeg7fXL9Gd6eaePygulel4KzC7ct3bCodnXI7vR+77r3tL7Zj7CwvTIcz7Axg9150/HZY31yyDtzdPGYIDx0+rroWUQYM65OIcaIUB/AGv2xuQbvZnH6OfuEH1kR3FSAJHAYEb3kkR2JrKY39yOl7lV6i18wLDsm7cuScmQ+zkfgR13rR2pXz+64+ksakRHOY81ffK8IOoEz9csj6JKOPG3YLgcDL22Q5B3/RvfvWB6q45AgPOV2i/dOY8RdKRZ33Di492KkOP/5yzQq9iHtYl5LA2Crta9qHPi2IKY5uOYa3A9SuXyuoli1Qffj3WEHT6olUGHv/xPPi1wSOZ5yGnDU6gue2hsZ1UfXvL7pst61YpI/Th2xv///bO+zmLI933j8kiI6LIUWQQySYbgzFhHTZgb/DeLe/eU+eH89u99x+4f8WtunXqnjp7amvXu/biQDCYnEHkILJtgoQQ0YAAk+/3Oy8tjUbTz8w7epNENyVm3un09NM9z3T3TH+67iXqakzT8dNFvjDmKGjPvkMNChoVr0HgvP/Aa2e+mIE7c/qsTBw7SsaPGyPHj5+M4J5rda75vSww8mwcqvGVl6Gl2fOMWRB+dvQIG4jS0KbjuKEpP8Xi52TpOC0/DqNpMEzlx023Hea/n8AYh5WBQ3qmGebaoKf8gsP9kDJo8TS/sHyirlEOTFJ4c9jBsJofd1Phw8xWvmBa/t9aGUbgZW3piCENdhb3x3Xn8TTgeMbx9NTUULQbH694T774ZpPwCya+sB83tlQG4kX0l6u/bWryacVXesbR6YR9oB4dS+p6knHC+sNo+XEolMRxGyib0wzVU3yBYXNaPM3Plp52XZND8+OXKo+fhT9otPzoFyxDZ/TyuDEtX8hORu/nkO8lZFRazj9cA45nHK6XTF91PONMa9Sll1cNcMQyePAg6dypCC86q+pWK+ZVKJe500BMDTiecUxFuWBOA04DTgOvggaiX6O/ClpwZXQacBpwGsizBpwxznMFuOydBpwGnAaoAWeMXTtwGnAacBooAA3kxRgn5Y3Giffm/MyxeePUT7r5FRKbV5NF82uqXtLVWZz8WnIYfoI4f+7MlwuLWnJJM1O2OHYiMzllNpUmfdqWVJSkvNE48eKyeZPKHowXzM/GSDbxNDYvv3kMMot5jejKMLaySTMYLxOcYE1Ok692DOrFH9bvF6d8/rgt6ZwApSkTx4Ke10kug9d8BAzrO4A+BV2QZxw3XjCdXP92POP0NJ4XY0zeKP/SdUnjpZtP0vCGkbxuyy6P3VEK3kVqmXQqRcPm/XrtBixJrmd70Lee99tTzhZdqhPBzxAeCCARiWuff7m2zj8snuEEm0CdOnXEism5DRjJmiyan0kzU8eo8mUqn0JLh6skR48cJvuAX+Wy+zI8cGe/MTV0sQx5xtzggC6deIVQZvKMr9Vc89AHK95dItU4Nxs1ZEu+QrcTtnJbjTF5AWHs4Y64sd9buggs1lV1af4GK1i+XLNBuChD4xJH8UbPgx08CatfgpxgLR5h1TY2r60MFDwpB1nLT2MkR7F5w3i/lFNjCNM/LF5TOMFRcjLPMKfpRfPTymdrS5cuXpJlwLieOHXOw412BjZ0KZa2r/l2a93S+jAZC+ka+SgbsamBcVeqr0npsMHmZ90xyDOOG68ugQI44apYxzOOrgirMbaxh18DVEZjkdq4xBQlijdKNGcYJ1iLZ2PzMj9bGcjmTcJBZjxbflxGqTGSNTavxvvVGMJaPJafLl1OsE1O9vCHjxiKFBsiXaoqqzwetU0vlEHz08pna0s0SPvA1yDn+jOAkjilcgI7YRjGCfNsLo7zm6MAbSJEf/PO8kZi23jGUfEaJZSnC45nHF/xoS/wCCPhFj8ae1jLIoxLzPA25q1Jy8YJtsXT2LxRZUjCQdby49wnzZSNkWxj81JOG7OYerExhKPiGZ2mywm2yQlbbOVDa3rR/LTyGfltbekGwEjl2Irpow+WSy1IdyQINkfHXUz49xy9xy4gGvodH4A2nrEWz59Gvs8dzzh+DYT2jM08p5U9jEbCuSv2UMJcGJc4LJx2LcUJbjivGgzvAYcsbN6oMiThIHfs3dHKAv7p4UMrI5nIUJvTeL/HMU9o4yAP7E/0pZ11bPLLFCeYdW3jQ2t60eqIDzBb+QwjWWtL7QFy4hCYONbm6iovVQn/yPf4+FfvycWLl73NGVgejWesxSskXTiecfzaCDXGUezhRyCZ9QPTN9Ms0hLweRtygi+rJeE8lI3Nq5WBhjoJB1nLj8bKxkjWCqHxfklH46fgYWxlLZ7JL1ecYE0vml+KsBdePlMG27GkP/ZbxAuwv61cJe9iumIM3jU0p94x62YMNsU9BpwkHybeLsqsbR9bOoxnHCeeTWf5uk6Il+MZR2s/1BhHsYf340uI5Qvne18MHD99HtD4hoD4SIxlKG9UZAi+FpiF3Tq4MzM3OTWc4LpiBOIxHxubVysD003CQdbyo4waIzlVhvCRRF35Xp6YUKSjpcMQNvFMesk5wcGUTIrhR00vml+c8jF+0HEbryXgYq/dtMObJ163abt8iD0ar2Hqgsa/OTh+TdMVLx7/iE1kH2PLqkePH8smbJBrNgew8Yyj4hVW2R3POJ36eK3HqMmNW7svBRt7uE2b1l6o4Cdavqhpnf7LH34j//hqrccUfYENDMM4wbYEo9i8tjIwPQ6VaRTCbvqk+WmMZFuaUdc1hnBU3Fz5a/Wg+VG+5lC+bOiRnya2a9eu0R6HUTxjW7xsyJitNDNtQ5LIyfu/2fCMG/VOX5Y4U0Y4qEBOO6Troti8tjIwHw6h0nVR+WmM5HTzMuGDDGFzvZCOml40P5ahOZQvG7rmCC6sDUbxjG3xsiFjttLMlg1JR17HMw7RFudwf8D2RtkwZCHZuUtOA04DTgOeBhzP2DUEpwGnAacBp4E6DYR+Z1zn606cBpwGnAacBnKiAWeMc6Jml4nTgNOA04CuAWeMdf04X6cBpwGngZxoIGvGuNCZomTq8gN655wGjAYKtU04nrGpoXjHQrc9tlKELvqwBU7nehz2cDC9vv36Spu2raXq8pWgV8Z/jxo6RA4frZCH+JcrF8U65jePfp5xHC5xWJodO3aUt+a+0ahYh8DLvYTltnFcUBbGoTyTJoyRIQNKpKrmuuzZe8CDBJn0wmThZ4W8Phar5Yx7ggUPa9ZtMj+tx6j8rBHhkaQt5bpNxOUSO56xVtON/ZLYnsap5P5K1oxxEqZoSb/e0gpLlXNhjHOt6ijWcRIusS3NODxjrfxhsjA86Whnzl+Qw8cqZNrkCbLk7Tflq9XfeknZZKFnr+LuchWr486c/8EL60E8Umfq/1p+akR4FnpbSodL7HjGUbXd0D+J7WmYQn5+WY3xwEEDcMONl97FxXLj9m05dOxkXa/Kxpm98MNF0djDNoZw1+5dZfGCOdK1U4paNXrEUE8bO8sPy+VLlZJUFg7vpk+bLKOHD5G2bdvJ5epq2b6rvA612B98jSWL5kmnDh3kGKhfhw4f9/LtDuPx5uzXpW+vnnLn3j1vabZ5QNjKELWCT2MdM9MkXGItzds3b3tl4X9lE8fJhu17vNWN/B2llzBZuqJX3K1LF6k4edpbrbh73yH5E5bykspGOLomC5e3XwAMxy8T5dCcll9RUZFMnTyuAYh9ypSJWFL8RKquVKttybCVi7t3l+/RtoowGtm0fbc8qH3giWNrE5qsSfzIMnE843Am+oqfL5c9B4/I7BlTGt2bmp9me7R4nUDLm4m8BvXrI0+w6Iwr8G9ix5X1G7YmqdrEcazGmEuID2NYewWNu6SknyyeP1v+83KlR2qzcWYphcYetjGE7/54V74CnH7mjKny06NHcgQ9L7pnL1fjJZVlAobUJX17yZqN24XgoJHYeeM5KG/GDRs8QFav2+zNHX8EtsGpM+c9HgY5uSfPfS/rNm6TgQMHyLtvLwCQZrVndGxlIHzIxvt98uSpyjpOwiWO4iebMobxjDW92GS5f6/W27WkC40vGmoXcBW4gopH9sQ1lnMRjPEU1MWMsgleD/kU2MPc/UHTmZZfdVW19Ok5R3oB80qUJh8uUyeMlU+xA8oDyKK1JcNWXoV6HzCgv7yD3n6rVqml/dRZWJvIJic5ikvseMZFYu5N1kP3rl1lwpjSRvct/TTbo8WbBUN8CzZo85adMg2dt9aANZXvP2xuoZwdrS/w2Mt9+uwptoOZIGOx7UsHEMR69CyuE8zGmbWxhxnRxhBmr5Jzi0yTBCue888gOpPIQmM1DT1CbmvDG5ZLTisqTjdYerpr70Gvl0y4zA1AynuhJ9wTf4TcHzlywgv73fnv5SZGBoNglLUywBZbeb+cf7WxjpNyibU0PUFf/hfkGWt60WRhvWzfd0CWvz1fPv7oA5leNlEeP34kz5+98PgetvJRjH0Hj8q2PQdk5ar1UnP9pizHaITDdE1nWn5sF0cqzsiEcaVeKYdh5FMF404DrrWlKLYyEwtrE14mWfpP4xLzYeV4xvX3pqmCPYCI0fj671v6abaH/rZ4rIN7tam2cxdtqLhHt7RYNUw7E87aM16C3mCb1q1k/+ETQq5ubwzdX3ut3nZrnFmbYBpDmHEICOJOIkGXRBY2ZAJYHj+Ox7rg8IRxOF/K3vPz5/WMXL5wovGg08pg4/0yLmlMew8cltq7tXLj2g2pHDFMBmNDSm47lIRLHJefHOQZa3rR2MoHDhwRcpn5lzKkr8knv1shtWjEUbLwYWgcMZezp5VJ7759pKa6xspIZnhbfvQ7jVHMf/voF7Knw0GZPG607Ar0ZMLakgeMsvCvmWbQmTYRvJ7J3xqX2PGMU5rW6kHz0+rJH+80RsFL35orpcOHSlFRe9m8Y68WNWt+jS0fsmoNIzwUb8x34QlUc7UGQ9GumFvr0CQhaATInOUeemdxI636ZqN0KuoonMMzrub6LRmEeVwSvuhoGJPKQuBQZfVV9ODGe9MQTJNvpQnx1tytm7e8p+JoDIUoM9/Kl/TpLVVIK04ZwtL2s44pB3u1NJI1MMrkEv/HX/4hf/7rSu/vLEYk2/cdFBo/48K4xFqaWjxNL1Gy9AVvmnS1tnjIzZo5XWowoiDyUZOFsk/ECMXU6dBhQ4TTXAYVaWQNO9ryY1iOdM5duCizIUe7tm3lKnZX9ruwtuRnKzMs65ZD0nw46mUKRhccqdClwzOOipeP8mh5sq4Mz5jtgFNJhonOe2rc+DGBzby01DLvV4YptPVbd8lmvDv4/Iu1ecOwhvaMia8sB7P4F8sWe3O41zGE/xE3nd9FvbCCRWvw0pyNLoohXFV1Rfjm+I/ocfHJdfDYKUwtnEosy6Ztu2Uhvif+5De/BDP2qdx7cF82QOkpF04OJT1sNeaYl4KXO2d6mWeAt+wu9yqIc5NRZfDryH8ezTquDx2UzMYljkrTFk/XS70cPDOysDdchnlZftZGx68jNmCOzTibLHzwcNjHOuXUwx30pNdiI84H91MvzEz84DEqP4Y/hmmn3/78Z7J174FGw0pbWwryr035Uvk3/BWUKZO/Od/ueMY2JrpWD5rfyxoK2J6ouv0BL5eXoWd8Fw+J5xidP8DGyvsOHvM6opms86i0VJ4xjQ9dEqylljFvUI0hTH/O/xC7aFxTZGHc1uAv8wmdjuOW9Y/wQpG4wqCLKkMwvPmdHdYx9QUmc4icJt+wYxK9tEGvFpM5Xv2EpWkrH0c5YdzesDT816Ly84cNOw9rS+ydsexsg//6yW/lr3g5WxvobISllY1rNr04nnE2tN04TbaPZsEzzrQRNqqIMoph/k2RhXGTxP8JT0ibC5PRFtZ/PRuI0KRpJtHLU4wwNGeTJSl/Nyo/TRb6hdVTFFs5Ks1M+tv04njGmdSyPS3HM7brxvk4DeRUA2Px8u88FqM8wbZHzr2aGnA841ez3l2pnQacBpwGQjWQn1fJoaK4i04DTgNOA6+uBpwxfnXr3pXcacBpoIA04IxxAVWGE8VpwGng1dVA1oxxITNFuRJrIb4rNH/88Ny5lAamTp3UYCGO00v+NcDP8ObPnel9855/aQpfgkK2PZr2Qhd9aBHi+iVhiiZh0FKedOMRQFRx6px0wDeGP1s0X7Zsw0KQxp8Sxy1qiwo3dGB/uXbjptzKUan4YJwza4YMBDGLpKwde/Z7S8ZzlH1es+E3rqNGDpfBA0vkKBawGDJgUKggzzhuvGA6uf79uw8/SK0sRF/nETgmqUVcKepfNmVJYnuyKU/ctLNmjJMwRZMyaNONx+W7XObNRR3O5VcD09ET58jks6++kdGlI8FMniNfAij0KjiiAbqBeterR3cVN+DnGVMvceMVgg6/Xr/ZI/T16NlDVry7RKoBdLoJWFQ2XRLbk0154qZtNcZJGcIaU9TGAo7iGdv4wvw+UOMgc/3/HLALuISXS7qPgvR18cKlSN1o8WxliFoenuk03//ZYo8dwoY9AcuUz4Eu9xjfypLb+vXajR6Pw8Zk1njUfuV07NxR3lkwF+S741INlKpWhrhp+tPn+UCwSDZu3e0tziBo6Q1wiTksT7JIJ5h2of8m33nX7v3SpXMnq6id4NcL7fwKUAHGxYlnwhbCkfcGuSA3b/8oPcDFJnHtvaWL5O//dDxjf/1YjTGHj4XAM+aNaeULR3CQl2EnihoMuf/r71/AkHSUXy5/Wz5Fj/iniGXRWrwkPGPml+k0HyLNfn36eIyHea9PlVqwHm7/+CMwnu3BgX5m1xlA8BqP2jQOApV+vmyR7AWClIaYTiuDLU32eoePGIrYDeflqyqrwAEQ6QEI1YMHD+QdoDn3HTjqbWTQkxAlEN2cE0xjDJOTWJTC0VxzdF27dfF4D/0BZeoNBG8VWNStwKkpBhfb73p061YHk9LYw5qf4xnjicclp2RJ0GlM0SQ8Y40vrLFryebtB/g4jVbpqJEyCCDx+1jePGToYH8baHQeFc9WBr4DLGrfwTOGNIjmj0jQbKR55ep16Qdwfh8Q5Uh664851z4oL/em03RmCmzjUdO/Zw8OKd/BThhVch54QbqoMjBMWJqaXoowTURgDh1vsragr3G3DhLMnMPjC8qz8Yybi34mjh4pC+a8jp1gxsvnq9fX7bITJb+NPcx4Nj/N9mjxHM8Yc4Xc8ubzL7+pG5KGMWij+MJUcmg8WgE4GuOHLxkT+wGMv4WhkubMlxW2eEl4xoSa02UyzZpr17G7xWi5jx7xCbyMnD9ruscZroYxjqMzjUc9E3WzGwjPGdhYoOL0Wblz+07dm3xbGVi+sDTZo7NxnmmIuWlBGxjhfwDWQ1eCB8rBI6mdXrwLr/B/Gs+4uahlF7ZO+xEjtt/jZV47jLbrHO5Pkvni9Pj97OG6+C9PNL9gWP9vfzzHM47JM9b4wka5YexabrNE7Gc3wNsrL1d5c8V3ce0ehunGEWrDnpgxlmwcWjwa6igms0nbf8xGmrdu3RLuAj10UH+5fv26NyLxvoQAIzmOzvzyBc+3YB7z+PGTsqP8IHblmA9jCf5wDH0G04n6TR7EJUyBDH85WumH+WNiNlke50TGlA6XE9iiqrk7jpwdzzi6FkPnjAuNZ2zjC5vi2di1a7Ch4GJwiSd+/CHmiR/KVUyp7MSnU3yBQMen8sHjFRiSL4UReCpbsTUQt3iyxeNWUEl4xiRzZTpNksfIFOZUDc8vY451xqTxQiPN31E60144cg6XjjttDABQfqK3jo8AADCHSURBVP6cN2Tz1l3WMhh9aml6CYb8txUbxL77zgKZNHaUN5f9zZZdDdCpIVFazKVf/+pd6YJNeNsA7zoE02gLZr0uW3bvk+8wR8wpm5HYDGHPvkONyqvFaxQ4rxfANEf7pDuDEdZE1PH4cWO8B/1+8NKXL3Q8Y3/1NBueMYXW+ML0D2PX8jpfRj5Hj4sPmTDHm4GNJuivxWNeGpM5LB9ey0aatrx4PUpnWlybn1YGW5yo6/zmm7s/mJs3KnxL94/iGbeE8vO+ozPvDfJRJt7HjmesaD6MQcvgGl+Y/rZ47NFqztYYtHi2vLR86JeNNLU8o3SmxbX5aWWwxYm6HvWFS1T8luYfxTNuCeW13Xe5LJvjGedS2y4vpwGnAacBRQOOZ6wox3k5DTgNOA28ahrIGijoVVOkK6/TgNOA00BTNOCMcVO05+I6DTgNOA1kSAPOGGdIkS4ZpwGnAaeBpmigdVHPfv+7KQkE45KH+whLo823p0H/V+n3m/NnSQ0WYfihN1xgUoalodPKJkg3QFOqrlyNpZKk8bTEs5Gmll82/FpCGaL0Qj7L3NmvyyUsXnIuWgPkGZeOGiHVzYxvErroI7q49hDZ4uGmyyy2SxjPZ/SYUR4XgMt1L1RekXIsD+YnXTSgkyaM8Uhw5EDs2XvACh4aPXwolvae4DroukzffnM2Vp1dlR2I16FDCuHJbx2nwEAPGzRAroHkdeTEqUaYwWA8yvHW3Dfq0jUnh46fkksXL5uf6jGYpho4S55xyq5lXQhl0OTT/AYNHihTJo6VriCzXUabOIK6uwOmc9AFecZx4wXTyfVvxzNOT+PNZpqCzOK+vXqmV7qEoUeBq0uwyTasyPtm8w5vMYhhVvDmv337rnyJ5dxcSLIEZLi4jgswSK46cuS4EINYDYIVHQ1xe8CFPv96nXwPQ/oWVrz5XVi8+7X3Id/+ur8DxyqkV3EPuQFKXRwXlmaceJkOE1V2Lb9CKYMmo82PS+9Hg8i2D1S8f4Lf/BgbHsx+Y2pocPKMT75cFp1OvNDEcnyRPON///OnsurbrTJ7ellOdpEhz/izlWua3QIia89Y4/ba+MLBeg7ycDXm7UD0CqfBKPUuLvYwioeOnfR6eE1hFmtlCMrq/z1j8jjZvGuf3ACMh24vllHTdUVvtFuXLlJxMrVbwW4sVf3Txys8tsVdMC+KexXLQvRWu3buIsfPnJNWL2FFjLsI2zz1AxqShKgPwRym2wmIyuVLldIV/AxS2NjzJm/5HQDWuRyWFCotHg26cWUTx8mG7Xs8pCavcWg7fdpkGT18CNJqh+XS1bIdS485faSlqcUzeQWPNBDLliz0gEWUvzOA6UsXzpM1uAG7A5w+DuSu/n16eayQm4AOUab12F3lSmW1teysOy2eVoagfIX4m0vxN+JBb9yV6mtSOqwxUTDIM44bz6RbCEeuqnQ84+iasBpjG7dX5Qv7IDxhPFwb85ZicoltGD/5bhOYxbYysJdrY+w+efIUuy90xVNVZP68mTCIT+XcdxfkBjgQ9+/VevSyLpj3vYvhZBcYHa4i4pHGmD3aS1dq5OixzTIArAEErquBbTv2wph3BVN5sdcDpge3f6I7eLRC3gefoQtg7q3Bet1zEFMiL5GkWjwvMv4j3as7ZPCD8ydgKqUEiM01G7d7kJ+RI4aBxZFaDq6laYun6Yyr58giJnf6M0D8OXog4IaGn4jPQcB7foZe/y8AxD9/4bIcwIN2DLYbojG2lb0dHkZaPK0MRi/N4cj5zVGYzuKDevPO8kYi23jGUfEaJZSnC45nHF/x1mkKG7c3Dis3jIdrRApj3tKPgJ6ngPWUTZ4gYzEs41xtDwzp+VRlj5HxSPTiOf/YQ4hi7NrKQBtpYw9zDpMmdDx6cyfPnPdgPISs8zrz377vgCwHCP3jjz6Q6WUTsbvGI0xXvPB6xz3RCzyEYSeXShO1aYwfy8eXeE8ep4yvvwz064VyXrv1o0eQG4F5RM4lE4NJp8XzAuC/aWXjMc982vz0DPo09JQ5BOZDhPJUYI81s4TbliYfBLZ4ms6YMfMpx/TLRx8sl1oY4dOnztbJw3lwTqvcxV8l5t/vgKZHFgWdVnYtnq0MdZk2kxOOlPj3HO28C0ZIfscHoI1nrMXzp5Hvc8czjl8D1p6xjdsbh5UbxsM1IoUxb+m35O0F0qZ1K9l/+IQcxwus3sXd0bGsf1YkYRbbysAb2cbY5ZCbnKm9Bw57G2PewNcQlehVDoaRJMXM/DEcb5ZPfrdCamtrpR0eHjS+z56nYOmmvFFHGvk50yfLf/5tpUcrO4a5319+sEwuXr6C3S7ifWlRgl7VVvS8jaNc7dq1w4MiZfzN9aijFo8PP5vOTLrtoYMUcCmeDrSymzRb+rHyUpXwjyPJj3/1nlzEOwM+uOg0nrEWr5B05njG8Wuj3tr54vCmtHF747Byw3i4vuQbnbaGER6Kfep2lR/yNgrtgmmCopdfGpjA6TKLtTKYNMOONDrf4YaYNH6stw0MDQaNHT9Ro+sLpCQNb1sYu1nYX68G88n30NPjnBiN/HAMOb1w2GamNXo8US5FKWslnTunekX83R7zvZzSieO4L12rVm0afEpIOSphyKejx+z5Q798I88bXnNJ4zHNkv4lMg4vpP62chV2CunutR8tL/o1texR6ReyP+tlCkZWHI3QcXcTjoXY4zUujGccJ56JXyhHjsgczzi6NkLveDYQjdsbxcq18XApTuoGbChYHH5yusxiTgVoZWgoQcNfO3aXyxK8gPrktyvk8ZPHsh9zupwjZm+4DJt/coNTOvKEN2zZ6Z2zXLswb/r2vFny5swZ3t579z0ucIrn6gXy+typM/M/MZxb8VXEkkXzPN20gyE++8Ml78WeCQOt1Z8GzrrjpeL9hyn+sN9r07bdsnD+LPnkN79EGZ7KvQf3ZQOYxPUuPM3oePUpmDNOOSwBN3rtph3eQ2Hdpu3y4fvL5Br0E1bfJp5Wdj48ol14GaLj5T8E3zV0xTz/H/EC+DHeDzwCaH8TXhrzwU5n4xlHxct/yfwSOJ6xXxtR5yrPmJHZM7Rxe/lp0SPslkF4eiYcXw7SsYdmc5SHL7cIUPc7jbGrlcGfRvC8HT43ewJjHCwfd77AJEXdSzZ/vFbohbIc1Fm6jj3uJPG0fChLa3BjzXyxFtbvlzSeP410zrNR9nTyz1dYTvtxSilYP1E8Y1u8fJUjSb6OZ9xQa6E9Y3+QYCPx+2WalasZYZOvTR72hG3OFscW3lzntkxh7il6mjbHh8TjZ+kbYqaXaUPMNKnTOHplWL9LGs+fRjrn2Sh7OvnnKywf9GHtM4pnbIuXr3IkydfxjBtqLbJn3DC4++U04DTgNNCyNOB4xi2rPl1pnAacBpwGmqSB+le3TUrGRXYacBpwGnAaaIoGnDFuivZcXKcBpwGngQxpwBnjDCnSJeM04DTgNNAUDaRtjPkJ2UJAb8wfF1cUknsT39byk7vm7HJVBrKA33h9qrwPZsTrM6Y0Z5W1aNn5meH8uTO9FZ8tuqAZKhy5HdMAyWpuLvLTtmCBCLepOHXOYwv8bNF82QL6lrImIRg9679HYwVckCGc9Ux9Gdg4yL4gkaf+MvAbaRvrmHmNxao3455gIcGadZvMT4mSJcgCzgQjmfIuxsP6aMWZwMKVOrHSPglLUyu75pd25lmMEJdL7HjG6VVC7549ZfiQgR4nRlt0lF6q2Q+dtjHmcuGaqzXNvveZDdUaDvK6LbvAqXgmpSOGNbk34+f9DhzY3yPDff7lWk/8XuB3cBXgmfM/pIrjW3sTJYthAX+9dgO+Q06xJNgDIyPZuE6dOsrSBXNjM5K5EGHxW/M8AtnZoksmmSYdbWlqZdf8miRMBiNzNafhGZP4x91fyDP+Zv2WRrmQZ8wNB+jSidcooTxcIM/4Ws01QL96yIp3l0g1zm9ej8fcTiouecb8a27OaowHDgrnC0cVkGvn54DZwCXD14FTZA+JaEc2IhvzlqhFLb8V4P8SKzkbQ+lOYFYcAxHs0OHjnigaQ1jjJ2tM5kxzkCkoDZ2NL6yVQWMdE0h/AZAZP9fY1I+NyUx/jQXsTysdRjLTnTZ1MgZJL+Q82B5xnSl7cffu8j3YzkXoWW/avlse1KaWeNvS1Mqu+WltKa7MmQjHTo3jGa+qU+VvVrwnX67ZIFxIptWR5vdrgJZgZjx3+26trPu2/sGmxesEWt5M2BYiW59g5A+ygdwE/mD9hq118uXixGqMbXxhNiLNLcPOFzXYbeK//v4FIDUdwe99Wz5FT1pj3jI9Lb/uAAdNGFMqq9dt9sA3H4F7cAp4SxpxjSFs4yfTMJK9e/Lc97Ju4zYZOHCAvAtq3N9Wrva4xJnmILN8Nk4w/bQy2Hi/jFcEYzwF3OIZ2E+PPeRTYAizF0K2iI3JzHhxWMDpMpI55CY0nruVzHpjGnJJtRO+Uxg+Yih+N3y3UFVZ5bUJU/ZVqFsyoN8BC7lVqxQ8x5YmErOWPcpPa0uMm2sXxSV2POMi8d/vWv2tRNtjM+sLozon8A5EizcLYW+Bm74ZnBnONRPwVb7/cK6bglhf4Nn4wpqEUXxhjXkbld8eEN1ofElHu4Eedy9swcQXUBpDmLKG8ZOjmMyZ5iBrnOCoMmi8330Hj2Ja4YCsxLY9NRj6LQdsiCMQzrHS9IUxmakTLnW2sZXpT5cOI5n1vnDu67IaPYng0l6+37Wxo7Wya2lSPlvZo/zoH9aWeD0fTuMS80HmeMb197upH1v9kVlDLMKTJ6lpNxPeHG3xWAf3gMHl/PJdbCBR3KObCrgy6WX6aO0ZR/GFwwQxX1Y8BDLv4ctNOPdjQ85bt3+sC25j3qaTH4cSzMuDA0UwhMP4yZyHJHuY87rG8eUXDRldpjnIP3x/0coX1spAo6qxjvlwM44w99nTyqQ3dv24jt4x+6U2JrOJox3TYSSXjhqO3kQbIYSfrn279jIS1DVOsRzARq42DnLH3h2tDOioNG1lr8GOwJpfsMymLQWv5+q3xiV2PONULWh1pPlpdeiPdxoj5KV46VyKl/9FRe1ls48NrqWRab/QnnEcvjAhOo/wFGLvho6G7N69e94+Z91wE1ZiW3HOFd/FtXsvt2OyMW/j5BdW8KQMYY3JTCNvYzmHyWCuaRxk9kRtfGGtDKk3weGsY87NT8RuHqTE0Q0dNsRjIBPBqMli5NWOTDsdRvJB9ND/4y//kD//daX3dxa7tmzfd9AzxFo+Wtm1NLWya36aLLn2o5yOZ9zP61SNGz8mMImV29oow1TfeuBlN+NdxedfrPVG37mVIJVbaM84Dl+YN/zB4xV4Q7oU2xE9BZP3gLd10hoMVReDbTvx4w8xJ/hQrmJaYSfe0L9AT9TGvOVNWY63n79Ytlh+gpHni78fX3JdU2KGz1PTWEUxhMM+bSEhzMZk5nxypjnILIONE6yVgXLaWMfsNXM49UfsNMLtoO5gmLUWG1w+uJ968WVjMqf0yf/DdUqf5Ixkxk45e+omBCQIqT8tnvHjqMZW9ii9aOWulyz7Z1FcYsczttWBaQU2f1xHu2ocqvEVk8IPeAm+DD1jbgv2/MVzeYBR/b6Dx7yvxkyYXBxVahsNE52GYCSTlDcVDbjfecNvGIngdX+Y4Hmc/IJx+LspDGGNycwbmwYxzKCHyWGu2TjI9GcZw/jCUWWw8X6juLaaLEbedI+2MqSbjgnvL/u/fvJb+StepNY2eBibkA2PWtk1v4ap5PeXTU7HM85NvfAe/xhfcnzxzSavI8P3O+PGlspAvAT8cvW3uRHiZS6hPWMjgWaE68PUz7uaazxqfGF/OP95nPz84c15UxjCGpM5+DLK5Bd1tHGQGY9lDCtnVBlsvN8orq0mS1Q5bP62MtjCR12PKrstvlZ2zc+WXj6u2+R0POPc1MYzvCvi+6I+vXvJtRc3sPtKFxk2eICcOvt9bgTw5aL2jH3h3KnTQE40MHbcaDmPRSxPsA2Rc04DudCA4xnnQssuD6cBpwGngWaigdCvKZqJ7E5MpwGnAaeBFqMBZ4xbTFW6gjgNOA00Zw04Y9yca8/J7jTgNNBiNBDbGIcxdguJG1pIsmSydVDvXCCQDccFO03hGYe1iaRyxqm/TOaXVM58xOOnhI5nHF/zcdpS/NRyF1L9tM0vhp+xa64XEjc0F7Jkg/cbleaooUPk8NEKeYh/NsdvJYMMYV6zcZBNOkGesbkexUGuC4flo3HY0XFkiVN/YW3QyGKOUfo04Qrh6HjG2amFOG0pOzk3LdXYxjgsm0LihuZClvtYoZNp3m820mRdaRxk+ofxjHk9ioPMMOm6KFmYXqbqr6n6TLdsScMTH+B4xkm1p8fLVFvSc8m8r9UYG85s185d5PiZc+CEpiA6FEHjhmqcYBtTtG9JP5kycWwD/ii5C1z5dgJQbY0vnFQWLU2bmrnYIdO836g0KcskrJ0fDkRlm9Zt5MjJ094OBkZGG+9X4yBrPGONg6y1CSNP2FGTRas/W34lYGWPGz1S+vfp5S2bv3n7jofvXI9dZ65UVqt1FCZfPq4RJ+B4xo5n7G97VmNsOLNHj6U4syB61MWzcUM5t6Vxgm1M0es1NdJr/kxwSPt668HZa5gG47xy7UYvTxtfmJ5JZbGlSVCQxt81SsgU79ekx2NYmrxOjsHfPl8lxT2LPTLa6bPfAb5+XzTer8ZBtvGMozjItjYRpTNNFlv9sdy2/Nq1beuBwD8Dv/YX2L/v/IXLcuDYSRkzcrhnjBmXzqbPlG9h/M/5zVGY7unXu6ds3lneSCjHM37FecYaZ5atxcYNjeIEM24YU5S9hP2YF50yaSyDYNePgR5p/y5o+3Q2vjD9kspiS5PPHBt/l/kZlyner0mPx2Caxu/k6XNeObndVRX+BmH7pSjer8ZBZm88jGfMuV0+csM4yFqbiNKZJout/rT8qJdrN28LpyQId6msvCJ3wLLoAPn9zqZPf5h8nzuecXgNhNkJE9LmZ2tLUfEKmmesMXZNwcKOhJ5onOBgHD9T9Py572TW1EkeknMiQB3crsk4jS9swgSPUbJoadr4u/48Msn7NekG0zTX/ce2GH3QmGq83+OY2tE4yP70/Oc/PXxo5SCTSc26feZjQJu4fJjadEYDn0SWpG3QyMRjHH36w+fj3PGM7TQ1Ux9+O2GumaPmZ8KEHf3xCppnrHFmwwpmrmmcYBPGdiTdjUPN2diypxfQkJWXK72gSfnCmixJ0zSy81OzTPN+w9I0+fXv38/jRXMapzemKi5hrziN95uizIVzkE2aYUca1e+wf92k8WM9Eh4NKQ1azbUbHuOVD4HhGFLTURZuTxPlksqStA0aeTR9mjD5PFI+xzN2PGN/GwydM+YNFMUJ9hIJcEM1TnAqU/0peAb72r0xZZIcOn7SA6QzDucxY/GF05CFc9ux0kwJ3ej/bPB+bWmSv1vcvZv84Te/lA7Y824Htp+yEfGMdjUOcn1hTOj6KzzTOMix2kTD5DwEqY3JHAja4KfWBlMGvkHwRj/s+mwUNC8XHM/4hCxfOB/3+TM5fvo8XsTe9dVDeNtMBdD8XiYRsAVR8ZoFz9jPmfVpKtapxgm2JdARW8P/+ufL5FPQ9rnfXdCxp5aEL6zJkjTNoGz+35nm/TLtNm3beID+dPjQjGfjINNPczYOclPahCbLCLx8Kx0xpNFW9U3JTytfofg5nnHqBXW+6oP3f7PgGSflzFKxGic4qHjOD07E1iulI4bK3sMnQg0x4zzC3npJnCZL0jQ1OTic518m3dMnydKzcZCjZLNxkJvSJoKydAY7dmzpCLmPnRUmjx0lh06cbiRWU/JrlFgBXnA84/xWiuMZB/TPt+AjRuCzpKtXG3wjGgjmfrYwDXDEMnjwIOncqUguYs/Em9jh2jmngVxrwPGMc61xl5/TgNOA00ABayD6dXgBC+9EcxpwGnAaaCkacMa4pdSkK4fTgNNAs9aAM8bNuvqc8E4DTgMtRQOh3xknLRy/ipg354266Fu27kp7m/u6yBk84dLasQDL9MUChqtYwFC+/3CTU89Gmk0WKssJkCdcfuCI9WsXZk/WQknfPt6ilCyL88okz08lZ8+cLjt27SuI+6nQFd9c22BGjfEzfM5Vceqcxwj42aL5sgUULW99bRZrj+zdsSOH1eXAbbfXrNtU95snQW5vXOYtv0EMcoJNwsE0eZ3hoxjCwTQ1We7cuStvza1/uJm8Dx0/JZewUq4pLi6z2J9HHLZykCWrla+pZfDL1hzPaTSmThwvXTp39GBHXMYe9hnm4CGDcE+1qzPEcePlWye/+/AD6dSxo8cYe/T4kRw8dkoqKk7XlSNb8gXbYLbyyXS6GTXGXE5LmA0/WcqV61XcXa5evyFnsL275wILdCgLlxB/vXaDRz9jGPY0orjE/Bh/8VvzPJrW2aJLqbRf/h+WJr2iuL1haWr8XX6XGyVnA8Fi/sgGs9hkHWTJauUzcV7FIx/K87D0f+uu/XL/wQOZ/foUmYBv7Q9g5BF04/At9hEYarp04gXTycfvr9dvlms116RHzx6y4t0lUo3zbH/CGGyD+Sh3kjytxljj/WrMYk0ILZ6NdaylR7/2WCJ84VJV6PfJGrdX4xIzXRsnWEtT4/ba0uTiEE0WzY8PlenTJnss37Zt28nl6mrZvqtcnUagHBqz+K0Fc6Rfr2IGE69Lg6WlRDvyIUtHTsaSRfOkU4cOcuzUWTl0+Lh33cYljiqfF/kV/I+Ljf7+z9V1JT9acVYWzpnRyBh36tzJY7VcqbrihY0bry7hAjjh8nWyRm4CNtUDS/u5uva9pYtQfscz9leP1RjbeL80ABqz2J+4/zwqno11zGGbxhcugjGeAvj6jLIJXg/51JnvvCcx87Zxe/1yhTFvNU6wlqbG7dXSNPKEyaL5TUC5S/r2kjUbt8u9e/dk5IhhHllN4ws/wUq+bl27YqgoMn/eTKA5n8q57y7IDYwu6Lbv2OtBgogVXPr2m1J7/0GdPuk/bPAAWb1us7cv30fvL5NT4Inw5tK4xIxHp5UvFeLV/X9Av95yFQYr6Gw8YxPOFs/45/vYtVsXef7iufR/CbmqqqpG+2otxXiP43c9unXz2h2v2WwB25nmp7VBLd6sGVPk1o93ZfOWnTINnRsCsDLxXslfvjjn1q8pbLzfOMzisIzjxAvjlEaxcvcdPIqh/AFZuWq91GAF13L02ginp2OvLIzb65cvyLyN4gRradq4vVFpGnmCspjrPAb9CFCaht1Q9h065hlS9pg4H8ejpjMOc23MYubz7NkzD0Q08/Wp3vmW7bsbzPHt2nvQM77s6dy4dVt69erJaFautOf58r9gGfx+r/I5CXiTx42WcrRlv+NDdQJePJ8BXjbM2eKFhc3XtYmQf8Gc1zEaGy+fr14fOWozcobZgii/FskzZqFtvN8oTrBRWPCYbjzDG9VYuczD9Oh4fhrD5tnTyqQ33ubXVKeG1byuuSDzVuMEh83nmbRp5Gzc3oH9iZts4+3SwfDt27WXkXgpw2kNf5pBWUzaPAb9eKO2a9dOHj9uzKzQdMYHFafV9x44LLV3a+UGvi6pRI96MLZ1OocdROhmTC/D0Li7fIV5drIhbM7Ukc0/eD1YhqD/q/ibBnX5ormyesM2uX+vtoEKOJL46dEjuYNtpYJOixcMm8/fu8oPy48//ii/x8u8dvjaqs6h/bItsq1GOa2daX5auv54hcIzDp2m4I3Ot+3VmCc8i2Ho+fPfyx9/96FwTzI/J5jGjw2mpE9v2bH3QF3ZCZl59PiJB4pnQ6LS48SrSyDmCZmwHJpXYF84Go2hw4ZIO9DN7mHXhzgujHlLTjD/jFvw5mwwM655ejDXwo4prGOKIXwXX0Hwd3tM6VCeOGmGyWLyCfNjD72y+qpMLxsv23buk0fQ+cCBA4QQ+Fql/Gz8hlm8t/ygtMUWRjSSu4HmpBuPl0ijhg2Wf2KkkRROZOT2H8PK4Pd/Fc+HDB0sb82eIau+3dagU2F0MaZ0uJzAtFvQRcULhs/3b47WduOeWjBrhny6crW3ZdgjvJzuh/cP1VVXZSxGBamxbH4kLcN033p8hnvt2vXYPfdsSBpqjKMYwqsxR7l0wWz0BMswJH5Ntuwu9ybojYC84Q8er8Db06UY6j6VrZhGuPDDRdHjRT8hTfrmyJ0nigGi/+PvVnhD6ju1tbJ28w55gHnOemdPNy7ztnEKja/wy4d0uL3BFDRZbH6btu2WhfNnySdgHT/G3O+9B/dlAxpVlLMxi/nt9Hx8z8oJ5d9/+PO6ZHbAaPOh3JTvFG1lqMvkFTvh1NVyfP5JI/Srd9+p2/B39cZtchmbB/AhydHTnn2ph6RRT1Q8E64wji/qprjOnD4rE0HmGz9ujBwHr3z/UcczDtbRaz1GTQ7ahQZhOPymoQkDevMTL/bIiAEMc23atPbiBRm8UfHC0tKucQqEQ3Y+gQvBadzebMjHl6Otoet0y29jFjdFRhuXuClpvopxR44aLkMGDZBN6Fy0VEf7QEfQfr4c7Vuz4BlTQdoNHvaBul+pNiVHxfOnEefcxoSNEzcbYYLc3mzk4U+TUxb8S9fZmMXpphOHS5xumq96+GGYwz+BjWhbsrPZh1yW2fGMc6ltl1fWNcCRjuMSZ13NLoMsacDxjLOkWJes04DTgNNAc9SA9Tvj5lgYJ7PTgNOA00Bz1YAzxs215pzcTgNOAy1KA84Yt6jqdIVxGnAaaK4asBrjN/H9Kj/Uz5dj/nwx5FzmNZBO3WaiHtLJz1/apPH8abSEc366OH/uTO+b/pZQnmyXgYhRMiaamwtd9MFCxGHXZrOwo4cPlYNHTogAFBTluDS0TdvWUnU5RbaKCt8Uf36XmC6zmPmR6zsJK32GDCiRqprrsgcrFn8KfBfNtIP85KT5aZzndOrW1EM3AJmSspXTyc9fN1q8KH3msk34ZU7nnPCoKRPHSleQ2S5fuSpHwKm+82Pjpc9BnnHceOnIko2wjmecnlatPeP0kslv6BIQr/q+BNZkWxI/s/h7AN7f8u1swrzrmcW9pKiofmRBGP3t23fly282Yun2M1kCIprf2eIlzc9wnslD5p9Z7uzPM51zwyU26R04ViG9invIjRs300kmY2Gj9JnLNpGkUEQEjMamCAQ9cen5Y3wnPvuNqaFJkWd88uWy6HTihSaW44vkGf/7nz/Fku+tMhsrdolUyLYjz/izlWtCF6plO++mpG/tGTNRG7uW0xdzsGyWvbzrIHcdrTgjFy9c8uTo06+PDMUTvwYAGmIte2CJ7Ybte7zl0BrPmJW0ELtadO3cRY6fOVe3PJSJ2uLx+8DF4O927dTZy3v0iKHecSfgJFxSaovHQBqv2UvE8l8SZnFX9Iq7deniMTS4knE3lrj+6eMVHruDHAs6Gz85SX5MT+M805+99OGopzat28gRsD0OwSjQ2eqBi0o0trIXWfnPlh851ufRdiaNLW0kC5MLa4OaPr2HmtImFBFz6kVkwEbf6ror1dekFEyQoAvyjOPGC6aTz99s845nHF0DqjG2sWuXoVdXgx7Rf/39C8wrd5RfLn9bPgVUiMNugnEmAHDSD/CZzTv3CntUhPhE8YzZw7x0pUaOHtssAwb0T4HNIb8aDwzSr9ZskJkzpnp0qyPordFx+yc1HgygjddM1obGT07CLCaNi+l2wYPpLoahXbp29paA8khjrLGOk+RHHWicZ/pz9dPfPl8lxdgF5efLFslpENseoK5s9cA4xgW5xFE6YzxbfuTMdsAUSJgsjBfWBjV9XqmstrYJpldojvObozAll7pfyhuJZ+MZR8VrlFCeLjiecXzFq9MUYexagkr69e6FqdxHUjpqpAyC4byPeV2SpIx7BoDPOgBP+DR8hHDkjGo8YwJqegLZyN4ZwxPfSQgQnRaPT9wnoMMxP8Ph5W/2HrR4TNfGa4bNhCHr4BkzGjTz9xqA03RJmMWUbfu+A7L87fny8UcfgLQ2EejLR3hIvYBh7oIRwetAKG4NXXqeJD/KqXGe6X8SS21ZL9zBowp/gwb293rqtnpgHOOCXOIonTFeWH4mPc0vrA1q+tTahMmvkI6E+PPvOdpyFyBV/Y4PORvPWIvnTyPf545nHL8G1J6xPxnD/2QDoaMxfvjy5dp+vGgjutG42vsPPbiQ+c0jh480sM+f10NBuHko58C4qzT9nvn8TFwtngnzAjsJGGNprkXFs/GaORw/UZHab8ykZY58mZaUWUxWMP9YXurwE5DmakGZ0/jJ3KAyaX7pcJ7b4m09y63Vg9EBj0EuMR9+Np3545lzk5/57T+m/OrbiN/PtEFes+nThA9rE8avkI6V2DKMf+R7fPyr9+Qi3kNwNEmn8Yy1eIVUPsczjl8bsY2xSZLb+/wIXm43PMV5Q7CXws0G772c+zThgkeNZ8y5SBqD4RiufYeNRfkmnFuf0GnxTB4112/JpHGlcvjIcW9KhIZYi0djaOM1XwO72ObY6xJJxizuW9JXbmN+nXnPwGc3NRg1kLussY5Jf0uSH+f0ozjPnIutRV327tPH27D1EubYyS+21YPRSVIucVh+Js0S6KahLJeNl/Vo06eJENYmbHRBEyeXR+pxTOlIOQacJO8hbxdlCMAer3FhPOM48Uz8QjlytOt4xtG1oRjjcCwmG/QaDKkXg2c88eMPMU/80Nu7ayfe2HOPKrqU0WqYOUlmGs9414Gj8va8WfLmzBnefDR3zCU/Nyoec6nCZo1840yuMXtPqS3BT1nz43xyd/RE5npzzalP585+f0E0Q8x8KEsSZjF7w2UTxnovPJkOd7PegP22bM5oPml+0ZznF1KMl4p/AAeZ87U7AJbn9A6drR6MrMm4xPb8mO4QTJHMmjrJe+m40yeLjZ8cR5+2NmHKke8j59C74p3BH/Ei9zGmix49fiybdu2r2xjBxjOOipfvcjXM3/GMG+pD/xXJM9aie8NaPNWDvGItDv1sPONWrVt5L95ohMKcLZ4Jy2kEzoMGtwrS4jEO8wt7gJh0w45JmMVt8HITkxSejGFpateS5McRgsZ5pjwvvPn2hlsrRdWDJqfmF5bfv/zhN/KPr9Z6GwJwaiGdthRHn7Y2ocmZSz9bHUXxjG3xcil7U/NyPOOGGlR6xg0Dhv0yvakwP+2ajWdMI/r4WbghZnq2eCYvDofCnBbPFicsHf812wPDHyZ43pRtjJLkF8V5tskTVQ/BcsX9bcuP8Tk9kq7T0jNpJa1fEz/bR1sdRfGMbfGyLW8m02cvP9/O8YzzXQMu/4LRAOfuf/jhEkYn4Q/SghHUCdJiNeB4xi22al3BnAacBpwG0tdA/avb9OO6GE4DTgNOA04DGdKAM8YZUqRLxmnAacBpoCkacMa4KdpzcZ0GnAacBjKkgbSNMT9nW/jW3Lo/syIvQ/I0OZk35zd/DnKuysBl6G+8PlXe/9lieX3GlCbrPp8J5Epn+Sgjv4t3POP4mm9xPGNb0QnhqTh1Tjrg+9yfLZovW7btsn2bb0siq9cNfzcOBzkbgvDrAPIEOmD13IXKK1J+4Ejdgoq4+fnLwO9kbfxkjVnMvKJkIYbyEji6O8BW7tChg8dcTsosNmWjvEEms/FL96iVPZiWX2dBv+DvKL0Ew2frd1wuseMZp1cDvXv2lOFDBnqsm3TXD6SXU2ZDp/2dMTkEhMu4XTgaV8QoLG+dMXm8rNuyy2NwlI4Y5i1/bhwy/hU/z3ggVqqRqvb5l2u9BAyz+AyWkHvOLN3DjyhZWH+9QWz7eu0GfOOb+t6TPTDyio3r1KmjLF0wNzazmAsRFr81zyOQnS26ZJJJfNTKnjTRKL0kTTfdeFxFaHjGJPeVod2QZ/zN+i2NkuLq0iPglNClE69RQnm4QJ7xtZprHjJhxbtLpBrnN69nl4FNnjH/mpuzGuOBgwbINDSQ3sXFcuP2bTl07KRcAsQkynHtfBjrmI1o2ZKFcgK9arKPO2Mp6NKF82QNoNNcRq3lR+btnoNHZDaG0p3Qgzt26qwcOnzcE8XG36VnUrZyUtbxjMnjZDOWtN64dt2TbS/4E8bR0E0Hk2L08CHStm07uVxdLdt3lXtl18qg8Yw1ZrEmyyJMMxHZSA7Ch9AtnWFAa8xirQxMw8Zkpp/NdQLjZCbqdRA42FzKTvzHTWBG12PJvVZ2TWda/Wl6scmYjetxucSOZ9zwftdswa8BWoKZ8dztu7Wy7tv6B5sWT2uD2ah7W5pWY8y54cPYBubKlWopKekni+fPlv+8XIken6/7FZKqxjreB/7E+zDInwGYwyHyCexeYHgWWn5k3k4YUyqr12329uX76P1lcurMeS+uxt9NylZOwjp+AshON8hJYzJ/3kwseX4q5767IIaeNgEw95K+vWTNxu1C2BJBPgYTqpVB4xnbmMWtW7dWZdm2Y6907d4VHOrF8vnX67xa5PST3wWZxfTTymBjMvOdgsaHngVDfAtc6s1gdXDfMgKiyvcf9kTRyq7pzFZ/UXrxlz9X51FcYsczLhL//a7ZgpVsyzDGffFgnxN4B6LF09pgrtoB87G+wLvww0V5+uwphk8TZCyGSZwD7YFhreaiWMc0TOUgq330wXKpRW/4NHq4xkXltwcAGRpuMpJvwJj3wjZLGgfZpJsuW5nxkrCOOb/Jh/J4zBefxIOCMCBC23mdRmDaxHHeFjvUAZfoVlSc9o5RZbDxjCmnjVmsycJ4XHr85HHK+HJJO/+CD9kgs1grg8Zkhi1W+dDsnd8DSpRze3cB4S/G7i1mns9W9iid2eovSi/UTa6dxiXmg8zxjOvvd1M3YbaAfuTSeO35Sfgya1s8rQ2aPHNxtPaMl7y9ANvgtJL9h08Iubq9i7tj/tNquz1ZzZcVGuu4PYw6bzZiA/0unfwM19YDFVk4yCbtdNnKjJeEdcxpGI4Z9h44LLUYIt3AtlOV6P0OxtZGP3x/0QP2PH5pAI1sPGploPGw8Yxrqq/W9bqZDh9ss6eVSe++feQ65uVsshB7GscFmcWsW0KHwsqgMZkP4AWmxjo+fe57WYppk1LgU4uK2stm9NrptLI/fcqHRzj/mnFt9ffTw4dN1gvTz6TTuMSOZ5zStLnfw/Su+YWFN9f88Wxt0ITN1THUuraGER6K/e12oTfKl3VdMPwuwlyt35El8Ag9KvZS6GiM/KzjystV3tzwXQzJDeu4pH+JjMMmjH9bucrb2WMM9j2ji5OfFzDwH3vJhr9LLz8HORC0wU8/65hGhvFK+vSWKhg4/qZcHfHy6ix6uKuwgWinoo6RGymyZ/kd5tQnjR8rpJ7RmNCg1cAoU8ZKpD29bLw3zUJ/viEnUFwrQ6qHmOInswD83R5zz5x+4dz8RPS2mRbd0GFDvOtkJGuyeIEj/mParVq1qZtCYnCtDGQy/8df/iF//utK7+8sRlXb9x0UGuIoV4bpm/Vbd8nm7bvl8y/WevpgHK3sms60+muqXqLKko4/dTwFO75wxEGXDs84Kl46cuQiLEeChmfM9srtvR6BlNgPTG3W17jxY7xRZS5kCcvD1gbDwmbzWmjPmBjDcryN/MWyxd7ectx0lEB5v2PDPni8Qla8uxS93Kfg/B7wNh21sY6JalwCBvLaTTu8m3zdpu3yIeZ+r2HYzptLzy98npo3bBR/N3VT+yVPcYltbGW+pErCOmYOO3aXyxK8lPzkt2TUPpb9Ryu8Pe/ot2nbblmIb6A/AUP4MeaT7z24LxtghLQykNRm4yfT2HNIT4YzRxl3MNRfiw0uH9wnB1qXxQvg9RFTZ8H/bcxiWxmC8fk7vMYah/wBu1wsQ8/4LvdKBELzAXaP2XfwmNcJsJWdqdjqncZNqz+tjhpLl70rUVxixzO26T5Gy4JdaByq8RWTg9YGTZhcHFWeMQ0THXtFNkcmKQ1KkEPrDb/TZB3HyS9MDj5tGTcJZjI7rGNylcFIDnnZSTlbQ2fsLfhdVBlsPOMorm07wONtsvjzT+fcVoZ00mBYPlA+XvGefPHNJu8hQkM6DqOSgXgB8+Xqb+uSs5U9SmdMn20i7IGcDb3UCZzGia3+HM84DSU2IWjcNtiELGJHDe0Zm9iaEa4P03Du11znRHq6Lk5+YWk2hb+bHdZxQ0Prl5llDCtnVBlsD5oorm020JS2MvjLGec8LkvWVvYonQUfeH6ZsqEXf/pxz23153jGcTXYtHBx22DTcokXW+0Zx0vChXIaSK6BQmHJJi+Bi9ncNVAobdAZ4+bekpz8DTRQ9uv/2+B3Jn6c+Op/ydOfatNO6t/++++tcf7P//uL1c95vJoaCP2a4tVUhSu100C4BkYu+B/Spn2ncE931WkgQxrIiDFu1aa98M85p4GWqIEO3QbKyLf+pzPILbFyC6hMGTHGvUsXCP/8jt9R8htC55wGWoIGnEFuCbVY2GWIZYz7lvQN5d12LB4kQ974RPqOXe798ZzX6H4NAE2Q7PbLjs9lYOuG28InUc+/dX0hnV+zfzdYKGmmK8f4Ni/k1x0zW64oGV5r/ZqMWjJPivDNcj5dr9HDZfjCmWALxHuAj8DiIRLYcumcQc6ltl+9vP4/KNg87UgmFzcAAAAASUVORK5CYII=;" vertex="1" parent="1">
          <mxGeometry x="428" y="667" width="355" height="390" as="geometry" />
        </mxCell>
        <mxCell id="aU2NGoO0RUycPqF2l8S9-23" style="edgeStyle=orthogonalEdgeStyle;rounded=0;orthogonalLoop=1;jettySize=auto;html=1;entryX=0.538;entryY=0.005;entryDx=0;entryDy=0;entryPerimeter=0;" edge="1" parent="1" source="aU2NGoO0RUycPqF2l8S9-3" target="aU2NGoO0RUycPqF2l8S9-21">
          <mxGeometry relative="1" as="geometry" />
        </mxCell>
        <mxCell id="aU2NGoO0RUycPqF2l8S9-24" value="&lt;font style=&quot;font-size: 20px;&quot;&gt;olympia&lt;/font&gt;" style="verticalLabelPosition=bottom;html=1;verticalAlign=top;align=center;strokeColor=none;fillColor=#00BEF2;shape=mxgraph.azure.github_code;pointerEvents=1;" vertex="1" parent="1">
          <mxGeometry x="58" y="1157" width="120" height="108" as="geometry" />
        </mxCell>
        <mxCell id="aU2NGoO0RUycPqF2l8S9-26" value="&lt;div style=&quot;background-color:#1e1f22;color:#bcbec4&quot;&gt;&lt;pre style=&quot;font-family:&#39;JetBrains Mono&#39;,monospace;font-size:10.5pt;&quot;&gt;&lt;span style=&quot;color:#cf8e6d;&quot;&gt;apiVersion&lt;/span&gt;: skaffold/v4beta6&lt;br&gt;&lt;span style=&quot;color:#cf8e6d;&quot;&gt;kind&lt;/span&gt;: Config&lt;br&gt;&lt;span style=&quot;color:#cf8e6d;&quot;&gt;metadata&lt;/span&gt;:&lt;br&gt;  &lt;span style=&quot;color:#cf8e6d;&quot;&gt;name&lt;/span&gt;: odysseia&lt;br&gt;&lt;span style=&quot;color:#cf8e6d;&quot;&gt;deploy&lt;/span&gt;:&lt;br&gt;  &lt;span style=&quot;color:#cf8e6d;&quot;&gt;kubeContext&lt;/span&gt;: k3d-odysseia&lt;br&gt;  &lt;span style=&quot;color:#cf8e6d;&quot;&gt;tolerateFailuresUntilDeadline&lt;/span&gt;: true&lt;br&gt;&lt;span style=&quot;color:#cf8e6d;&quot;&gt;build&lt;/span&gt;:&lt;br&gt;  &lt;span style=&quot;color:#cf8e6d;&quot;&gt;local&lt;/span&gt;:&lt;br&gt;    &lt;span style=&quot;color:#cf8e6d;&quot;&gt;push&lt;/span&gt;: false&lt;br&gt;  &lt;span style=&quot;color:#cf8e6d;&quot;&gt;artifacts&lt;/span&gt;:&lt;br&gt;    - &lt;span style=&quot;color:#cf8e6d;&quot;&gt;image&lt;/span&gt;: ghcr.io/odysseia-greek/sokrates&lt;br&gt;      &lt;span style=&quot;color:#cf8e6d;&quot;&gt;context&lt;/span&gt;: sokrates&lt;br&gt;      &lt;span style=&quot;color:#cf8e6d;&quot;&gt;docker&lt;/span&gt;:&lt;br&gt;        &lt;span style=&quot;color:#cf8e6d;&quot;&gt;target&lt;/span&gt;: debug&lt;br&gt;      &lt;span style=&quot;color:#cf8e6d;&quot;&gt;sync&lt;/span&gt;:&lt;br&gt;        &lt;span style=&quot;color:#cf8e6d;&quot;&gt;manual&lt;/span&gt;:&lt;br&gt;          - &lt;span style=&quot;color:#cf8e6d;&quot;&gt;src&lt;/span&gt;: &lt;span style=&quot;color:#6aab73;&quot;&gt;&#39;**/*.go&#39;&lt;br&gt;&lt;/span&gt;&lt;span style=&quot;color:#6aab73;&quot;&gt;            &lt;/span&gt;&lt;span style=&quot;color:#cf8e6d;&quot;&gt;dest&lt;/span&gt;: &lt;span style=&quot;color:#6aab73;&quot;&gt;&#39;/app&#39;&lt;br&gt;&lt;/span&gt;&lt;span style=&quot;color:#6aab73;&quot;&gt;&lt;br&gt;&lt;/span&gt;&lt;span style=&quot;color:#cf8e6d;&quot;&gt;manifests&lt;/span&gt;:&lt;br&gt;  &lt;span style=&quot;color:#cf8e6d;&quot;&gt;rawYaml&lt;/span&gt;:&lt;br&gt;    - sokrates/infra/manifest.yaml&lt;br&gt;&lt;span style=&quot;color:#cf8e6d;&quot;&gt;profiles&lt;/span&gt;:&lt;br&gt;  - &lt;span style=&quot;color:#cf8e6d;&quot;&gt;name&lt;/span&gt;: dev&lt;br&gt;&lt;/pre&gt;&lt;/div&gt;" style="text;whiteSpace=wrap;html=1;" vertex="1" parent="1">
          <mxGeometry x="39" y="1420" width="386" height="468" as="geometry" />
        </mxCell>
        <mxCell id="aU2NGoO0RUycPqF2l8S9-29" value="&lt;font style=&quot;font-size: 17px;&quot;&gt;This is an example that assumes you are working on expanding the &quot;Sokrates&quot; api, which is part of the olympia repo&lt;br&gt;&lt;/font&gt;" style="text;html=1;strokeColor=none;fillColor=none;align=center;verticalAlign=middle;whiteSpace=wrap;rounded=0;" vertex="1" parent="1">
          <mxGeometry x="259.5" y="1179" width="353" height="104" as="geometry" />
        </mxCell>
        <mxCell id="aU2NGoO0RUycPqF2l8S9-30" value="&lt;font style=&quot;font-size: 16px;&quot;&gt;./olympia/skaffold.yaml&lt;/font&gt;" style="text;html=1;strokeColor=none;fillColor=none;align=center;verticalAlign=middle;whiteSpace=wrap;rounded=0;labelBackgroundColor=#000000;fontColor=#FF8000;" vertex="1" parent="1">
          <mxGeometry x="53" y="1385" width="136" height="30" as="geometry" />
        </mxCell>
        <mxCell id="aU2NGoO0RUycPqF2l8S9-43" style="edgeStyle=orthogonalEdgeStyle;rounded=0;orthogonalLoop=1;jettySize=auto;html=1;" edge="1" parent="1" source="aU2NGoO0RUycPqF2l8S9-31" target="aU2NGoO0RUycPqF2l8S9-2">
          <mxGeometry relative="1" as="geometry" />
        </mxCell>
        <mxCell id="aU2NGoO0RUycPqF2l8S9-31" value="$ helm delete sokrates&#xa;$ skaffold dev" style="text;whiteSpace=wrap;labelBackgroundColor=#000000;fontColor=#FF8000;fontSize=16;" vertex="1" parent="1">
          <mxGeometry x="39" y="1983.5" width="167" height="40.5" as="geometry" />
        </mxCell>
        <mxCell id="aU2NGoO0RUycPqF2l8S9-39" style="edgeStyle=orthogonalEdgeStyle;rounded=0;orthogonalLoop=1;jettySize=auto;html=1;" edge="1" parent="1" source="aU2NGoO0RUycPqF2l8S9-33" target="aU2NGoO0RUycPqF2l8S9-38">
          <mxGeometry relative="1" as="geometry" />
        </mxCell>
        <mxCell id="aU2NGoO0RUycPqF2l8S9-33" value="&lt;div style=&quot;background-color:#1e1f22;color:#bcbec4&quot;&gt;&lt;pre style=&quot;font-family:&#39;JetBrains Mono&#39;,monospace;font-size:10.5pt;&quot;&gt;&lt;span style=&quot;color:#7a7e85;&quot;&gt;# Debug build&lt;br&gt;&lt;/span&gt;&lt;span style=&quot;color:#cf8e6d;&quot;&gt;FROM &lt;/span&gt;base as &lt;span style=&quot;color:#c77dbb;font-style:italic;&quot;&gt;debug&lt;br&gt;&lt;/span&gt;&lt;span style=&quot;color:#7a7e85;&quot;&gt;# Install Air for live reloading&lt;br&gt;&lt;/span&gt;&lt;span style=&quot;color:#cf8e6d;&quot;&gt;RUN &lt;/span&gt;&lt;span style=&quot;color:#c57633;&quot;&gt;go &lt;/span&gt;install github.com&lt;span style=&quot;color:#cf8e6d;&quot;&gt;/&lt;/span&gt;cosmtrek&lt;span style=&quot;color:#cf8e6d;&quot;&gt;/&lt;/span&gt;air@latest&lt;br&gt;&lt;span style=&quot;color:#7a7e85;&quot;&gt;# Install Delve for debugging&lt;br&gt;&lt;/span&gt;&lt;span style=&quot;color:#cf8e6d;&quot;&gt;RUN &lt;/span&gt;&lt;span style=&quot;color:#c57633;&quot;&gt;go &lt;/span&gt;install github.com&lt;span style=&quot;color:#cf8e6d;&quot;&gt;/&lt;/span&gt;go-delve&lt;span style=&quot;color:#cf8e6d;&quot;&gt;/&lt;/span&gt;delve&lt;span style=&quot;color:#cf8e6d;&quot;&gt;/&lt;/span&gt;cmd&lt;span style=&quot;color:#cf8e6d;&quot;&gt;/&lt;/span&gt;dlv@latest&lt;br&gt;&lt;span style=&quot;color:#cf8e6d;&quot;&gt;EXPOSE &lt;/span&gt;&lt;span style=&quot;color:#2aacb8;&quot;&gt;2345&lt;br&gt;&lt;/span&gt;&lt;span style=&quot;color:#cf8e6d;&quot;&gt;CMD &lt;/span&gt;[&lt;span style=&quot;color:#6aab73;&quot;&gt;&quot;air&quot;&lt;/span&gt;, &lt;span style=&quot;color:#6aab73;&quot;&gt;&quot;-c&quot;&lt;/span&gt;, &lt;span style=&quot;color:#6aab73;&quot;&gt;&quot;.air.toml&quot;&lt;/span&gt;]&lt;/pre&gt;&lt;/div&gt;" style="text;whiteSpace=wrap;html=1;" vertex="1" parent="1">
          <mxGeometry x="195" y="2228" width="492" height="184" as="geometry" />
        </mxCell>
        <mxCell id="aU2NGoO0RUycPqF2l8S9-35" value="" style="shape=image;verticalLabelPosition=bottom;labelBackgroundColor=default;verticalAlign=top;aspect=fixed;imageAspect=0;image=https://encrypted-tbn0.gstatic.com/images?q=tbn:ANd9GcQ7WE-Mbfi-eAqqmFr1JLgKGp4fJoJTzsizWA&amp;usqp=CAU;" vertex="1" parent="1">
          <mxGeometry x="386.5" y="2128" width="99" height="123.13" as="geometry" />
        </mxCell>
        <mxCell id="aU2NGoO0RUycPqF2l8S9-40" style="edgeStyle=orthogonalEdgeStyle;rounded=0;orthogonalLoop=1;jettySize=auto;html=1;" edge="1" parent="1" source="aU2NGoO0RUycPqF2l8S9-38" target="aU2NGoO0RUycPqF2l8S9-6">
          <mxGeometry relative="1" as="geometry" />
        </mxCell>
        <mxCell id="aU2NGoO0RUycPqF2l8S9-42" style="edgeStyle=orthogonalEdgeStyle;rounded=0;orthogonalLoop=1;jettySize=auto;html=1;" edge="1" parent="1" source="aU2NGoO0RUycPqF2l8S9-38" target="aU2NGoO0RUycPqF2l8S9-12">
          <mxGeometry relative="1" as="geometry">
            <Array as="points">
              <mxPoint x="633" y="2513" />
            </Array>
          </mxGeometry>
        </mxCell>
        <mxCell id="aU2NGoO0RUycPqF2l8S9-38" value=":2345&#xa;:5000" style="shape=image;verticalLabelPosition=bottom;labelBackgroundColor=default;verticalAlign=top;aspect=fixed;imageAspect=0;image=data:image/png,iVBORw0KGgoAAAANSUhEUgAAAOEAAADhCAMAAAAJbSJIAAAAyVBMVEX///8gwu8No8Y5TVQOrNEMlrdj1fQfxfM7REg7QkUJmbs6SlAgO0Q6RUjt7u/o6uomQEgit+EpnsAxfZQmqc4sk7ErmLgqa30mc4gyYG4je5Qui6hl2/s6SE02QEQwRk40x/BX0fPKztA4UlvAxcezubtKzfI0WWQvhJ5PYGbV2NmnrrGMlZl5hIhndHkwxvAzcISbo6Zbwd1Cc4JfzOpLkKRZaG1Qn7WssrVavdhzf4NJiZtGWF5Wr8g2VF5Eeoo7OjlEbHgwX22MRMweAAAL3UlEQVR4nO2da1ubShSFG0CHhKCJJs3NSWqjReOlai/ao6bq//9Rh2uA2cNlYIAZnq6P54k9vBL2XmsPznz69E//9E9RbW4uL282TV9Fddr87q9UddX//bXpK6lGX10+R6v+5VnTV8NfZ5cBn6vWMZ69DFRCA/W86avip3PI5zE+NX1lfPS0ovK5jIOrpq+uvK7URD6XcXXf9BWW0sH9gOAzlksj/l9W/fuDpq+zqA6uByuS78efhx+AcXAtJePBdR/w/X042d8/efgL7+P1YdPXy6rDG5IPe3yOTn7+XWKS8UYqRhrfc8DnMT5Dxv+kMaybW8CHn396fN86nW8BIwaMt1IwUviWET5HAeMvEzIKb8pDe73jM37tx/gijPu/VJNkvBSaEfKZNL4o46P9kfiPCGzKz14IPkNfP/p8XzpAX059xrVOMr4IacrPX/pqAt8phS/GuF3Gf1TE4PEE7Ody+3qSeP8IxpNXizQBggUPYK+NpeXzJd2/HIwrYYLHPRmPjOUsJ5+j7wHjDDKKEDxo8eH91ft6nn7P5gsZ90/+vItnymnx4f0PG5/IjIeU+PDjD7X9ZctnpISrxoIHtNfGLj6csvI58k3AgyDBIy0eMd8/glGE4LH5L9Nel2SkmPIaGTPiUTntgkdz4YoaH3jxRRj3fxmAsY4Vj5zxiA8jCB7Vr3gQqw+2dPWRN5+jLwEjJXhUyHgG44OaEo94MYLgUVW4Oof2evuYHR9KMKaY8goYQTzKHx8qYVQ5B4+rcvGhuHbBAxjWwYBj8KDEo/eAj8Fel2GkmXI7XHEx5XY84hIfODBWsuJBX13x20MtfK6C4EFb8SjFSItHpeJDcVUSPKjxgac9K8RIWw0oxnhYVXzgwMgjXFUaH0oz0kw5W/Cg8XGND5Uw5g8elNUHlXt8KM/4qOogeORi3JB8hllNfCiuiCkHqzrZ39WvgC9r9aEJBYYVrnj0s7LVQdyfVR0fisu/j9CU9zMcwPUqxld9fCiuhOCxukknjPHVEx+K6ws1eKzyfkmN+uJDcYWmPERM/5pGH0OvwIjM58hltG/jOiRMtXBRQqw+nojO5+j76clrtKTmJ1RVff0ZoaYBsoSQYsVaRk5Cy/NEpqWIzYjQaOZZm6XFRGgoi63LaHRnI4EZ0XDS9fjWjycGG6GiXKx9xokmKCIa3nn3DxtOWWQmVJS54TPeDQVkRJ1j3b0+bHq5oAChokwN73fUPRaNEXUuTJ/v2fPN33ARQpvR/x7gi45AjAgt/O9XMFex+1pBQqU38RnNhSiMCH323vgzlj9+hr6rKKEy2vMZTXUsQllF6Gire3zvD9HcU5hQUbQ9v+eY66OmGe0GaPkN0J9L73JBCUJbY0v3LUCj7THS4LevZG4tR6hoIlgAuwEGDd4PPtG5SknCiAXQJ820DjQMCrv6CPl4ENqManMWwG7wfgPE/uCPnIvxIFSUY68N1W4BUGcR8D3T+XgR2hbArN8CIDT2vz3BwgItuPIiVJQJ9hlrsgCRBv83mY8n4c7mmGoNCdlu8JZJa/BVEjoWwPuu6lVbANjgkwe3PAmV0ALoVVoAhLRdggcNvmpCZbTw3WF1FiC9wVdOqESnAFW0jqwG3yHrXAWEijIPLMCUN2N2g0edUQ2Eu0mHbQF4to4wwQcN/pT8BDpavx3F/pcVEVZhAXI0eDdjmJ/rIYxYgDEPxhwN3ilBWLXqIwwtQPkheWKCj3zEeUTxpDfp1kcYTgH0bSkLkJLgw4+MsWnOxr16Ce326FsAQy/eHvM0eOcWY2vR6+3VTchhCpCnwaOjN7ye23x7DRAq5SxAdoN3PzXWZy5fQ4SRhQBGCxBpgAkNPiDsTmzAnqI0RRi1APkZwwRvJjT4GGFP0bQGCdkXAiINPmiA8FcQEk41R40Ssk0BEkb0sY8Mx0PBCPNPAaIJPrEBLnB3gQQjDKcAqQsBuRr8kWoaWDxCJcdCgDOi76Y3ePdXgLczU0hCZbSw0qYAORq8s0yPjWlvqotJqKQtBOwavJnY4N1lbDzZ64lMmLQQEK7B48ekBm87bGx+jB0HKjThbtIRsQDQwJwCvg5Susb2wnOgghOGFsB0LUBkDT5lRG977O6HxycBoaLc4fBdgHwjeofQdaAOiwSEtgUI2mPOEb1H2PNYZCAMpwDpBiZOGLBIQWhr/OH/3XLaiH7XOGUkVLSF5SAG7xhQEiAaHgcv0UlJaDPaJsf8mZRwnSFa91huQsUlTOBDY8P22O0gPKXxHa11bE1M2QntVqE/UBqgEzOwOu/NdckJNZvQHJJ43pTezhA96Qk1t9IAQnRhuhnCdjCSE2p0QjR6M9wMIT2hlkgYemypCbVUQt9jy0yopRP6HltiQi2dMLhqeQm1dMKZ9IRa2wm1thNqLSfUtJYTjtpOqGktJ9TaTkgCto4QALaNEAK2jJAC2C5CGmCrCKmAbSKkA7aIMAGwNYRJfK0hTAZsCWEKYDsI0wBbQZgK2AbCdMAWEGYAyk+YBSg9YSag7ITZgJIT5gCUmzAPoNSEuQAlJszHJzFhXkBpCXMDykqYH1BSQgZAOQlZAKUkZAKUkZANUEJCRkD5CFkBpSNkBpSMkJ1PMsJRIkZLCIvwSUVYDFAiwoKA8hAWBeRLqFdHWBiQI+H4w6juHhYH5EaoTHTnzxlj4kdYApAX4RxjuP8mN8IygFwIhwtVd/48nPhXEBvhbK8SQA6E+uRDp2xjgIZ3TDuWq4Y5qQKQAyE2KPtuo85xN/j7zYyDZsJjZgxjzp2Py7dUB9vCOFtH4d2FD1IBP91GTtLB6wstDljIinIl7AwX5DkGzu5gZnjVq9t0wk3stFhsjUc87yAHwg54AEez2Nld/axzu65jiIY56/EE5EBI/GywucYOMOMwJFv38UO7DH3KEZAzIepcdHH0alf9PMevbn7HzzU21Dk3wIKEEyqh82e1MT61/zvnEYFfX+Jnk+H1gg9fIUJtYeHuGBAipHjbD4ZFlOU866dV/Hw5+3FsitB2oCaGtxAN4wVGXQ0Yz0C+Jh/HSTOVZqrTtkZFw+N4gSlypuwBcQ6pgY/rJ7wwdMou/rvt3cIH8L9CZ61uLuMlB6sXtRKalqU7W02DB9DfHSXky3GuY4LOiOPG9e24TkKDcmiYszdWnG+gljpo/Yo40lKf1Zee3nS4od3uCKvwASx9ADlZcrqlSk5+wk7nM+TrcCgwUIe3hAPA83oI4QO4II5z7t8WPrA6LlhyCjsAFkKS72hNPID5DsfNJ7LkmNZezYR2hCD4VqUKDNT9gIsDKEgIIgSHAgN0QJy0bphT7oS9Xrh7S/QDwf5uId8NhwIDRZYcbLA7gFRCbb4O9/GMPICFIwS7YOhgdQBphHsWdvY7JflAgWGJEOw6HxAO4IMtdCQTKjMdwxaPtBnxAA6equRzVK7kJBLaGUIHGYJSYK6r5vtEKTmYoeTQCfW1im1KMAQFBaZYhGAXOedgKDl0QpNyaK0dIeorMFCg5OQNHdRdlLQ3cLKiu71uvMColRYYKHLOoedzOfR9oobwASQjBOuMgocKzTmohJD4WK8gQrDrEMw5sktODsIKIwS72EtOJqG7f3ecr/iMgofI0JFVcjIIKTMK3hGCXVdMLiedEA2Bg+EfIdh1wFJy0gidzT2JAlNNhGAXmHOYiaPVZELKELS5AgO1uSQex6TRahIhHIIOXjjOKHjonHQA9JJDJ4QFZtV8gYG6J0vO7Cgnoe1gyFUWEQoMFJxz3OXZY8jZY1/QAgO1yRytAkK7wJAOps4Iwa6sxVWCkDKjqDtCsIssOfHRapyQEpEqn1HwEPmugxlxAFFCNLwjH0AxCwwUKDn6FBJSVlnELTBQiaEjIKx1CFqNzuglxyMkXtRSKx+CViPwPofV8wl3xxzuvqCrBmYUPEQJHfadw9q0iSFoNYKjVfcLy+U9ClFElhyghmcUPESWnHiBEd/B5NETETrCB1DQCFFARMmRv8BAkaNVVbAZBQ8R73NwfY9CFEVGqyVf1BJX/itk8kQIdh3cr/r9VTOrLLXpsPb68j9kmcfHWbANEQAAAABJRU5ErkJggg==;" vertex="1" parent="1">
          <mxGeometry x="387.5" y="2459" width="107" height="107" as="geometry" />
        </mxCell>
        <mxCell id="aU2NGoO0RUycPqF2l8S9-46" style="edgeStyle=orthogonalEdgeStyle;rounded=0;orthogonalLoop=1;jettySize=auto;html=1;" edge="1" parent="1" source="aU2NGoO0RUycPqF2l8S9-44" target="aU2NGoO0RUycPqF2l8S9-38">
          <mxGeometry relative="1" as="geometry" />
        </mxCell>
        <mxCell id="aU2NGoO0RUycPqF2l8S9-44" value="" style="shape=image;verticalLabelPosition=bottom;labelBackgroundColor=default;verticalAlign=top;aspect=fixed;imageAspect=0;image=data:image/png,iVBORw0KGgoAAAANSUhEUgAAAPwAAAApCAYAAAARWET7AAABXWlDQ1BJQ0MgUHJvZmlsZQAAKJF1kD1Iw1AUhU+0pVgzOIgUVMiii1VKzdbFWqEWO8So+LOlaUyFtr6+Rko3FycdHMSt4iDirJs4iIOOCoLgIo7uShG0xJtGSat44XK/dzj3cbhAh6gxlvcBKBQtriYnpaXlFSnwAgFBdMGPkKaXWVxR0mTBz2yv+gO5qe5Hnb+2Jw616/6b24PTnVTsaVf762+rYNYo6zQ/qWWdcQsQIsRKxWIObxL3cgpFvOew6fKJwxmXL5qeeTVBfEfco+e0LPEzcTjTopstXMhv6N8ZnPSiUVyYoxmiHkAaSUiYxhRUmouYbfLIPztycyeBdTBUwbEGEzlYtBknhSEPgziFInSMIUwcRYRadm79+4aetjUExPYJ+jxt5hg4q1D8mqcNd9P7DbiqMo179xbqvvLqeNRlkQP+d9t+HQQC50CD2/ZHzbYbR0DnI3BZ+gKfTGNcnOWOYAAAAGJlWElmTU0AKgAAAAgAAgESAAMAAAABAAEAAIdpAAQAAAABAAAAJgAAAAAAA5KGAAcAAAASAAAAUKACAAQAAAABAAAA/KADAAQAAAABAAAAKQAAAABBU0NJSQAAAFNjcmVlbnNob3TyFXkqAAACPGlUWHRYTUw6Y29tLmFkb2JlLnhtcAAAAAAAPHg6eG1wbWV0YSB4bWxuczp4PSJhZG9iZTpuczptZXRhLyIgeDp4bXB0az0iWE1QIENvcmUgNi4wLjAiPgogICA8cmRmOlJERiB4bWxuczpyZGY9Imh0dHA6Ly93d3cudzMub3JnLzE5OTkvMDIvMjItcmRmLXN5bnRheC1ucyMiPgogICAgICA8cmRmOkRlc2NyaXB0aW9uIHJkZjphYm91dD0iIgogICAgICAgICAgICB4bWxuczpleGlmPSJodHRwOi8vbnMuYWRvYmUuY29tL2V4aWYvMS4wLyIKICAgICAgICAgICAgeG1sbnM6dGlmZj0iaHR0cDovL25zLmFkb2JlLmNvbS90aWZmLzEuMC8iPgogICAgICAgICA8ZXhpZjpQaXhlbFlEaW1lbnNpb24+NDE8L2V4aWY6UGl4ZWxZRGltZW5zaW9uPgogICAgICAgICA8ZXhpZjpVc2VyQ29tbWVudD5TY3JlZW5zaG90PC9leGlmOlVzZXJDb21tZW50PgogICAgICAgICA8ZXhpZjpQaXhlbFhEaW1lbnNpb24+MjUyPC9leGlmOlBpeGVsWERpbWVuc2lvbj4KICAgICAgICAgPHRpZmY6T3JpZW50YXRpb24+MTwvdGlmZjpPcmllbnRhdGlvbj4KICAgICAgPC9yZGY6RGVzY3JpcHRpb24+CiAgIDwvcmRmOlJERj4KPC94OnhtcG1ldGE+CqxkUv4AAAnISURBVHgB7V1pbFTXFf7Gs3g270txvMQbGGzAbAYCKikYgiEtYnNLodSEtCASNYBE2kSoUVW1Kv2D+qeJSpoSFITURa1aoE7iNinQBkoKxiZgFrPExTYdZmyPPZ7xbJ7ee533MgMOHsOMPU9zjvT07jv3vPPu/e773j13GY2qbHJ5ACSEACEQFwgkxEUtqZKEACEgECDC04tACMQRAkT4OGpsqiohQISnd4AQiCMEiPBx1NhUVUKACE/vACEQRwgQ4eOosamqhAARnt4BQiCOECDCx1FjU1UJASI8vQOEQBwhQISPo8amqhICRHh6BxSLgD41EfwgCR8BTfimsWmp0uphyMyHISVTFNBlt8Jl/S8C3oHYLLDCSqXVapCSksJKrYLD0Y+BAde41yAxSYeKNaVIzjWJsvS29+PSn1rh7vOMS9mWLXtGPLeh4f1xef5oHqpIwvsDAaRPmgdnVwcmPf1NZBZVhNTZeusSWk/+DvqULHRd/xjqBFVIPl2Ej4DJZEZCghqDg4NIS0uF22NAr70XPp8vfCcRtpz8tSL2gdfh8p9vCs8Tq/PBdU1Hrkb4SSO7y8rOxs5du4XhhaYLuGexjHzTOFooMqTnhfZ73Fj9/B7se2k9vjo7V4ZwVVWe0K3auht+rwePyvWqqrn48U9+Kvt9WGLxkmrs3fvDh5koNi9BnQCf3wer1YqeHjs0ag0yMzNFr69Sjf3ro0nUIK0gGe3nLRiwu8XB01ynZnljLVarDcePHRMHT8e6jD1CEUBEpVLBxEL4pO4WvLRlP+rr69HcZgdT49nKHNTU1KB6+UoY07LhaHu03j0zOwuzZs4Kq7QTJuSgsnJGWLZKNnK5nHCxkN5sMsFsNkOv16PP0Qenk4X5LOqKlkyrnQify4+bp9pZ1MbG7OxZhYtyxSE9M+APIGmCEa4eN4q/nAuNQY2Lv78uZUftHBj04403fhk1/5F2rEjCcxDMEwpRPHkadAmD8A8GWA9kg9vlYOnJgvC5k6Yi6bYPowmwJk8pR3l5Oa5dHT40LCoqxvTKSni9Xvz1+LFh26J66TLYWG944UKjnL/o6a/A5XLh47P/Frpw/Mg3x1qCkc3hcLD6DCA5OQkpySkwGU3o7e2D2x2deRNbqx0lS/LwpYp0DPoH4bA4cftfnfD0ewU6OpMWhQtzML22FCIi8bKPw4ftsYZcTJRHsYTX6Iw43Z2KuU+txb6jV5B25wN4u9pYOh8lTHem1QZuE65s/nYd1q+rFcTU6rS429kRcuu69V/Hxo0bWRShglajxcoVK3HgwK/Q3NwUYldTswJarRa7dn5P6DMzs7Bz5y68+269IHy4foKdpqSmwd7THayS0w/Lk42ikPCzML+7uxs6nY4RPxnp6WlsQm9AhP2BwGBEn9jRaIHlSjfKVxUhJc+Mpt9eh9c5RHbpQfY7DszfMQ1dt3tx+S+3WEQQmi/ZReNsMg9NHvazSc1Yl7EfhEUQEYfLhw8u/g9t9xzQzKxF4Zq9LO3Eh0zH8xDmGLOkZCJWr16DU/88hQ0barF7104YjWa5pAUFTzL9Bpw/dw4vvrCDjddfhcFoxKZNm2UbKXHmzBkUs0igdOIkoapeulSMe//W0IDR+JH88fO3Nm/B/AULg1UizXU8bzzF4/HAarPBbrd/Rv6kqBSHEzjAIrm+u84HyM4fyD8API/bjC3ZzfjNW4fEYWLDnFgXRRI+wMLKgD90CeZTiwNnW60heCeEOWM3Y+YMJCYm4tixo+L+trZP0XyxWfY1e84cGAwGtN64gap581BYXIzOzk7kF+TLNlKi4f33RE+3ePFioZozpwrXrl/DrVs3MRo/kj9+fvvgm5g3f2EI6TnZuY7nxZLwCCiSklGaisoNZeIwphtYu3/xXAHPM6brZXt+L0koAooM6SsKsjDb1Im20LrIVzdOHGGzuH9nX3u/rHtYwmxOEqH8lZbLsllHx+djwGQ2TuVSs7xGzucJPi6/X3p77SzMb8bMGbOQm5eH0tJSHD58WJiNxk+w3342Zv71gdfxnW0vyGpOdq7jeeMpUkjPhzE8pLezJbt4Eo7/1ufrRJWVENIrkvBeRuTT7X7kPjn8q9XZdBJTlr0DfVKhbOBz96D56Er5OjjRzNZPa2trMf+pBThz+iORVVJcIpt8wnp7nv86m42VJt742NxqvSfbBCdOnjqBl/d8H+vWrofX4wXv9bmM1k+wz/tJP95kV7PlOT5px2fq+Zp8V1d3VCbtbK094AeXsmfZGP6JofFyMDZSOjFJix42lr96/JakGpOzEoguAaFIwl9v70bOE18cOuZULkJLw2bRw5syKtgk3j5o9BlSnR84NzaeZy+sDWvXrBPnvLx8TJ9eKdudO/cf2Ng4ddPGTTCxJSlHXx+2bd8udK++8gPZTkqcPPEP1NVtwVI2Y3/27Fk2g20XWaP1I/mTzhLp+fW49ewsZJeW5fjQys7qFu1lOV5fU5YBRraN1pChhzHTAKc1NLriOp7n7fcJ2/57ofncBwmgyDE8b7ie2xfhdTuHbcPiRRuQVTYXEtlvnH5lWLtg5eHD77AQPBf79/8C2767HU2s1w+Wn+/7GduA4seePS/jtdd+BB9b+jl06NBnJg+OKxvPN4olIt7bB8vD/QRbDp/mRB8vshsMRmRnZYk1eD6csVjuwdnP2oARP5pStCgPVVsrYGBjeI/Di6lrSgTppWdysnMdzzNkGIRtIVuLHwtRsV2IO3a8KA6ejnVRKfePKAL4xjMLcDd1JpA/V8aZLwldqX8T/ZZe0bNzsvfbLmHW+o9w/g8LZLvhEjpdIqZMmYKWlhZ42E6+4aSiYiq62RJZR/vnY/zh7EbSRcrPSM953PxUtiSoY8uUfGstH6e7GS5jvbW2bEWRWHNvO93JSK/H1LUl4kczUi/Oe/8BtuHmkz/egKtrAAXzc6Aza3C1/vbjVn/E+/nW2oMHhz78zz1XF/NbaxVLeGOiGnXL5+HtBtYTJ2VDrTeJjibgcUHlM4SQnbda+fIjuPzexhEbkAxCERj68UwqU/INN86Y+PGMWqtGdkUGUnKHlsHs7Q5YLtnYVurwJmlDa/j4V0r68YxiCc+byc92XanZXu/7pWzJW7jTtF/07Pfn0TUhEM8IKJrw8dxwVHdC4FEQeLB7fBQvdA8hQAgoAgEivCKaiQpJCEQGASJ8ZHAkL4SAIhAgwiuimaiQhEBkECDCRwZH8kIIKAIBIrwimokKSQhEBgEifGRwJC+EgCIQIMIropmokIRAZBAgwkcGR/JCCCgCASK8IpqJCkkIRAYBInxkcCQvhIAiEFCxPxWI7o+ZFQEDFZIQiA8E/g+ssZmhskgLVgAAAABJRU5ErkJggg==;" vertex="1" parent="1">
          <mxGeometry x="10" y="2492" width="252" height="41" as="geometry" />
        </mxCell>
      </root>
    </mxGraphModel>
  </diagram>
</mxfile>
